<ttFont>
    <TTGlyph name=".notdef" xMin="50" yMin="0" xMax="450" yMax="750">
      <contour>
        <pt x="50" y="0" on="1"/>
        <pt x="50" y="750" on="1"/>
        <pt x="450" y="750" on="1"/>
        <pt x="450" y="0" on="1"/>
      </contour>
      <contour>
        <pt x="400" y="50" on="1"/>
        <pt x="400" y="700" on="1"/>
        <pt x="100" y="700" on="1"/>
        <pt x="100" y="50" on="1"/>
      </contour>
    </TTGlyph>
    <TTGlyph name="A" xMin="10" yMin="0" xMax="631" yMax="693">
      <contour>
        <pt x="556" y="0" on="1"/>
        <pt x="537" y="51" on="0"/>
        <pt x="503" y="145" on="0"/>
        <pt x="487" y="190" on="1"/>
        <pt x="150" y="190" on="1"/>
        <pt x="133" y="145" on="0"/>
        <pt x="99" y="51" on="0"/>
        <pt x="81" y="0" on="1"/>
        <pt x="10" y="0" on="1"/>
        <pt x="50" y="108" on="0"/>
        <pt x="120" y="295" on="0"/>
        <pt x="187" y="462" on="0"/>
        <pt x="253" y="616" on="0"/>
        <pt x="290" y="693" on="1"/>
        <pt x="350" y="693" on="1"/>
        <pt x="387" y="616" on="0"/>
        <pt x="453" y="462" on="0"/>
        <pt x="520" y="295" on="0"/>
        <pt x="590" y="108" on="0"/>
        <pt x="631" y="0" on="1"/>
      </contour>
      <contour>
        <pt x="318" y="615" on="1"/>
        <pt x="280" y="529" on="0"/>
        <pt x="209" y="351" on="0"/>
        <pt x="171" y="248" on="1"/>
        <pt x="466" y="248" on="1"/>
        <pt x="428" y="351" on="0"/>
        <pt x="356" y="529" on="0"/>
      </contour>
    </TTGlyph>
    <TTGlyph name="AE" xMin="6" yMin="0" xMax="876" yMax="693">
      <contour>
        <pt x="464" y="0" on="1"/>
        <pt x="464" y="190" on="1"/>
        <pt x="177" y="190" on="1"/>
        <pt x="151" y="142" on="0"/>
        <pt x="100" y="48" on="0"/>
        <pt x="76" y="0" on="1"/>
        <pt x="6" y="0" on="1"/>
        <pt x="60" y="107" on="0"/>
        <pt x="167" y="295" on="0"/>
        <pt x="273" y="464" on="0"/>
        <pt x="379" y="619" on="0"/>
        <pt x="433" y="693" on="1"/>
        <pt x="850" y="693" on="1"/>
        <pt x="850" y="634" on="1"/>
        <pt x="532" y="634" on="1"/>
        <pt x="532" y="393" on="1"/>
        <pt x="814" y="393" on="1"/>
        <pt x="814" y="335" on="1"/>
        <pt x="532" y="335" on="1"/>
        <pt x="532" y="59" on="1"/>
        <pt x="876" y="59" on="1"/>
        <pt x="876" y="0" on="1"/>
      </contour>
      <contour>
        <pt x="464" y="637" on="1"/>
        <pt x="395" y="544" on="0"/>
        <pt x="269" y="351" on="0"/>
        <pt x="210" y="248" on="1"/>
        <pt x="464" y="248" on="1"/>
      </contour>
    </TTGlyph>
    <TTGlyph name="AEacute" xMin="6" yMin="0" xMax="876" yMax="929">
      <component glyphName="AE" x="0" y="0" flags="0x204"/>
      <component glyphName="acute" x="384" y="156" flags="0x4"/>
    </TTGlyph>
    <TTGlyph name="Aacute" xMin="10" yMin="0" xMax="631" yMax="929">
      <component glyphName="A" x="0" y="0" flags="0x204"/>
      <component glyphName="acute" x="142" y="156" flags="0x4"/>
    </TTGlyph>
    <TTGlyph name="Abreve" xMin="10" yMin="0" xMax="631" yMax="902">
      <component glyphName="A" x="0" y="0" flags="0x204"/>
      <component glyphName="breve" x="132" y="156" flags="0x4"/>
    </TTGlyph>
    <TTGlyph name="Acircumflex" xMin="10" yMin="0" xMax="631" yMax="918">
      <component glyphName="A" x="0" y="0" flags="0x204"/>
      <component glyphName="circumflex" x="132" y="156" flags="0x4"/>
    </TTGlyph>
    <TTGlyph name="Adieresis" xMin="10" yMin="0" xMax="631" yMax="877">
      <component glyphName="A" x="0" y="0" flags="0x204"/>
      <component glyphName="dieresis" x="131" y="156" flags="0x4"/>
    </TTGlyph>
    <TTGlyph name="Agrave" xMin="10" yMin="0" xMax="631" yMax="929">
      <component glyphName="A" x="0" y="0" flags="0x204"/>
      <component glyphName="grave" x="122" y="156" flags="0x4"/>
    </TTGlyph>
    <TTGlyph name="Alpha" xMin="10" yMin="0" xMax="631" yMax="693">
      <component glyphName="A" x="0" y="0" flags="0x204"/>
    </TTGlyph>
    <TTGlyph name="Alphatonos" xMin="10" yMin="0" xMax="631" yMax="705">
      <component glyphName="A" x="0" y="0" flags="0x204"/>
      <component glyphName="tonos.cap" x="-56" y="0" flags="0x4"/>
    </TTGlyph>
    <TTGlyph name="Amacron" xMin="10" yMin="0" xMax="631" yMax="860">
      <component glyphName="A" x="0" y="0" flags="0x204"/>
      <component glyphName="macron" x="132" y="156" flags="0x4"/>
    </TTGlyph>
    <TTGlyph name="Aogonek" xMin="10" yMin="-186" xMax="635" yMax="693">
      <contour>
        <pt x="539" y="-15" on="1"/>
        <pt x="544" y="-10" on="0"/>
        <pt x="552" y="-3" on="0"/>
        <pt x="556" y="0" on="1"/>
        <pt x="537" y="51" on="0"/>
        <pt x="503" y="145" on="0"/>
        <pt x="487" y="190" on="1"/>
        <pt x="150" y="190" on="1"/>
        <pt x="133" y="145" on="0"/>
        <pt x="99" y="51" on="0"/>
        <pt x="81" y="0" on="1"/>
        <pt x="10" y="0" on="1"/>
        <pt x="50" y="108" on="0"/>
        <pt x="120" y="295" on="0"/>
        <pt x="187" y="462" on="0"/>
        <pt x="253" y="616" on="0"/>
        <pt x="290" y="693" on="1"/>
        <pt x="350" y="693" on="1"/>
        <pt x="387" y="616" on="0"/>
        <pt x="453" y="462" on="0"/>
        <pt x="519" y="296" on="0"/>
        <pt x="589" y="110" on="0"/>
        <pt x="630" y="2" on="1"/>
        <pt x="619" y="-6" on="0"/>
        <pt x="597" y="-25" on="0"/>
        <pt x="585" y="-38" on="1"/>
        <pt x="569" y="-55" on="0"/>
        <pt x="550" y="-84" on="0"/>
        <pt x="550" y="-101" on="1"/>
        <pt x="550" y="-119" on="0"/>
        <pt x="574" y="-135" on="0"/>
        <pt x="592" y="-135" on="1"/>
        <pt x="601" y="-135" on="0"/>
        <pt x="622" y="-132" on="0"/>
        <pt x="630" y="-129" on="1"/>
        <pt x="635" y="-177" on="1"/>
        <pt x="627" y="-180" on="0"/>
        <pt x="596" y="-186" on="0"/>
        <pt x="581" y="-186" on="1"/>
        <pt x="527" y="-186" on="0"/>
        <pt x="483" y="-147" on="0"/>
        <pt x="483" y="-116" on="1"/>
        <pt x="483" y="-85" on="0"/>
        <pt x="517" y="-36" on="0"/>
      </contour>
      <contour>
        <pt x="318" y="615" on="1"/>
        <pt x="280" y="529" on="0"/>
        <pt x="209" y="351" on="0"/>
        <pt x="171" y="248" on="1"/>
        <pt x="466" y="248" on="1"/>
        <pt x="428" y="351" on="0"/>
        <pt x="356" y="529" on="0"/>
      </contour>
    </TTGlyph>
    <TTGlyph name="Aring" xMin="10" yMin="0" xMax="631" yMax="837">
      <contour>
        <pt x="415" y="742" on="1"/>
        <pt x="415" y="713" on="0"/>
        <pt x="388" y="669" on="0"/>
        <pt x="367" y="657" on="1"/>
        <pt x="401" y="585" on="0"/>
        <pt x="463" y="438" on="0"/>
        <pt x="526" y="279" on="0"/>
        <pt x="593" y="102" on="0"/>
        <pt x="631" y="0" on="1"/>
        <pt x="556" y="0" on="1"/>
        <pt x="537" y="51" on="0"/>
        <pt x="503" y="145" on="0"/>
        <pt x="487" y="190" on="1"/>
        <pt x="150" y="190" on="1"/>
        <pt x="133" y="145" on="0"/>
        <pt x="99" y="51" on="0"/>
        <pt x="81" y="0" on="1"/>
        <pt x="10" y="0" on="1"/>
        <pt x="47" y="102" on="0"/>
        <pt x="113" y="279" on="0"/>
        <pt x="176" y="438" on="0"/>
        <pt x="238" y="585" on="0"/>
        <pt x="272" y="657" on="1"/>
        <pt x="250" y="669" on="0"/>
        <pt x="224" y="713" on="0"/>
        <pt x="224" y="742" on="1"/>
        <pt x="224" y="785" on="0"/>
        <pt x="281" y="837" on="0"/>
        <pt x="320" y="837" on="1"/>
        <pt x="339" y="837" on="0"/>
        <pt x="374" y="823" on="0"/>
        <pt x="400" y="798" on="0"/>
        <pt x="415" y="763" on="0"/>
      </contour>
      <contour>
        <pt x="318" y="615" on="1"/>
        <pt x="280" y="529" on="0"/>
        <pt x="209" y="351" on="0"/>
        <pt x="171" y="248" on="1"/>
        <pt x="466" y="248" on="1"/>
        <pt x="428" y="351" on="0"/>
        <pt x="356" y="529" on="0"/>
      </contour>
      <contour>
        <pt x="377" y="742" on="1"/>
        <pt x="377" y="770" on="0"/>
        <pt x="344" y="801" on="0"/>
        <pt x="320" y="801" on="1"/>
        <pt x="296" y="801" on="0"/>
        <pt x="263" y="770" on="0"/>
        <pt x="263" y="742" on="1"/>
        <pt x="263" y="713" on="0"/>
        <pt x="296" y="683" on="0"/>
        <pt x="320" y="683" on="1"/>
        <pt x="344" y="683" on="0"/>
        <pt x="377" y="713" on="0"/>
      </contour>
    </TTGlyph>
    <TTGlyph name="Aringacute" xMin="10" yMin="0" xMax="631" yMax="956">
      <contour>
        <pt x="408" y="731" on="1"/>
        <pt x="408" y="705" on="0"/>
        <pt x="385" y="666" on="0"/>
        <pt x="367" y="655" on="1"/>
        <pt x="401" y="583" on="0"/>
        <pt x="463" y="437" on="0"/>
        <pt x="526" y="278" on="0"/>
        <pt x="593" y="102" on="0"/>
        <pt x="631" y="0" on="1"/>
        <pt x="556" y="0" on="1"/>
        <pt x="537" y="51" on="0"/>
        <pt x="503" y="145" on="0"/>
        <pt x="487" y="190" on="1"/>
        <pt x="150" y="190" on="1"/>
        <pt x="133" y="145" on="0"/>
        <pt x="99" y="51" on="0"/>
        <pt x="81" y="0" on="1"/>
        <pt x="10" y="0" on="1"/>
        <pt x="47" y="102" on="0"/>
        <pt x="114" y="278" on="0"/>
        <pt x="177" y="436" on="0"/>
        <pt x="239" y="582" on="0"/>
        <pt x="272" y="654" on="1"/>
        <pt x="253" y="665" on="0"/>
        <pt x="231" y="705" on="0"/>
        <pt x="231" y="731" on="1"/>
        <pt x="231" y="771" on="0"/>
        <pt x="282" y="819" on="0"/>
        <pt x="320" y="819" on="1"/>
        <pt x="355" y="819" on="0"/>
        <pt x="408" y="771" on="0"/>
      </contour>
      <contour>
        <pt x="318" y="615" on="1"/>
        <pt x="280" y="529" on="0"/>
        <pt x="209" y="351" on="0"/>
        <pt x="171" y="248" on="1"/>
        <pt x="466" y="248" on="1"/>
        <pt x="428" y="351" on="0"/>
        <pt x="356" y="529" on="0"/>
      </contour>
      <contour>
        <pt x="371" y="731" on="1"/>
        <pt x="371" y="755" on="0"/>
        <pt x="342" y="783" on="0"/>
        <pt x="320" y="783" on="1"/>
        <pt x="297" y="783" on="0"/>
        <pt x="268" y="755" on="0"/>
        <pt x="268" y="731" on="1"/>
        <pt x="268" y="706" on="0"/>
        <pt x="297" y="677" on="0"/>
        <pt x="320" y="677" on="1"/>
        <pt x="342" y="677" on="0"/>
        <pt x="371" y="706" on="0"/>
      </contour>
      <contour>
        <pt x="384" y="956" on="1"/>
        <pt x="408" y="898" on="1"/>
        <pt x="254" y="841" on="1"/>
        <pt x="238" y="882" on="1"/>
      </contour>
    </TTGlyph>
    <TTGlyph name="At" xMin="72" yMin="-82" xMax="868" yMax="774">
      <component glyphName="at" x="0" y="68" flags="0x214"/>
    </TTGlyph>
    <TTGlyph name="Atilde" xMin="10" yMin="0" xMax="631" yMax="883">
      <component glyphName="A" x="0" y="0" flags="0x204"/>
      <component glyphName="tilde" x="132" y="156" flags="0x4"/>
    </TTGlyph>
    <TTGlyph name="B" xMin="90" yMin="-6" xMax="575" yMax="699">
      <contour>
        <pt x="256" y="-6" on="1"/>
        <pt x="239" y="-6" on="0"/>
        <pt x="194" y="-3" on="0"/>
        <pt x="147" y="2" on="0"/>
        <pt x="105" y="9" on="0"/>
        <pt x="90" y="13" on="1"/>
        <pt x="90" y="680" on="1"/>
        <pt x="108" y="685" on="0"/>
        <pt x="152" y="692" on="0"/>
        <pt x="199" y="697" on="0"/>
        <pt x="244" y="699" on="0"/>
        <pt x="263" y="699" on="1"/>
        <pt x="319" y="699" on="0"/>
        <pt x="420" y="681" on="0"/>
        <pt x="496" y="639" on="0"/>
        <pt x="541" y="570" on="0"/>
        <pt x="541" y="519" on="1"/>
        <pt x="541" y="463" on="0"/>
        <pt x="484" y="384" on="0"/>
        <pt x="436" y="369" on="1"/>
        <pt x="466" y="362" on="0"/>
        <pt x="516" y="336" on="0"/>
        <pt x="554" y="295" on="0"/>
        <pt x="575" y="236" on="0"/>
        <pt x="575" y="195" on="1"/>
        <pt x="575" y="97" on="0"/>
        <pt x="419" y="-6" on="0"/>
      </contour>
      <contour>
        <pt x="158" y="332" on="1"/>
        <pt x="158" y="59" on="1"/>
        <pt x="173" y="57" on="0"/>
        <pt x="233" y="52" on="0"/>
        <pt x="264" y="52" on="1"/>
        <pt x="310" y="52" on="0"/>
        <pt x="397" y="64" on="0"/>
        <pt x="463" y="96" on="0"/>
        <pt x="503" y="152" on="0"/>
        <pt x="503" y="196" on="1"/>
        <pt x="503" y="236" on="0"/>
        <pt x="475" y="289" on="0"/>
        <pt x="423" y="320" on="0"/>
        <pt x="348" y="332" on="0"/>
        <pt x="302" y="332" on="1"/>
      </contour>
      <contour>
        <pt x="158" y="390" on="1"/>
        <pt x="290" y="390" on="1"/>
        <pt x="327" y="390" on="0"/>
        <pt x="393" y="401" on="0"/>
        <pt x="442" y="430" on="0"/>
        <pt x="470" y="479" on="0"/>
        <pt x="470" y="517" on="1"/>
        <pt x="470" y="551" on="0"/>
        <pt x="440" y="598" on="0"/>
        <pt x="385" y="628" on="0"/>
        <pt x="309" y="641" on="0"/>
        <pt x="263" y="641" on="1"/>
        <pt x="226" y="641" on="0"/>
        <pt x="175" y="637" on="0"/>
        <pt x="158" y="634" on="1"/>
      </contour>
    </TTGlyph>
    <TTGlyph name="Backslash" xMin="-23" yMin="-138" xMax="382" yMax="830">
      <component glyphName="backslash" x="0" y="47" flags="0x214"/>
    </TTGlyph>
    <TTGlyph name="Beta" xMin="90" yMin="-6" xMax="575" yMax="699">
      <component glyphName="B" x="0" y="0" flags="0x204"/>
    </TTGlyph>
    <TTGlyph name="Braceleft" xMin="43" yMin="-149" xMax="311" yMax="820">
      <component glyphName="braceleft" x="0" y="47" flags="0x214"/>
    </TTGlyph>
    <TTGlyph name="Braceright" xMin="8" yMin="-149" xMax="276" yMax="820">
      <component glyphName="braceright" x="0" y="47" flags="0x214"/>
    </TTGlyph>
    <TTGlyph name="Bracketleft" xMin="100" yMin="-138" xMax="302" yMax="830">
      <component glyphName="bracketleft" x="0" y="47" flags="0x214"/>
    </TTGlyph>
    <TTGlyph name="Bracketright" xMin="8" yMin="-138" xMax="210" yMax="830">
      <component glyphName="bracketright" x="0" y="47" flags="0x214"/>
    </TTGlyph>
    <TTGlyph name="Bullet" xMin="60" yMin="227" xMax="300" yMax="467">
      <component glyphName="bullet" x="0" y="-6" flags="0x214"/>
    </TTGlyph>
    <TTGlyph name="C" xMin="62" yMin="-15" xMax="581" yMax="708">
      <contour>
        <pt x="378" y="-15" on="1"/>
        <pt x="311" y="-15" on="0"/>
        <pt x="196" y="33" on="0"/>
        <pt x="111" y="125" on="0"/>
        <pt x="62" y="260" on="0"/>
        <pt x="62" y="347" on="1"/>
        <pt x="62" y="434" on="0"/>
        <pt x="115" y="569" on="0"/>
        <pt x="203" y="661" on="0"/>
        <pt x="319" y="708" on="0"/>
        <pt x="382" y="708" on="1"/>
        <pt x="421" y="708" on="0"/>
        <pt x="485" y="698" on="0"/>
        <pt x="533" y="683" on="0"/>
        <pt x="567" y="668" on="0"/>
        <pt x="576" y="662" on="1"/>
        <pt x="554" y="603" on="1"/>
        <pt x="529" y="618" on="0"/>
        <pt x="452" y="647" on="0"/>
        <pt x="395" y="647" on="1"/>
        <pt x="330" y="647" on="0"/>
        <pt x="233" y="603" on="0"/>
        <pt x="167" y="523" on="0"/>
        <pt x="134" y="413" on="0"/>
        <pt x="134" y="346" on="1"/>
        <pt x="134" y="277" on="0"/>
        <pt x="167" y="166" on="0"/>
        <pt x="231" y="88" on="0"/>
        <pt x="324" y="46" on="0"/>
        <pt x="384" y="46" on="1"/>
        <pt x="450" y="46" on="0"/>
        <pt x="539" y="71" on="0"/>
        <pt x="562" y="84" on="1"/>
        <pt x="581" y="26" on="1"/>
        <pt x="574" y="21" on="0"/>
        <pt x="540" y="8" on="0"/>
        <pt x="488" y="-6" on="0"/>
        <pt x="420" y="-15" on="0"/>
      </contour>
    </TTGlyph>
    <TTGlyph name="Cacute" xMin="62" yMin="-15" xMax="581" yMax="929">
      <component glyphName="C" x="0" y="0" flags="0x204"/>
      <component glyphName="acute" x="184" y="156" flags="0x4"/>
    </TTGlyph>
    <TTGlyph name="Ccaron" xMin="62" yMin="-15" xMax="581" yMax="921">
      <component glyphName="C" x="0" y="0" flags="0x204"/>
      <component glyphName="caron" x="174" y="156" flags="0x4"/>
    </TTGlyph>
    <TTGlyph name="Ccedilla" xMin="62" yMin="-187" xMax="581" yMax="708">
      <contour>
        <pt x="364" y="-36" on="1"/>
        <pt x="392" y="-48" on="0"/>
        <pt x="425" y="-83" on="0"/>
        <pt x="425" y="-112" on="1"/>
        <pt x="425" y="-124" on="0"/>
        <pt x="417" y="-151" on="0"/>
        <pt x="395" y="-173" on="0"/>
        <pt x="357" y="-187" on="0"/>
        <pt x="327" y="-187" on="1"/>
        <pt x="307" y="-187" on="0"/>
        <pt x="265" y="-180" on="0"/>
        <pt x="256" y="-175" on="1"/>
        <pt x="264" y="-132" on="1"/>
        <pt x="275" y="-137" on="0"/>
        <pt x="303" y="-141" on="0"/>
        <pt x="323" y="-141" on="1"/>
        <pt x="364" y="-141" on="0"/>
        <pt x="364" y="-112" on="1"/>
        <pt x="364" y="-95" on="0"/>
        <pt x="336" y="-77" on="0"/>
        <pt x="306" y="-65" on="1"/>
        <pt x="310" y="-54" on="0"/>
        <pt x="322" y="-25" on="0"/>
        <pt x="329" y="-11" on="1"/>
        <pt x="271" y="-3" on="0"/>
        <pt x="173" y="51" on="0"/>
        <pt x="102" y="142" on="0"/>
        <pt x="62" y="267" on="0"/>
        <pt x="62" y="347" on="1"/>
        <pt x="62" y="434" on="0"/>
        <pt x="115" y="569" on="0"/>
        <pt x="203" y="661" on="0"/>
        <pt x="319" y="708" on="0"/>
        <pt x="382" y="708" on="1"/>
        <pt x="421" y="708" on="0"/>
        <pt x="485" y="698" on="0"/>
        <pt x="533" y="683" on="0"/>
        <pt x="567" y="668" on="0"/>
        <pt x="576" y="662" on="1"/>
        <pt x="554" y="603" on="1"/>
        <pt x="529" y="618" on="0"/>
        <pt x="452" y="647" on="0"/>
        <pt x="395" y="647" on="1"/>
        <pt x="330" y="647" on="0"/>
        <pt x="233" y="603" on="0"/>
        <pt x="167" y="523" on="0"/>
        <pt x="134" y="413" on="0"/>
        <pt x="134" y="346" on="1"/>
        <pt x="134" y="277" on="0"/>
        <pt x="167" y="166" on="0"/>
        <pt x="231" y="88" on="0"/>
        <pt x="324" y="46" on="0"/>
        <pt x="384" y="46" on="1"/>
        <pt x="450" y="46" on="0"/>
        <pt x="539" y="71" on="0"/>
        <pt x="562" y="84" on="1"/>
        <pt x="581" y="26" on="1"/>
        <pt x="574" y="21" on="0"/>
        <pt x="540" y="8" on="0"/>
        <pt x="488" y="-6" on="0"/>
        <pt x="420" y="-15" on="0"/>
        <pt x="378" y="-15" on="1"/>
        <pt x="373" y="-15" on="1"/>
        <pt x="370" y="-20" on="0"/>
        <pt x="366" y="-31" on="0"/>
      </contour>
    </TTGlyph>
    <TTGlyph name="Ccircumflex" xMin="62" yMin="-15" xMax="581" yMax="918">
      <component glyphName="C" x="0" y="0" flags="0x204"/>
      <component glyphName="circumflex" x="174" y="156" flags="0x4"/>
    </TTGlyph>
    <TTGlyph name="Cdotaccent" xMin="62" yMin="-15" xMax="581" yMax="879">
      <component glyphName="C" x="0" y="0" flags="0x204"/>
      <component glyphName="dotaccent" x="174" y="156" flags="0x4"/>
    </TTGlyph>
    <TTGlyph name="Chi" xMin="27" yMin="0" xMax="578" yMax="693">
      <component glyphName="X" x="0" y="0" flags="0x204"/>
    </TTGlyph>
    <TTGlyph name="D" xMin="90" yMin="-6" xMax="640" yMax="699">
      <contour>
        <pt x="640" y="347" on="1"/>
        <pt x="640" y="258" on="0"/>
        <pt x="584" y="126" on="0"/>
        <pt x="483" y="38" on="0"/>
        <pt x="343" y="-6" on="0"/>
        <pt x="259" y="-6" on="1"/>
        <pt x="217" y="-6" on="0"/>
        <pt x="125" y="3" on="0"/>
        <pt x="90" y="12" on="1"/>
        <pt x="90" y="680" on="1"/>
        <pt x="125" y="690" on="0"/>
        <pt x="217" y="699" on="0"/>
        <pt x="259" y="699" on="1"/>
        <pt x="343" y="699" on="0"/>
        <pt x="483" y="655" on="0"/>
        <pt x="584" y="567" on="0"/>
        <pt x="640" y="435" on="0"/>
      </contour>
      <contour>
        <pt x="158" y="60" on="1"/>
        <pt x="164" y="59" on="0"/>
        <pt x="213" y="53" on="0"/>
        <pt x="267" y="53" on="1"/>
        <pt x="342" y="53" on="0"/>
        <pt x="454" y="94" on="0"/>
        <pt x="530" y="170" on="0"/>
        <pt x="568" y="279" on="0"/>
        <pt x="568" y="347" on="1"/>
        <pt x="568" y="415" on="0"/>
        <pt x="530" y="523" on="0"/>
        <pt x="454" y="599" on="0"/>
        <pt x="342" y="640" on="0"/>
        <pt x="267" y="640" on="1"/>
        <pt x="213" y="640" on="0"/>
        <pt x="164" y="634" on="0"/>
        <pt x="158" y="633" on="1"/>
      </contour>
    </TTGlyph>
    <TTGlyph name="Dcaron" xMin="90" yMin="-6" xMax="640" yMax="921">
      <component glyphName="D" x="0" y="0" flags="0x204"/>
      <component glyphName="caron" x="161" y="156" flags="0x4"/>
    </TTGlyph>
    <TTGlyph name="Dcroat" xMin="24" yMin="-6" xMax="654" yMax="699">
      <component glyphName="Eth" x="0" y="0" flags="0x204"/>
    </TTGlyph>
    <TTGlyph name="Delta" xMin="10" yMin="0" xMax="620" yMax="693">
      <contour>
        <pt x="525" y="59" on="1"/>
        <pt x="497" y="143" on="0"/>
        <pt x="444" y="291" on="0"/>
        <pt x="392" y="427" on="0"/>
        <pt x="340" y="553" on="0"/>
        <pt x="313" y="615" on="1"/>
        <pt x="286" y="553" on="0"/>
        <pt x="233" y="427" on="0"/>
        <pt x="181" y="291" on="0"/>
        <pt x="128" y="143" on="0"/>
        <pt x="100" y="59" on="1"/>
      </contour>
      <contour>
        <pt x="10" y="0" on="1"/>
        <pt x="47" y="108" on="0"/>
        <pt x="115" y="295" on="0"/>
        <pt x="181" y="462" on="0"/>
        <pt x="248" y="616" on="0"/>
        <pt x="285" y="693" on="1"/>
        <pt x="345" y="693" on="1"/>
        <pt x="382" y="616" on="0"/>
        <pt x="449" y="462" on="0"/>
        <pt x="515" y="295" on="0"/>
        <pt x="583" y="108" on="0"/>
        <pt x="620" y="0" on="1"/>
      </contour>
    </TTGlyph>
    <TTGlyph name="E" xMin="90" yMin="0" xMax="516" yMax="693">
      <contour>
        <pt x="90" y="0" on="1"/>
        <pt x="90" y="693" on="1"/>
        <pt x="490" y="693" on="1"/>
        <pt x="490" y="634" on="1"/>
        <pt x="158" y="634" on="1"/>
        <pt x="158" y="393" on="1"/>
        <pt x="454" y="393" on="1"/>
        <pt x="454" y="335" on="1"/>
        <pt x="158" y="335" on="1"/>
        <pt x="158" y="59" on="1"/>
        <pt x="516" y="59" on="1"/>
        <pt x="516" y="0" on="1"/>
      </contour>
    </TTGlyph>
    <TTGlyph name="Eacute" xMin="90" yMin="0" xMax="516" yMax="929">
      <component glyphName="E" x="0" y="0" flags="0x204"/>
      <component glyphName="acute" x="112" y="156" flags="0x4"/>
    </TTGlyph>
    <TTGlyph name="Ebreve" xMin="90" yMin="0" xMax="516" yMax="902">
      <component glyphName="E" x="0" y="0" flags="0x204"/>
      <component glyphName="breve" x="102" y="156" flags="0x4"/>
    </TTGlyph>
    <TTGlyph name="Ecaron" xMin="90" yMin="0" xMax="516" yMax="921">
      <component glyphName="E" x="0" y="0" flags="0x204"/>
      <component glyphName="caron" x="102" y="156" flags="0x4"/>
    </TTGlyph>
    <TTGlyph name="Ecircumflex" xMin="90" yMin="0" xMax="516" yMax="918">
      <component glyphName="E" x="0" y="0" flags="0x204"/>
      <component glyphName="circumflex" x="102" y="156" flags="0x4"/>
    </TTGlyph>
    <TTGlyph name="Edieresis" xMin="90" yMin="0" xMax="516" yMax="877">
      <component glyphName="E" x="0" y="0" flags="0x204"/>
      <component glyphName="dieresis" x="102" y="156" flags="0x4"/>
    </TTGlyph>
    <TTGlyph name="Edotaccent" xMin="90" yMin="0" xMax="516" yMax="879">
      <component glyphName="E" x="0" y="0" flags="0x204"/>
      <component glyphName="dotaccent" x="102" y="156" flags="0x4"/>
    </TTGlyph>
    <TTGlyph name="Egrave" xMin="90" yMin="0" xMax="516" yMax="929">
      <component glyphName="E" x="0" y="0" flags="0x204"/>
      <component glyphName="grave" x="92" y="156" flags="0x4"/>
    </TTGlyph>
    <TTGlyph name="Emacron" xMin="90" yMin="0" xMax="516" yMax="860">
      <component glyphName="E" x="0" y="0" flags="0x204"/>
      <component glyphName="macron" x="102" y="156" flags="0x4"/>
    </TTGlyph>
    <TTGlyph name="Emdash" xMin="-2" yMin="301" xMax="998" yMax="358">
      <component glyphName="emdash" x="0" y="40" flags="0x214"/>
    </TTGlyph>
    <TTGlyph name="Endash" xMin="-2" yMin="301" xMax="498" yMax="358">
      <component glyphName="endash" x="0" y="40" flags="0x214"/>
    </TTGlyph>
    <TTGlyph name="Eng" xMin="90" yMin="-187" xMax="619" yMax="693">
      <contour>
        <pt x="552" y="17" on="1"/>
        <pt x="531" y="54" on="0"/>
        <pt x="472" y="148" on="0"/>
        <pt x="403" y="252" on="0"/>
        <pt x="328" y="360" on="0"/>
        <pt x="254" y="462" on="0"/>
        <pt x="185" y="551" on="0"/>
        <pt x="157" y="584" on="1"/>
        <pt x="157" y="0" on="1"/>
        <pt x="90" y="0" on="1"/>
        <pt x="90" y="693" on="1"/>
        <pt x="144" y="693" on="1"/>
        <pt x="195" y="636" on="0"/>
        <pt x="312" y="487" on="0"/>
        <pt x="424" y="332" on="0"/>
        <pt x="521" y="184" on="0"/>
        <pt x="552" y="129" on="1"/>
        <pt x="552" y="693" on="1"/>
        <pt x="619" y="693" on="1"/>
        <pt x="619" y="-26" on="1"/>
        <pt x="619" y="-60" on="0"/>
        <pt x="611" y="-119" on="0"/>
        <pt x="584" y="-162" on="0"/>
        <pt x="535" y="-187" on="0"/>
        <pt x="493" y="-187" on="1"/>
        <pt x="476" y="-187" on="0"/>
        <pt x="445" y="-181" on="0"/>
        <pt x="437" y="-178" on="1"/>
        <pt x="446" y="-124" on="1"/>
        <pt x="451" y="-126" on="0"/>
        <pt x="471" y="-130" on="0"/>
        <pt x="483" y="-130" on="1"/>
        <pt x="521" y="-130" on="0"/>
        <pt x="552" y="-85" on="0"/>
        <pt x="552" y="-37" on="1"/>
      </contour>
    </TTGlyph>
    <TTGlyph name="Eogonek" xMin="90" yMin="-186" xMax="521" yMax="693">
      <contour>
        <pt x="90" y="0" on="1"/>
        <pt x="90" y="693" on="1"/>
        <pt x="490" y="693" on="1"/>
        <pt x="490" y="634" on="1"/>
        <pt x="158" y="634" on="1"/>
        <pt x="158" y="393" on="1"/>
        <pt x="454" y="393" on="1"/>
        <pt x="454" y="335" on="1"/>
        <pt x="158" y="335" on="1"/>
        <pt x="158" y="59" on="1"/>
        <pt x="516" y="59" on="1"/>
        <pt x="516" y="2" on="1"/>
        <pt x="505" y="-6" on="0"/>
        <pt x="483" y="-25" on="0"/>
        <pt x="471" y="-38" on="1"/>
        <pt x="455" y="-55" on="0"/>
        <pt x="436" y="-84" on="0"/>
        <pt x="436" y="-101" on="1"/>
        <pt x="436" y="-119" on="0"/>
        <pt x="460" y="-135" on="0"/>
        <pt x="478" y="-135" on="1"/>
        <pt x="487" y="-135" on="0"/>
        <pt x="508" y="-132" on="0"/>
        <pt x="516" y="-129" on="1"/>
        <pt x="521" y="-177" on="1"/>
        <pt x="513" y="-180" on="0"/>
        <pt x="482" y="-186" on="0"/>
        <pt x="467" y="-186" on="1"/>
        <pt x="413" y="-186" on="0"/>
        <pt x="369" y="-147" on="0"/>
        <pt x="369" y="-116" on="1"/>
        <pt x="369" y="-85" on="0"/>
        <pt x="402" y="-37" on="0"/>
        <pt x="424" y="-17" on="1"/>
        <pt x="429" y="-12" on="0"/>
        <pt x="440" y="-4" on="0"/>
        <pt x="445" y="0" on="1"/>
      </contour>
    </TTGlyph>
    <TTGlyph name="Epsilon" xMin="90" yMin="0" xMax="516" yMax="693">
      <component glyphName="E" x="0" y="0" flags="0x204"/>
    </TTGlyph>
    <TTGlyph name="Epsilontonos" xMin="-25" yMin="0" xMax="579" yMax="705">
      <component glyphName="E" x="63" y="0" flags="0x4"/>
      <component glyphName="tonos.cap" x="-149" y="0" flags="0x4"/>
    </TTGlyph>
    <TTGlyph name="Eta" xMin="90" yMin="0" xMax="602" yMax="693">
      <component glyphName="H" x="0" y="0" flags="0x204"/>
    </TTGlyph>
    <TTGlyph name="Etatonos" xMin="-25" yMin="0" xMax="670" yMax="705">
      <component glyphName="H" x="68" y="0" flags="0x4"/>
      <component glyphName="tonos.cap" x="-149" y="0" flags="0x4"/>
    </TTGlyph>
    <TTGlyph name="Eth" xMin="24" yMin="-6" xMax="654" yMax="699">
      <contour>
        <pt x="654" y="347" on="1"/>
        <pt x="654" y="258" on="0"/>
        <pt x="598" y="126" on="0"/>
        <pt x="497" y="38" on="0"/>
        <pt x="357" y="-6" on="0"/>
        <pt x="273" y="-6" on="1"/>
        <pt x="231" y="-6" on="0"/>
        <pt x="139" y="3" on="0"/>
        <pt x="104" y="12" on="1"/>
        <pt x="104" y="335" on="1"/>
        <pt x="24" y="335" on="1"/>
        <pt x="24" y="390" on="1"/>
        <pt x="104" y="390" on="1"/>
        <pt x="104" y="680" on="1"/>
        <pt x="139" y="690" on="0"/>
        <pt x="231" y="699" on="0"/>
        <pt x="273" y="699" on="1"/>
        <pt x="357" y="699" on="0"/>
        <pt x="497" y="655" on="0"/>
        <pt x="598" y="567" on="0"/>
        <pt x="654" y="435" on="0"/>
      </contour>
      <contour>
        <pt x="172" y="60" on="1"/>
        <pt x="178" y="59" on="0"/>
        <pt x="227" y="53" on="0"/>
        <pt x="281" y="53" on="1"/>
        <pt x="356" y="53" on="0"/>
        <pt x="468" y="94" on="0"/>
        <pt x="544" y="170" on="0"/>
        <pt x="582" y="279" on="0"/>
        <pt x="582" y="347" on="1"/>
        <pt x="582" y="415" on="0"/>
        <pt x="544" y="523" on="0"/>
        <pt x="468" y="599" on="0"/>
        <pt x="356" y="640" on="0"/>
        <pt x="281" y="640" on="1"/>
        <pt x="227" y="640" on="0"/>
        <pt x="178" y="634" on="0"/>
        <pt x="172" y="633" on="1"/>
        <pt x="172" y="390" on="1"/>
        <pt x="304" y="390" on="1"/>
        <pt x="304" y="335" on="1"/>
        <pt x="172" y="335" on="1"/>
      </contour>
    </TTGlyph>
    <TTGlyph name="Euro" xMin="45" yMin="-13" xMax="544" yMax="705">
      <contour>
        <pt x="209" y="409" on="1"/>
        <pt x="208" y="393" on="0"/>
        <pt x="207" y="361" on="0"/>
        <pt x="207" y="346" on="1"/>
        <pt x="207" y="332" on="0"/>
        <pt x="207" y="304" on="0"/>
        <pt x="208" y="290" on="1"/>
        <pt x="421" y="290" on="1"/>
        <pt x="410" y="237" on="1"/>
        <pt x="213" y="237" on="1"/>
        <pt x="219" y="199" on="0"/>
        <pt x="243" y="130" on="0"/>
        <pt x="286" y="78" on="0"/>
        <pt x="354" y="46" on="0"/>
        <pt x="403" y="46" on="1"/>
        <pt x="448" y="46" on="0"/>
        <pt x="511" y="63" on="0"/>
        <pt x="529" y="73" on="1"/>
        <pt x="544" y="17" on="1"/>
        <pt x="537" y="13" on="0"/>
        <pt x="509" y="3" on="0"/>
        <pt x="471" y="-6" on="0"/>
        <pt x="425" y="-13" on="0"/>
        <pt x="401" y="-13" on="1"/>
        <pt x="336" y="-13" on="0"/>
        <pt x="245" y="27" on="0"/>
        <pt x="184" y="95" on="0"/>
        <pt x="149" y="186" on="0"/>
        <pt x="142" y="237" on="1"/>
        <pt x="45" y="237" on="1"/>
        <pt x="45" y="290" on="1"/>
        <pt x="136" y="290" on="1"/>
        <pt x="135" y="304" on="0"/>
        <pt x="135" y="332" on="0"/>
        <pt x="135" y="346" on="1"/>
        <pt x="135" y="377" on="0"/>
        <pt x="138" y="409" on="1"/>
        <pt x="45" y="409" on="1"/>
        <pt x="45" y="462" on="1"/>
        <pt x="144" y="462" on="1"/>
        <pt x="153" y="511" on="0"/>
        <pt x="189" y="599" on="0"/>
        <pt x="251" y="666" on="0"/>
        <pt x="339" y="705" on="0"/>
        <pt x="400" y="705" on="1"/>
        <pt x="422" y="705" on="0"/>
        <pt x="457" y="702" on="0"/>
        <pt x="486" y="697" on="0"/>
        <pt x="513" y="689" on="0"/>
        <pt x="527" y="684" on="1"/>
        <pt x="511" y="626" on="1"/>
        <pt x="487" y="636" on="0"/>
        <pt x="427" y="647" on="0"/>
        <pt x="400" y="647" on="1"/>
        <pt x="355" y="647" on="0"/>
        <pt x="291" y="617" on="0"/>
        <pt x="248" y="566" on="0"/>
        <pt x="222" y="499" on="0"/>
        <pt x="216" y="462" on="1"/>
        <pt x="455" y="462" on="1"/>
        <pt x="445" y="409" on="1"/>
      </contour>
    </TTGlyph>
    <TTGlyph name="Exclamdown" xMin="82" yMin="-5" xMax="192" yMax="697">
      <component glyphName="exclamdown" x="0" y="180" flags="0x214"/>
    </TTGlyph>
    <TTGlyph name="F" xMin="90" yMin="0" xMax="485" yMax="693">
      <contour>
        <pt x="90" y="0" on="1"/>
        <pt x="90" y="693" on="1"/>
        <pt x="485" y="693" on="1"/>
        <pt x="485" y="634" on="1"/>
        <pt x="158" y="634" on="1"/>
        <pt x="158" y="390" on="1"/>
        <pt x="448" y="390" on="1"/>
        <pt x="448" y="331" on="1"/>
        <pt x="158" y="331" on="1"/>
        <pt x="158" y="0" on="1"/>
      </contour>
    </TTGlyph>
    <TTGlyph name="G" xMin="62" yMin="-14" xMax="590" yMax="708">
      <contour>
        <pt x="522" y="328" on="1"/>
        <pt x="590" y="328" on="1"/>
        <pt x="590" y="19" on="1"/>
        <pt x="571" y="11" on="0"/>
        <pt x="460" y="-14" on="0"/>
        <pt x="379" y="-14" on="1"/>
        <pt x="311" y="-14" on="0"/>
        <pt x="195" y="34" on="0"/>
        <pt x="110" y="125" on="0"/>
        <pt x="62" y="260" on="0"/>
        <pt x="62" y="347" on="1"/>
        <pt x="62" y="434" on="0"/>
        <pt x="114" y="569" on="0"/>
        <pt x="203" y="660" on="0"/>
        <pt x="321" y="708" on="0"/>
        <pt x="388" y="708" on="1"/>
        <pt x="465" y="708" on="0"/>
        <pt x="565" y="675" on="0"/>
        <pt x="588" y="660" on="1"/>
        <pt x="565" y="602" on="1"/>
        <pt x="537" y="622" on="0"/>
        <pt x="441" y="647" on="0"/>
        <pt x="385" y="647" on="1"/>
        <pt x="333" y="647" on="0"/>
        <pt x="241" y="609" on="0"/>
        <pt x="173" y="533" on="0"/>
        <pt x="134" y="421" on="0"/>
        <pt x="134" y="347" on="1"/>
        <pt x="134" y="278" on="0"/>
        <pt x="166" y="167" on="0"/>
        <pt x="231" y="88" on="0"/>
        <pt x="327" y="46" on="0"/>
        <pt x="390" y="46" on="1"/>
        <pt x="441" y="46" on="0"/>
        <pt x="510" y="57" on="0"/>
        <pt x="522" y="62" on="1"/>
      </contour>
    </TTGlyph>
    <TTGlyph name="Gamma" xMin="90" yMin="0" xMax="464" yMax="693">
      <component glyphName="afii10020" x="0" y="0" flags="0x204"/>
    </TTGlyph>
    <TTGlyph name="Gbreve" xMin="62" yMin="-14" xMax="590" yMax="902">
      <component glyphName="G" x="0" y="0" flags="0x204"/>
      <component glyphName="breve" x="179" y="156" flags="0x4"/>
    </TTGlyph>
    <TTGlyph name="Gcaron" xMin="62" yMin="-14" xMax="590" yMax="921">
      <component glyphName="G" x="0" y="0" flags="0x204"/>
      <component glyphName="caron" x="179" y="156" flags="0x4"/>
    </TTGlyph>
    <TTGlyph name="Gcircumflex" xMin="62" yMin="-14" xMax="590" yMax="918">
      <component glyphName="G" x="0" y="0" flags="0x204"/>
      <component glyphName="circumflex" x="179" y="156" flags="0x4"/>
    </TTGlyph>
    <TTGlyph name="Gcommaaccent" xMin="62" yMin="-186" xMax="590" yMax="708">
      <component glyphName="G" x="0" y="0" flags="0x204"/>
      <component glyphName="commaaccent" x="164" y="0" flags="0x4"/>
    </TTGlyph>
    <TTGlyph name="Gdotaccent" xMin="62" yMin="-14" xMax="590" yMax="879">
      <component glyphName="G" x="0" y="0" flags="0x204"/>
      <component glyphName="dotaccent" x="179" y="156" flags="0x4"/>
    </TTGlyph>
    <TTGlyph name="Guillemotleft" xMin="36" yMin="134" xMax="406" yMax="557">
      <component glyphName="guilsinglleft" x="0" y="62" flags="0x4"/>
      <component glyphName="guilsinglleft" x="177" y="62" flags="0x4"/>
    </TTGlyph>
    <TTGlyph name="Guillemotright" xMin="46" yMin="134" xMax="416" yMax="557">
      <component glyphName="guilsinglright" x="177" y="62" flags="0x4"/>
      <component glyphName="guilsinglright" x="0" y="62" flags="0x4"/>
    </TTGlyph>
    <TTGlyph name="Guilsinglleft" xMin="36" yMin="134" xMax="229" yMax="557">
      <component glyphName="guilsinglleft" x="0" y="62" flags="0x214"/>
    </TTGlyph>
    <TTGlyph name="Guilsinglright" xMin="46" yMin="134" xMax="239" yMax="557">
      <component glyphName="guilsinglright" x="0" y="62" flags="0x214"/>
    </TTGlyph>
    <TTGlyph name="H" xMin="90" yMin="0" xMax="602" yMax="693">
      <contour>
        <pt x="534" y="693" on="1"/>
        <pt x="602" y="693" on="1"/>
        <pt x="602" y="0" on="1"/>
        <pt x="534" y="0" on="1"/>
        <pt x="534" y="333" on="1"/>
        <pt x="158" y="333" on="1"/>
        <pt x="158" y="0" on="1"/>
        <pt x="90" y="0" on="1"/>
        <pt x="90" y="693" on="1"/>
        <pt x="158" y="693" on="1"/>
        <pt x="158" y="392" on="1"/>
        <pt x="534" y="392" on="1"/>
      </contour>
    </TTGlyph>
    <TTGlyph name="Hbar" xMin="24" yMin="0" xMax="696" yMax="693">
      <contour>
        <pt x="616" y="532" on="1"/>
        <pt x="616" y="0" on="1"/>
        <pt x="548" y="0" on="1"/>
        <pt x="548" y="333" on="1"/>
        <pt x="172" y="333" on="1"/>
        <pt x="172" y="0" on="1"/>
        <pt x="104" y="0" on="1"/>
        <pt x="104" y="532" on="1"/>
        <pt x="24" y="532" on="1"/>
        <pt x="24" y="586" on="1"/>
        <pt x="104" y="586" on="1"/>
        <pt x="104" y="693" on="1"/>
        <pt x="172" y="693" on="1"/>
        <pt x="172" y="586" on="1"/>
        <pt x="548" y="586" on="1"/>
        <pt x="548" y="693" on="1"/>
        <pt x="616" y="693" on="1"/>
        <pt x="616" y="586" on="1"/>
        <pt x="696" y="586" on="1"/>
        <pt x="696" y="532" on="1"/>
      </contour>
      <contour>
        <pt x="548" y="532" on="1"/>
        <pt x="172" y="532" on="1"/>
        <pt x="172" y="392" on="1"/>
        <pt x="548" y="392" on="1"/>
      </contour>
    </TTGlyph>
    <TTGlyph name="Hcircumflex" xMin="90" yMin="0" xMax="602" yMax="918">
      <component glyphName="H" x="0" y="0" flags="0x204"/>
      <component glyphName="circumflex" x="158" y="156" flags="0x4"/>
    </TTGlyph>
    <TTGlyph name="Hyphen" xMin="28" yMin="321" xMax="254" yMax="384">
      <component glyphName="hyphen" x="0" y="63" flags="0x214"/>
    </TTGlyph>
    <TTGlyph name="I" xMin="90" yMin="0" xMax="158" yMax="693">
      <contour>
        <pt x="90" y="693" on="1"/>
        <pt x="158" y="693" on="1"/>
        <pt x="158" y="0" on="1"/>
        <pt x="90" y="0" on="1"/>
      </contour>
    </TTGlyph>
    <TTGlyph name="IJ" xMin="90" yMin="-15" xMax="648" yMax="693">
      <component glyphName="I" x="0" y="0" flags="0x4"/>
      <component glyphName="J" x="248" y="0" flags="0x4"/>
    </TTGlyph>
    <TTGlyph name="Iacute" xMin="59" yMin="0" xMax="263" yMax="929">
      <component glyphName="I" x="0" y="0" flags="0x204"/>
      <component glyphName="acute" x="-53" y="156" flags="0x4"/>
    </TTGlyph>
    <TTGlyph name="Ibreve" xMin="2" yMin="0" xMax="248" yMax="902">
      <component glyphName="I" x="0" y="0" flags="0x204"/>
      <component glyphName="breve" x="-63" y="156" flags="0x4"/>
    </TTGlyph>
    <TTGlyph name="Icircumflex" xMin="-7" yMin="0" xMax="257" yMax="918">
      <component glyphName="I" x="0" y="0" flags="0x204"/>
      <component glyphName="circumflex" x="-63" y="156" flags="0x4"/>
    </TTGlyph>
    <TTGlyph name="Idieresis" xMin="-7" yMin="0" xMax="257" yMax="877">
      <component glyphName="I" x="0" y="0" flags="0x204"/>
      <component glyphName="dieresis" x="-63" y="156" flags="0x4"/>
    </TTGlyph>
    <TTGlyph name="Idotaccent" xMin="77" yMin="0" xMax="173" yMax="879">
      <component glyphName="I" x="0" y="0" flags="0x204"/>
      <component glyphName="dotaccent" x="-63" y="156" flags="0x4"/>
    </TTGlyph>
    <TTGlyph name="Igrave" xMin="-13" yMin="0" xMax="191" yMax="929">
      <component glyphName="I" x="0" y="0" flags="0x204"/>
      <component glyphName="grave" x="-73" y="156" flags="0x4"/>
    </TTGlyph>
    <TTGlyph name="Imacron" xMin="-7" yMin="0" xMax="258" yMax="860">
      <component glyphName="I" x="0" y="0" flags="0x204"/>
      <component glyphName="macron" x="-63" y="156" flags="0x4"/>
    </TTGlyph>
    <TTGlyph name="Iogonek" xMin="15" yMin="-186" xMax="167" yMax="693">
      <contour>
        <pt x="158" y="0" on="1"/>
        <pt x="148" y="-8" on="0"/>
        <pt x="127" y="-26" on="0"/>
        <pt x="116" y="-38" on="1"/>
        <pt x="100" y="-55" on="0"/>
        <pt x="82" y="-84" on="0"/>
        <pt x="82" y="-101" on="1"/>
        <pt x="82" y="-119" on="0"/>
        <pt x="106" y="-135" on="0"/>
        <pt x="124" y="-135" on="1"/>
        <pt x="133" y="-135" on="0"/>
        <pt x="154" y="-132" on="0"/>
        <pt x="162" y="-129" on="1"/>
        <pt x="167" y="-177" on="1"/>
        <pt x="159" y="-180" on="0"/>
        <pt x="128" y="-186" on="0"/>
        <pt x="113" y="-186" on="1"/>
        <pt x="59" y="-186" on="0"/>
        <pt x="15" y="-147" on="0"/>
        <pt x="15" y="-116" on="1"/>
        <pt x="15" y="-85" on="0"/>
        <pt x="47" y="-37" on="0"/>
        <pt x="69" y="-17" on="1"/>
        <pt x="74" y="-12" on="0"/>
        <pt x="85" y="-4" on="0"/>
        <pt x="90" y="0" on="1"/>
        <pt x="90" y="693" on="1"/>
        <pt x="158" y="693" on="1"/>
      </contour>
    </TTGlyph>
    <TTGlyph name="Iota" xMin="90" yMin="0" xMax="158" yMax="693">
      <component glyphName="I" x="0" y="0" flags="0x204"/>
    </TTGlyph>
    <TTGlyph name="Iotadieresis" xMin="4" yMin="0" xMax="268" yMax="877">
      <component glyphName="I" x="0" y="0" flags="0x204"/>
      <component glyphName="dieresis" x="-52" y="156" flags="0x4"/>
    </TTGlyph>
    <TTGlyph name="Iotatonos" xMin="-25" yMin="0" xMax="226" yMax="705">
      <component glyphName="I" x="68" y="0" flags="0x4"/>
      <component glyphName="tonos.cap" x="-149" y="0" flags="0x4"/>
    </TTGlyph>
    <TTGlyph name="Itilde" xMin="-33" yMin="0" xMax="284" yMax="883">
      <component glyphName="I" x="0" y="0" flags="0x204"/>
      <component glyphName="tilde" x="-63" y="156" flags="0x4"/>
    </TTGlyph>
    <TTGlyph name="J" xMin="8" yMin="-15" xMax="400" yMax="693">
      <contour>
        <pt x="400" y="218" on="1"/>
        <pt x="400" y="168" on="0"/>
        <pt x="380" y="83" on="0"/>
        <pt x="331" y="20" on="0"/>
        <pt x="250" y="-15" on="0"/>
        <pt x="189" y="-15" on="1"/>
        <pt x="153" y="-15" on="0"/>
        <pt x="93" y="-2" on="0"/>
        <pt x="47" y="16" on="0"/>
        <pt x="16" y="36" on="0"/>
        <pt x="8" y="44" on="1"/>
        <pt x="40" y="99" on="1"/>
        <pt x="49" y="91" on="0"/>
        <pt x="76" y="72" on="0"/>
        <pt x="112" y="56" on="0"/>
        <pt x="156" y="46" on="0"/>
        <pt x="182" y="46" on="1"/>
        <pt x="259" y="46" on="0"/>
        <pt x="332" y="127" on="0"/>
        <pt x="332" y="225" on="1"/>
        <pt x="332" y="693" on="1"/>
        <pt x="400" y="693" on="1"/>
      </contour>
    </TTGlyph>
    <TTGlyph name="Jcircumflex" xMin="8" yMin="-15" xMax="498" yMax="918">
      <component glyphName="J" x="0" y="0" flags="0x204"/>
      <component glyphName="circumflex" x="178" y="156" flags="0x4"/>
    </TTGlyph>
    <TTGlyph name="K" xMin="90" yMin="0" xMax="589" yMax="693">
      <contour>
        <pt x="513" y="0" on="1"/>
        <pt x="479" y="52" on="0"/>
        <pt x="394" y="154" on="0"/>
        <pt x="300" y="244" on="0"/>
        <pt x="203" y="318" on="0"/>
        <pt x="158" y="343" on="1"/>
        <pt x="158" y="0" on="1"/>
        <pt x="90" y="0" on="1"/>
        <pt x="90" y="693" on="1"/>
        <pt x="158" y="693" on="1"/>
        <pt x="158" y="370" on="1"/>
        <pt x="196" y="404" on="0"/>
        <pt x="289" y="493" on="0"/>
        <pt x="380" y="583" on="0"/>
        <pt x="460" y="665" on="0"/>
        <pt x="484" y="693" on="1"/>
        <pt x="566" y="693" on="1"/>
        <pt x="537" y="662" on="0"/>
        <pt x="455" y="577" on="0"/>
        <pt x="363" y="487" on="0"/>
        <pt x="272" y="400" on="0"/>
        <pt x="236" y="367" on="1"/>
        <pt x="265" y="349" on="0"/>
        <pt x="332" y="296" on="0"/>
        <pt x="401" y="233" on="0"/>
        <pt x="468" y="164" on="0"/>
        <pt x="527" y="94" on="0"/>
        <pt x="574" y="28" on="0"/>
        <pt x="589" y="0" on="1"/>
      </contour>
    </TTGlyph>
    <TTGlyph name="Kappa" xMin="90" yMin="0" xMax="589" yMax="693">
      <component glyphName="K" x="0" y="0" flags="0x204"/>
    </TTGlyph>
    <TTGlyph name="Kcommaaccent" xMin="90" yMin="-186" xMax="589" yMax="693">
      <component glyphName="K" x="0" y="0" flags="0x204"/>
      <component glyphName="commaaccent" x="124" y="0" flags="0x4"/>
    </TTGlyph>
    <TTGlyph name="L" xMin="90" yMin="0" xMax="484" yMax="693">
      <contour>
        <pt x="484" y="59" on="1"/>
        <pt x="484" y="0" on="1"/>
        <pt x="90" y="0" on="1"/>
        <pt x="90" y="693" on="1"/>
        <pt x="158" y="693" on="1"/>
        <pt x="158" y="59" on="1"/>
      </contour>
    </TTGlyph>
    <TTGlyph name="Lacute" xMin="79" yMin="0" xMax="484" yMax="929">
      <component glyphName="L" x="0" y="0" flags="0x204"/>
      <component glyphName="acute" x="-33" y="156" flags="0x4"/>
    </TTGlyph>
    <TTGlyph name="Lambda" xMin="10" yMin="0" xMax="614" yMax="693">
      <contour>
        <pt x="538" y="0" on="1"/>
        <pt x="508" y="89" on="0"/>
        <pt x="452" y="248" on="0"/>
        <pt x="398" y="397" on="0"/>
        <pt x="341" y="540" on="0"/>
        <pt x="310" y="613" on="1"/>
        <pt x="279" y="541" on="0"/>
        <pt x="222" y="398" on="0"/>
        <pt x="167" y="249" on="0"/>
        <pt x="112" y="89" on="0"/>
        <pt x="82" y="0" on="1"/>
        <pt x="10" y="0" on="1"/>
        <pt x="56" y="131" on="0"/>
        <pt x="128" y="329" on="0"/>
        <pt x="191" y="489" on="0"/>
        <pt x="249" y="624" on="0"/>
        <pt x="280" y="693" on="1"/>
        <pt x="343" y="693" on="1"/>
        <pt x="374" y="624" on="0"/>
        <pt x="432" y="489" on="0"/>
        <pt x="495" y="329" on="0"/>
        <pt x="568" y="131" on="0"/>
        <pt x="614" y="0" on="1"/>
      </contour>
    </TTGlyph>
    <TTGlyph name="Lcaron" xMin="90" yMin="0" xMax="484" yMax="694">
      <component glyphName="L" x="0" y="0" flags="0x204"/>
      <component glyphName="caron.alt" x="100" y="-82" flags="0x4"/>
    </TTGlyph>
    <TTGlyph name="Lcommaaccent" xMin="90" yMin="-186" xMax="484" yMax="693">
      <component glyphName="L" x="0" y="0" flags="0x204"/>
      <component glyphName="commaaccent" x="90" y="0" flags="0x4"/>
    </TTGlyph>
    <TTGlyph name="Ldot" xMin="90" yMin="0" xMax="484" yMax="693">
      <component glyphName="L" x="0" y="0" flags="0x204"/>
      <component glyphName="dotaccent" x="187" y="-309" flags="0x4"/>
    </TTGlyph>
    <TTGlyph name="Lslash" xMin="1" yMin="0" xMax="498" yMax="693">
      <contour>
        <pt x="285" y="449" on="1"/>
        <pt x="308" y="401" on="1"/>
        <pt x="172" y="330" on="1"/>
        <pt x="172" y="59" on="1"/>
        <pt x="498" y="59" on="1"/>
        <pt x="498" y="0" on="1"/>
        <pt x="104" y="0" on="1"/>
        <pt x="104" y="295" on="1"/>
        <pt x="26" y="255" on="1"/>
        <pt x="1" y="303" on="1"/>
        <pt x="104" y="356" on="1"/>
        <pt x="104" y="693" on="1"/>
        <pt x="172" y="693" on="1"/>
        <pt x="172" y="391" on="1"/>
      </contour>
    </TTGlyph>
    <TTGlyph name="M" xMin="73" yMin="0" xMax="792" yMax="693">
      <contour>
        <pt x="401" y="100" on="1"/>
        <pt x="391" y="125" on="0"/>
        <pt x="354" y="207" on="0"/>
        <pt x="308" y="304" on="0"/>
        <pt x="260" y="407" on="0"/>
        <pt x="216" y="497" on="0"/>
        <pt x="182" y="565" on="0"/>
        <pt x="174" y="579" on="1"/>
        <pt x="161" y="454" on="0"/>
        <pt x="146" y="161" on="0"/>
        <pt x="140" y="0" on="1"/>
        <pt x="73" y="0" on="1"/>
        <pt x="82" y="189" on="0"/>
        <pt x="105" y="535" on="0"/>
        <pt x="122" y="693" on="1"/>
        <pt x="182" y="693" on="1"/>
        <pt x="212" y="643" on="0"/>
        <pt x="280" y="512" on="0"/>
        <pt x="347" y="371" on="0"/>
        <pt x="410" y="234" on="0"/>
        <pt x="434" y="179" on="1"/>
        <pt x="458" y="234" on="0"/>
        <pt x="521" y="371" on="0"/>
        <pt x="588" y="512" on="0"/>
        <pt x="656" y="643" on="0"/>
        <pt x="686" y="693" on="1"/>
        <pt x="743" y="693" on="1"/>
        <pt x="760" y="535" on="0"/>
        <pt x="783" y="189" on="0"/>
        <pt x="792" y="0" on="1"/>
        <pt x="723" y="0" on="1"/>
        <pt x="717" y="161" on="0"/>
        <pt x="702" y="454" on="0"/>
        <pt x="689" y="579" on="1"/>
        <pt x="681" y="565" on="0"/>
        <pt x="647" y="497" on="0"/>
        <pt x="603" y="407" on="0"/>
        <pt x="555" y="304" on="0"/>
        <pt x="509" y="207" on="0"/>
        <pt x="472" y="125" on="0"/>
        <pt x="462" y="100" on="1"/>
      </contour>
    </TTGlyph>
    <TTGlyph name="Mu" xMin="73" yMin="0" xMax="792" yMax="693">
      <component glyphName="M" x="0" y="0" flags="0x204"/>
    </TTGlyph>
    <TTGlyph name="N" xMin="90" yMin="0" xMax="619" yMax="693">
      <contour>
        <pt x="562" y="0" on="1"/>
        <pt x="543" y="35" on="0"/>
        <pt x="484" y="129" on="0"/>
        <pt x="414" y="236" on="0"/>
        <pt x="336" y="349" on="0"/>
        <pt x="259" y="456" on="0"/>
        <pt x="186" y="550" on="0"/>
        <pt x="157" y="584" on="1"/>
        <pt x="157" y="0" on="1"/>
        <pt x="90" y="0" on="1"/>
        <pt x="90" y="693" on="1"/>
        <pt x="144" y="693" on="1"/>
        <pt x="195" y="636" on="0"/>
        <pt x="312" y="487" on="0"/>
        <pt x="424" y="332" on="0"/>
        <pt x="521" y="184" on="0"/>
        <pt x="552" y="129" on="1"/>
        <pt x="552" y="693" on="1"/>
        <pt x="619" y="693" on="1"/>
        <pt x="619" y="0" on="1"/>
      </contour>
    </TTGlyph>
    <TTGlyph name="Nacute" xMin="90" yMin="0" xMax="619" yMax="929">
      <component glyphName="N" x="0" y="0" flags="0x204"/>
      <component glyphName="acute" x="176" y="156" flags="0x4"/>
    </TTGlyph>
    <TTGlyph name="Ncaron" xMin="90" yMin="0" xMax="619" yMax="921">
      <component glyphName="N" x="0" y="0" flags="0x204"/>
      <component glyphName="caron" x="166" y="156" flags="0x4"/>
    </TTGlyph>
    <TTGlyph name="Ncommaaccent" xMin="90" yMin="-186" xMax="619" yMax="693">
      <component glyphName="N" x="0" y="0" flags="0x204"/>
      <component glyphName="commaaccent" x="155" y="0" flags="0x4"/>
    </TTGlyph>
    <TTGlyph name="Ntilde" xMin="90" yMin="0" xMax="619" yMax="883">
      <component glyphName="N" x="0" y="0" flags="0x204"/>
      <component glyphName="tilde" x="166" y="156" flags="0x4"/>
    </TTGlyph>
    <TTGlyph name="Nu" xMin="90" yMin="0" xMax="619" yMax="693">
      <component glyphName="N" x="0" y="0" flags="0x204"/>
    </TTGlyph>
    <TTGlyph name="O" xMin="62" yMin="-15" xMax="712" yMax="708">
      <contour>
        <pt x="712" y="347" on="1"/>
        <pt x="712" y="258" on="0"/>
        <pt x="660" y="122" on="0"/>
        <pt x="571" y="31" on="0"/>
        <pt x="453" y="-15" on="0"/>
        <pt x="387" y="-15" on="1"/>
        <pt x="321" y="-15" on="0"/>
        <pt x="203" y="31" on="0"/>
        <pt x="114" y="122" on="0"/>
        <pt x="62" y="258" on="0"/>
        <pt x="62" y="347" on="1"/>
        <pt x="62" y="436" on="0"/>
        <pt x="114" y="571" on="0"/>
        <pt x="203" y="662" on="0"/>
        <pt x="321" y="708" on="0"/>
        <pt x="387" y="708" on="1"/>
        <pt x="453" y="708" on="0"/>
        <pt x="571" y="662" on="0"/>
        <pt x="660" y="571" on="0"/>
        <pt x="712" y="436" on="0"/>
      </contour>
      <contour>
        <pt x="640" y="347" on="1"/>
        <pt x="640" y="417" on="0"/>
        <pt x="604" y="528" on="0"/>
        <pt x="538" y="606" on="0"/>
        <pt x="445" y="647" on="0"/>
        <pt x="387" y="647" on="1"/>
        <pt x="329" y="647" on="0"/>
        <pt x="236" y="606" on="0"/>
        <pt x="170" y="528" on="0"/>
        <pt x="134" y="417" on="0"/>
        <pt x="134" y="347" on="1"/>
        <pt x="134" y="277" on="0"/>
        <pt x="170" y="166" on="0"/>
        <pt x="236" y="88" on="0"/>
        <pt x="329" y="46" on="0"/>
        <pt x="387" y="46" on="1"/>
        <pt x="445" y="46" on="0"/>
        <pt x="538" y="88" on="0"/>
        <pt x="604" y="166" on="0"/>
        <pt x="640" y="277" on="0"/>
      </contour>
    </TTGlyph>
    <TTGlyph name="OE" xMin="65" yMin="-6" xMax="951" yMax="699">
      <contour>
        <pt x="539" y="633" on="1"/>
        <pt x="533" y="634" on="0"/>
        <pt x="486" y="640" on="0"/>
        <pt x="432" y="640" on="1"/>
        <pt x="359" y="640" on="0"/>
        <pt x="248" y="599" on="0"/>
        <pt x="174" y="523" on="0"/>
        <pt x="137" y="415" on="0"/>
        <pt x="137" y="347" on="1"/>
        <pt x="137" y="279" on="0"/>
        <pt x="174" y="170" on="0"/>
        <pt x="248" y="94" on="0"/>
        <pt x="359" y="53" on="0"/>
        <pt x="432" y="53" on="1"/>
        <pt x="486" y="53" on="0"/>
        <pt x="533" y="59" on="0"/>
        <pt x="539" y="60" on="1"/>
      </contour>
      <contour>
        <pt x="540" y="0" on="1"/>
        <pt x="490" y="-6" on="0"/>
        <pt x="440" y="-6" on="1"/>
        <pt x="357" y="-6" on="0"/>
        <pt x="220" y="38" on="0"/>
        <pt x="120" y="126" on="0"/>
        <pt x="65" y="258" on="0"/>
        <pt x="65" y="347" on="1"/>
        <pt x="65" y="435" on="0"/>
        <pt x="120" y="567" on="0"/>
        <pt x="220" y="655" on="0"/>
        <pt x="357" y="699" on="0"/>
        <pt x="440" y="699" on="1"/>
        <pt x="464" y="699" on="0"/>
        <pt x="515" y="696" on="0"/>
        <pt x="539" y="693" on="1"/>
        <pt x="925" y="693" on="1"/>
        <pt x="925" y="634" on="1"/>
        <pt x="607" y="634" on="1"/>
        <pt x="607" y="393" on="1"/>
        <pt x="889" y="393" on="1"/>
        <pt x="889" y="335" on="1"/>
        <pt x="607" y="335" on="1"/>
        <pt x="607" y="59" on="1"/>
        <pt x="951" y="59" on="1"/>
        <pt x="951" y="0" on="1"/>
      </contour>
    </TTGlyph>
    <TTGlyph name="Oacute" xMin="62" yMin="-15" xMax="712" yMax="929">
      <component glyphName="O" x="0" y="0" flags="0x204"/>
      <component glyphName="acute" x="209" y="156" flags="0x4"/>
    </TTGlyph>
    <TTGlyph name="Obreve" xMin="62" yMin="-15" xMax="712" yMax="902">
      <component glyphName="O" x="0" y="0" flags="0x204"/>
      <component glyphName="breve" x="199" y="156" flags="0x4"/>
    </TTGlyph>
    <TTGlyph name="Ocircumflex" xMin="62" yMin="-15" xMax="712" yMax="918">
      <component glyphName="O" x="0" y="0" flags="0x204"/>
      <component glyphName="circumflex" x="199" y="156" flags="0x4"/>
    </TTGlyph>
    <TTGlyph name="Odieresis" xMin="62" yMin="-15" xMax="712" yMax="877">
      <component glyphName="O" x="0" y="0" flags="0x204"/>
      <component glyphName="dieresis" x="199" y="156" flags="0x4"/>
    </TTGlyph>
    <TTGlyph name="Ograve" xMin="62" yMin="-15" xMax="712" yMax="929">
      <component glyphName="O" x="0" y="0" flags="0x204"/>
      <component glyphName="grave" x="189" y="156" flags="0x4"/>
    </TTGlyph>
    <TTGlyph name="Ohorn" xMin="62" yMin="-15" xMax="712" yMax="800">
      <contour>
        <pt x="712" y="347" on="1"/>
        <pt x="712" y="258" on="0"/>
        <pt x="660" y="122" on="0"/>
        <pt x="571" y="31" on="0"/>
        <pt x="453" y="-15" on="0"/>
        <pt x="387" y="-15" on="1"/>
        <pt x="321" y="-15" on="0"/>
        <pt x="203" y="31" on="0"/>
        <pt x="114" y="122" on="0"/>
        <pt x="62" y="258" on="0"/>
        <pt x="62" y="347" on="1"/>
        <pt x="62" y="436" on="0"/>
        <pt x="114" y="571" on="0"/>
        <pt x="203" y="662" on="0"/>
        <pt x="321" y="708" on="0"/>
        <pt x="387" y="708" on="1"/>
        <pt x="444" y="708" on="0"/>
        <pt x="549" y="673" on="0"/>
        <pt x="591" y="638" on="1"/>
        <pt x="620" y="664" on="0"/>
        <pt x="644" y="723" on="0"/>
        <pt x="644" y="765" on="1"/>
        <pt x="644" y="774" on="0"/>
        <pt x="642" y="797" on="0"/>
        <pt x="641" y="800" on="1"/>
        <pt x="706" y="800" on="1"/>
        <pt x="707" y="794" on="0"/>
        <pt x="708" y="778" on="0"/>
        <pt x="708" y="773" on="1"/>
        <pt x="708" y="727" on="0"/>
        <pt x="677" y="636" on="0"/>
        <pt x="631" y="599" on="1"/>
        <pt x="669" y="554" on="0"/>
        <pt x="712" y="428" on="0"/>
      </contour>
      <contour>
        <pt x="640" y="347" on="1"/>
        <pt x="640" y="417" on="0"/>
        <pt x="604" y="528" on="0"/>
        <pt x="538" y="606" on="0"/>
        <pt x="445" y="647" on="0"/>
        <pt x="387" y="647" on="1"/>
        <pt x="329" y="647" on="0"/>
        <pt x="236" y="606" on="0"/>
        <pt x="170" y="528" on="0"/>
        <pt x="134" y="417" on="0"/>
        <pt x="134" y="347" on="1"/>
        <pt x="134" y="277" on="0"/>
        <pt x="170" y="166" on="0"/>
        <pt x="236" y="88" on="0"/>
        <pt x="329" y="46" on="0"/>
        <pt x="387" y="46" on="1"/>
        <pt x="445" y="46" on="0"/>
        <pt x="538" y="88" on="0"/>
        <pt x="604" y="166" on="0"/>
        <pt x="640" y="277" on="0"/>
      </contour>
    </TTGlyph>
    <TTGlyph name="Ohungarumlaut" xMin="62" yMin="-15" xMax="712" yMax="929">
      <component glyphName="O" x="0" y="0" flags="0x204"/>
      <component glyphName="hungarumlaut" x="250" y="156" flags="0x4"/>
    </TTGlyph>
    <TTGlyph name="Omacron" xMin="62" yMin="-15" xMax="712" yMax="860">
      <component glyphName="O" x="0" y="0" flags="0x204"/>
      <component glyphName="macron" x="199" y="156" flags="0x4"/>
    </TTGlyph>
    <TTGlyph name="Omega" xMin="56" yMin="0" xMax="724" yMax="708">
      <contour>
        <pt x="390" y="708" on="1"/>
        <pt x="454" y="708" on="0"/>
        <pt x="570" y="665" on="0"/>
        <pt x="657" y="579" on="0"/>
        <pt x="708" y="451" on="0"/>
        <pt x="708" y="367" on="1"/>
        <pt x="708" y="310" on="0"/>
        <pt x="681" y="215" on="0"/>
        <pt x="641" y="137" on="0"/>
        <pt x="591" y="78" on="0"/>
        <pt x="569" y="58" on="1"/>
        <pt x="724" y="58" on="1"/>
        <pt x="724" y="0" on="1"/>
        <pt x="470" y="0" on="1"/>
        <pt x="470" y="44" on="1"/>
        <pt x="505" y="70" on="0"/>
        <pt x="565" y="135" on="0"/>
        <pt x="610" y="216" on="0"/>
        <pt x="636" y="312" on="0"/>
        <pt x="636" y="369" on="1"/>
        <pt x="636" y="434" on="0"/>
        <pt x="600" y="537" on="0"/>
        <pt x="535" y="609" on="0"/>
        <pt x="445" y="647" on="0"/>
        <pt x="390" y="647" on="1"/>
        <pt x="335" y="647" on="0"/>
        <pt x="245" y="609" on="0"/>
        <pt x="180" y="537" on="0"/>
        <pt x="144" y="434" on="0"/>
        <pt x="144" y="369" on="1"/>
        <pt x="144" y="312" on="0"/>
        <pt x="170" y="216" on="0"/>
        <pt x="215" y="135" on="0"/>
        <pt x="275" y="70" on="0"/>
        <pt x="310" y="44" on="1"/>
        <pt x="310" y="0" on="1"/>
        <pt x="56" y="0" on="1"/>
        <pt x="56" y="58" on="1"/>
        <pt x="211" y="58" on="1"/>
        <pt x="188" y="78" on="0"/>
        <pt x="139" y="137" on="0"/>
        <pt x="99" y="215" on="0"/>
        <pt x="72" y="310" on="0"/>
        <pt x="72" y="367" on="1"/>
        <pt x="72" y="451" on="0"/>
        <pt x="123" y="579" on="0"/>
        <pt x="210" y="665" on="0"/>
        <pt x="325" y="708" on="0"/>
      </contour>
    </TTGlyph>
    <TTGlyph name="Omegatonos" xMin="-25" yMin="0" xMax="749" yMax="708">
      <component glyphName="Omega" x="25" y="0" flags="0x4"/>
      <component glyphName="tonos.cap" x="-149" y="0" flags="0x4"/>
    </TTGlyph>
    <TTGlyph name="Omicron" xMin="62" yMin="-15" xMax="712" yMax="708">
      <component glyphName="O" x="0" y="0" flags="0x204"/>
    </TTGlyph>
    <TTGlyph name="Omicrontonos" xMin="-25" yMin="-15" xMax="737" yMax="708">
      <component glyphName="O" x="25" y="0" flags="0x4"/>
      <component glyphName="tonos.cap" x="-149" y="0" flags="0x4"/>
    </TTGlyph>
    <TTGlyph name="Oslash" xMin="62" yMin="-34" xMax="712" yMax="728">
      <contour>
        <pt x="712" y="347" on="1"/>
        <pt x="712" y="258" on="0"/>
        <pt x="660" y="122" on="0"/>
        <pt x="571" y="31" on="0"/>
        <pt x="453" y="-15" on="0"/>
        <pt x="387" y="-15" on="1"/>
        <pt x="333" y="-15" on="0"/>
        <pt x="236" y="15" on="0"/>
        <pt x="194" y="46" on="1"/>
        <pt x="133" y="-34" on="1"/>
        <pt x="85" y="2" on="1"/>
        <pt x="150" y="86" on="1"/>
        <pt x="108" y="131" on="0"/>
        <pt x="62" y="262" on="0"/>
        <pt x="62" y="347" on="1"/>
        <pt x="62" y="436" on="0"/>
        <pt x="114" y="571" on="0"/>
        <pt x="203" y="662" on="0"/>
        <pt x="321" y="708" on="0"/>
        <pt x="387" y="708" on="1"/>
        <pt x="441" y="708" on="0"/>
        <pt x="540" y="677" on="0"/>
        <pt x="582" y="645" on="1"/>
        <pt x="646" y="728" on="1"/>
        <pt x="694" y="692" on="1"/>
        <pt x="626" y="604" on="1"/>
        <pt x="666" y="559" on="0"/>
        <pt x="712" y="431" on="0"/>
      </contour>
      <contour>
        <pt x="134" y="347" on="1"/>
        <pt x="134" y="283" on="0"/>
        <pt x="164" y="178" on="0"/>
        <pt x="192" y="140" on="1"/>
        <pt x="543" y="594" on="1"/>
        <pt x="478" y="647" on="0"/>
        <pt x="387" y="647" on="1"/>
        <pt x="329" y="647" on="0"/>
        <pt x="236" y="606" on="0"/>
        <pt x="170" y="528" on="0"/>
        <pt x="134" y="417" on="0"/>
      </contour>
      <contour>
        <pt x="640" y="347" on="1"/>
        <pt x="640" y="410" on="0"/>
        <pt x="611" y="512" on="0"/>
        <pt x="584" y="550" on="1"/>
        <pt x="233" y="96" on="1"/>
        <pt x="295" y="46" on="0"/>
        <pt x="387" y="46" on="1"/>
        <pt x="445" y="46" on="0"/>
        <pt x="538" y="88" on="0"/>
        <pt x="604" y="166" on="0"/>
        <pt x="640" y="277" on="0"/>
      </contour>
    </TTGlyph>
    <TTGlyph name="Oslashacute" xMin="62" yMin="-34" xMax="712" yMax="929">
      <component glyphName="Oslash" x="0" y="0" flags="0x204"/>
      <component glyphName="acute" x="209" y="156" flags="0x4"/>
    </TTGlyph>
    <TTGlyph name="Otilde" xMin="62" yMin="-15" xMax="712" yMax="883">
      <component glyphName="O" x="0" y="0" flags="0x204"/>
      <component glyphName="tilde" x="199" y="156" flags="0x4"/>
    </TTGlyph>
    <TTGlyph name="P" xMin="90" yMin="0" xMax="556" yMax="699">
      <contour>
        <pt x="265" y="699" on="1"/>
        <pt x="412" y="699" on="0"/>
        <pt x="556" y="587" on="0"/>
        <pt x="556" y="484" on="1"/>
        <pt x="556" y="425" on="0"/>
        <pt x="514" y="342" on="0"/>
        <pt x="436" y="291" on="0"/>
        <pt x="323" y="268" on="0"/>
        <pt x="252" y="268" on="1"/>
        <pt x="158" y="268" on="1"/>
        <pt x="158" y="0" on="1"/>
        <pt x="90" y="0" on="1"/>
        <pt x="90" y="680" on="1"/>
        <pt x="126" y="690" on="0"/>
        <pt x="223" y="699" on="0"/>
      </contour>
      <contour>
        <pt x="268" y="640" on="1"/>
        <pt x="230" y="640" on="0"/>
        <pt x="177" y="635" on="0"/>
        <pt x="158" y="633" on="1"/>
        <pt x="158" y="327" on="1"/>
        <pt x="244" y="327" on="1"/>
        <pt x="299" y="327" on="0"/>
        <pt x="388" y="340" on="0"/>
        <pt x="451" y="375" on="0"/>
        <pt x="485" y="437" on="0"/>
        <pt x="485" y="485" on="1"/>
        <pt x="485" y="531" on="0"/>
        <pt x="448" y="591" on="0"/>
        <pt x="387" y="626" on="0"/>
        <pt x="309" y="640" on="0"/>
      </contour>
    </TTGlyph>
    <TTGlyph name="Parenleft" xMin="83" yMin="-138" xMax="301" yMax="830">
      <component glyphName="parenleft" x="0" y="47" flags="0x214"/>
    </TTGlyph>
    <TTGlyph name="Parenright" xMin="9" yMin="-138" xMax="227" yMax="830">
      <component glyphName="parenright" x="0" y="47" flags="0x214"/>
    </TTGlyph>
    <TTGlyph name="Phi" xMin="62" yMin="0" xMax="798" yMax="738">
      <component glyphName="afii10038" x="0" y="0" flags="0x204"/>
    </TTGlyph>
    <TTGlyph name="Pi" xMin="90" yMin="0" xMax="595" yMax="693">
      <component glyphName="afii10033" x="0" y="0" flags="0x204"/>
    </TTGlyph>
    <TTGlyph name="Psi" xMin="68" yMin="0" xMax="734" yMax="693">
      <contour>
        <pt x="367" y="0" on="1"/>
        <pt x="367" y="183" on="1"/>
        <pt x="282" y="183" on="0"/>
        <pt x="168" y="226" on="0"/>
        <pt x="98" y="302" on="0"/>
        <pt x="68" y="404" on="0"/>
        <pt x="68" y="464" on="1"/>
        <pt x="68" y="693" on="1"/>
        <pt x="135" y="693" on="1"/>
        <pt x="135" y="471" on="1"/>
        <pt x="135" y="409" on="0"/>
        <pt x="166" y="322" on="0"/>
        <pt x="225" y="268" on="0"/>
        <pt x="311" y="244" on="0"/>
        <pt x="367" y="244" on="1"/>
        <pt x="367" y="693" on="1"/>
        <pt x="435" y="693" on="1"/>
        <pt x="435" y="244" on="1"/>
        <pt x="490" y="244" on="0"/>
        <pt x="577" y="268" on="0"/>
        <pt x="636" y="322" on="0"/>
        <pt x="667" y="409" on="0"/>
        <pt x="667" y="471" on="1"/>
        <pt x="667" y="693" on="1"/>
        <pt x="734" y="693" on="1"/>
        <pt x="734" y="464" on="1"/>
        <pt x="734" y="404" on="0"/>
        <pt x="704" y="302" on="0"/>
        <pt x="634" y="226" on="0"/>
        <pt x="520" y="183" on="0"/>
        <pt x="435" y="183" on="1"/>
        <pt x="435" y="0" on="1"/>
      </contour>
    </TTGlyph>
    <TTGlyph name="Q" xMin="62" yMin="-185" xMax="712" yMax="708">
      <contour>
        <pt x="712" y="347" on="1"/>
        <pt x="712" y="267" on="0"/>
        <pt x="670" y="143" on="0"/>
        <pt x="598" y="53" on="0"/>
        <pt x="500" y="-1" on="0"/>
        <pt x="444" y="-10" on="1"/>
        <pt x="448" y="-38" on="0"/>
        <pt x="491" y="-78" on="0"/>
        <pt x="552" y="-106" on="0"/>
        <pt x="626" y="-123" on="0"/>
        <pt x="661" y="-128" on="1"/>
        <pt x="647" y="-185" on="1"/>
        <pt x="609" y="-178" on="0"/>
        <pt x="521" y="-157" on="0"/>
        <pt x="442" y="-119" on="0"/>
        <pt x="384" y="-60" on="0"/>
        <pt x="375" y="-15" on="1"/>
        <pt x="311" y="-13" on="0"/>
        <pt x="197" y="35" on="0"/>
        <pt x="112" y="126" on="0"/>
        <pt x="62" y="260" on="0"/>
        <pt x="62" y="347" on="1"/>
        <pt x="62" y="436" on="0"/>
        <pt x="114" y="571" on="0"/>
        <pt x="203" y="662" on="0"/>
        <pt x="321" y="708" on="0"/>
        <pt x="387" y="708" on="1"/>
        <pt x="453" y="708" on="0"/>
        <pt x="571" y="662" on="0"/>
        <pt x="660" y="571" on="0"/>
        <pt x="712" y="436" on="0"/>
      </contour>
      <contour>
        <pt x="640" y="347" on="1"/>
        <pt x="640" y="417" on="0"/>
        <pt x="604" y="528" on="0"/>
        <pt x="538" y="606" on="0"/>
        <pt x="445" y="647" on="0"/>
        <pt x="387" y="647" on="1"/>
        <pt x="329" y="647" on="0"/>
        <pt x="236" y="606" on="0"/>
        <pt x="170" y="528" on="0"/>
        <pt x="134" y="417" on="0"/>
        <pt x="134" y="347" on="1"/>
        <pt x="134" y="277" on="0"/>
        <pt x="170" y="166" on="0"/>
        <pt x="236" y="88" on="0"/>
        <pt x="329" y="46" on="0"/>
        <pt x="387" y="46" on="1"/>
        <pt x="445" y="46" on="0"/>
        <pt x="538" y="88" on="0"/>
        <pt x="604" y="166" on="0"/>
        <pt x="640" y="277" on="0"/>
      </contour>
    </TTGlyph>
    <TTGlyph name="Questiondown" xMin="30" yMin="-6" xMax="363" yMax="697">
      <component glyphName="questiondown" x="0" y="180" flags="0x214"/>
    </TTGlyph>
    <TTGlyph name="R" xMin="90" yMin="0" xMax="594" yMax="699">
      <contour>
        <pt x="552" y="485" on="1"/>
        <pt x="552" y="407" on="0"/>
        <pt x="470" y="317" on="0"/>
        <pt x="403" y="297" on="1"/>
        <pt x="419" y="277" on="0"/>
        <pt x="470" y="209" on="0"/>
        <pt x="524" y="128" on="0"/>
        <pt x="576" y="40" on="0"/>
        <pt x="594" y="0" on="1"/>
        <pt x="521" y="0" on="1"/>
        <pt x="500" y="40" on="0"/>
        <pt x="451" y="120" on="0"/>
        <pt x="400" y="195" on="0"/>
        <pt x="352" y="259" on="0"/>
        <pt x="334" y="283" on="1"/>
        <pt x="302" y="280" on="0"/>
        <pt x="270" y="280" on="1"/>
        <pt x="158" y="280" on="1"/>
        <pt x="158" y="0" on="1"/>
        <pt x="90" y="0" on="1"/>
        <pt x="90" y="680" on="1"/>
        <pt x="126" y="690" on="0"/>
        <pt x="223" y="699" on="0"/>
        <pt x="264" y="699" on="1"/>
        <pt x="407" y="699" on="0"/>
        <pt x="552" y="591" on="0"/>
      </contour>
      <contour>
        <pt x="272" y="640" on="1"/>
        <pt x="234" y="640" on="0"/>
        <pt x="177" y="635" on="0"/>
        <pt x="158" y="633" on="1"/>
        <pt x="158" y="338" on="1"/>
        <pt x="252" y="338" on="1"/>
        <pt x="299" y="338" on="0"/>
        <pt x="383" y="347" on="0"/>
        <pt x="445" y="378" on="0"/>
        <pt x="481" y="436" on="0"/>
        <pt x="481" y="486" on="1"/>
        <pt x="481" y="532" on="0"/>
        <pt x="445" y="592" on="0"/>
        <pt x="387" y="627" on="0"/>
        <pt x="312" y="640" on="0"/>
      </contour>
    </TTGlyph>
    <TTGlyph name="Racute" xMin="90" yMin="0" xMax="594" yMax="929">
      <component glyphName="R" x="0" y="0" flags="0x204"/>
      <component glyphName="acute" x="111" y="156" flags="0x4"/>
    </TTGlyph>
    <TTGlyph name="Rcaron" xMin="90" yMin="0" xMax="594" yMax="921">
      <component glyphName="R" x="0" y="0" flags="0x204"/>
      <component glyphName="caron" x="101" y="156" flags="0x4"/>
    </TTGlyph>
    <TTGlyph name="Rcommaaccent" xMin="90" yMin="-186" xMax="594" yMax="699">
      <component glyphName="R" x="0" y="0" flags="0x204"/>
      <component glyphName="commaaccent" x="123" y="0" flags="0x4"/>
    </TTGlyph>
    <TTGlyph name="Rho" xMin="90" yMin="0" xMax="556" yMax="699">
      <component glyphName="P" x="0" y="0" flags="0x204"/>
    </TTGlyph>
    <TTGlyph name="S" xMin="34" yMin="-15" xMax="481" yMax="708">
      <contour>
        <pt x="239" y="44" on="1"/>
        <pt x="320" y="44" on="0"/>
        <pt x="410" y="103" on="0"/>
        <pt x="410" y="169" on="1"/>
        <pt x="410" y="207" on="0"/>
        <pt x="381" y="258" on="0"/>
        <pt x="333" y="293" on="0"/>
        <pt x="271" y="318" on="0"/>
        <pt x="237" y="332" on="1"/>
        <pt x="194" y="349" on="0"/>
        <pt x="126" y="385" on="0"/>
        <pt x="78" y="430" on="0"/>
        <pt x="53" y="488" on="0"/>
        <pt x="53" y="527" on="1"/>
        <pt x="53" y="616" on="0"/>
        <pt x="171" y="708" on="0"/>
        <pt x="276" y="708" on="1"/>
        <pt x="304" y="708" on="0"/>
        <pt x="358" y="700" on="0"/>
        <pt x="405" y="687" on="0"/>
        <pt x="444" y="671" on="0"/>
        <pt x="457" y="662" on="1"/>
        <pt x="433" y="605" on="1"/>
        <pt x="404" y="625" on="0"/>
        <pt x="321" y="649" on="0"/>
        <pt x="273" y="649" on="1"/>
        <pt x="240" y="649" on="0"/>
        <pt x="185" y="636" on="0"/>
        <pt x="145" y="607" on="0"/>
        <pt x="122" y="563" on="0"/>
        <pt x="122" y="532" on="1"/>
        <pt x="122" y="500" on="0"/>
        <pt x="146" y="456" on="0"/>
        <pt x="189" y="424" on="0"/>
        <pt x="247" y="398" on="0"/>
        <pt x="281" y="384" on="1"/>
        <pt x="322" y="367" on="0"/>
        <pt x="395" y="333" on="0"/>
        <pt x="449" y="287" on="0"/>
        <pt x="481" y="221" on="0"/>
        <pt x="481" y="173" on="1"/>
        <pt x="481" y="79" on="0"/>
        <pt x="350" y="-15" on="0"/>
        <pt x="238" y="-15" on="1"/>
        <pt x="198" y="-15" on="0"/>
        <pt x="132" y="-5" on="0"/>
        <pt x="80" y="10" on="0"/>
        <pt x="44" y="26" on="0"/>
        <pt x="34" y="32" on="1"/>
        <pt x="56" y="91" on="1"/>
        <pt x="66" y="85" on="0"/>
        <pt x="100" y="69" on="0"/>
        <pt x="146" y="54" on="0"/>
        <pt x="204" y="44" on="0"/>
      </contour>
    </TTGlyph>
    <TTGlyph name="Sacute" xMin="34" yMin="-15" xMax="481" yMax="929">
      <component glyphName="S" x="0" y="0" flags="0x204"/>
      <component glyphName="acute" x="86" y="156" flags="0x4"/>
    </TTGlyph>
    <TTGlyph name="Scaron" xMin="34" yMin="-15" xMax="481" yMax="921">
      <component glyphName="S" x="0" y="0" flags="0x204"/>
      <component glyphName="caron" x="76" y="156" flags="0x4"/>
    </TTGlyph>
    <TTGlyph name="Scedilla" xMin="34" yMin="-187" xMax="481" yMax="708">
      <contour>
        <pt x="264" y="-36" on="1"/>
        <pt x="292" y="-48" on="0"/>
        <pt x="325" y="-83" on="0"/>
        <pt x="325" y="-112" on="1"/>
        <pt x="325" y="-124" on="0"/>
        <pt x="317" y="-151" on="0"/>
        <pt x="295" y="-173" on="0"/>
        <pt x="257" y="-187" on="0"/>
        <pt x="227" y="-187" on="1"/>
        <pt x="207" y="-187" on="0"/>
        <pt x="165" y="-180" on="0"/>
        <pt x="156" y="-175" on="1"/>
        <pt x="164" y="-132" on="1"/>
        <pt x="175" y="-137" on="0"/>
        <pt x="203" y="-141" on="0"/>
        <pt x="223" y="-141" on="1"/>
        <pt x="264" y="-141" on="0"/>
        <pt x="264" y="-112" on="1"/>
        <pt x="264" y="-95" on="0"/>
        <pt x="236" y="-77" on="0"/>
        <pt x="206" y="-65" on="1"/>
        <pt x="209" y="-54" on="0"/>
        <pt x="221" y="-28" on="0"/>
        <pt x="228" y="-15" on="1"/>
        <pt x="190" y="-14" on="0"/>
        <pt x="127" y="-4" on="0"/>
        <pt x="78" y="11" on="0"/>
        <pt x="43" y="26" on="0"/>
        <pt x="34" y="32" on="1"/>
        <pt x="56" y="91" on="1"/>
        <pt x="66" y="85" on="0"/>
        <pt x="100" y="69" on="0"/>
        <pt x="146" y="54" on="0"/>
        <pt x="204" y="44" on="0"/>
        <pt x="239" y="44" on="1"/>
        <pt x="320" y="44" on="0"/>
        <pt x="410" y="103" on="0"/>
        <pt x="410" y="169" on="1"/>
        <pt x="410" y="207" on="0"/>
        <pt x="381" y="258" on="0"/>
        <pt x="333" y="293" on="0"/>
        <pt x="271" y="318" on="0"/>
        <pt x="237" y="332" on="1"/>
        <pt x="194" y="349" on="0"/>
        <pt x="126" y="385" on="0"/>
        <pt x="78" y="430" on="0"/>
        <pt x="53" y="488" on="0"/>
        <pt x="53" y="527" on="1"/>
        <pt x="53" y="616" on="0"/>
        <pt x="171" y="708" on="0"/>
        <pt x="276" y="708" on="1"/>
        <pt x="304" y="708" on="0"/>
        <pt x="358" y="700" on="0"/>
        <pt x="405" y="687" on="0"/>
        <pt x="444" y="671" on="0"/>
        <pt x="457" y="662" on="1"/>
        <pt x="433" y="605" on="1"/>
        <pt x="404" y="625" on="0"/>
        <pt x="321" y="649" on="0"/>
        <pt x="273" y="649" on="1"/>
        <pt x="240" y="649" on="0"/>
        <pt x="185" y="636" on="0"/>
        <pt x="145" y="607" on="0"/>
        <pt x="122" y="563" on="0"/>
        <pt x="122" y="532" on="1"/>
        <pt x="122" y="500" on="0"/>
        <pt x="146" y="456" on="0"/>
        <pt x="189" y="424" on="0"/>
        <pt x="247" y="398" on="0"/>
        <pt x="281" y="384" on="1"/>
        <pt x="322" y="367" on="0"/>
        <pt x="395" y="333" on="0"/>
        <pt x="449" y="287" on="0"/>
        <pt x="481" y="221" on="0"/>
        <pt x="481" y="173" on="1"/>
        <pt x="481" y="86" on="0"/>
        <pt x="371" y="-6" on="0"/>
        <pt x="274" y="-13" on="1"/>
        <pt x="271" y="-19" on="0"/>
        <pt x="266" y="-31" on="0"/>
      </contour>
    </TTGlyph>
    <TTGlyph name="Scircumflex" xMin="34" yMin="-15" xMax="481" yMax="918">
      <component glyphName="S" x="0" y="0" flags="0x204"/>
      <component glyphName="circumflex" x="76" y="156" flags="0x4"/>
    </TTGlyph>
    <TTGlyph name="Scommaaccent" xMin="34" yMin="-186" xMax="481" yMax="708">
      <component glyphName="S" x="0" y="0" flags="0x204"/>
      <component glyphName="commaaccent" x="57" y="0" flags="0x4"/>
    </TTGlyph>
    <TTGlyph name="Sigma" xMin="38" yMin="0" xMax="511" yMax="693">
      <contour>
        <pt x="356" y="364" on="1"/>
        <pt x="322" y="323" on="0"/>
        <pt x="257" y="247" on="0"/>
        <pt x="195" y="173" on="0"/>
        <pt x="137" y="99" on="0"/>
        <pt x="110" y="59" on="1"/>
        <pt x="511" y="59" on="1"/>
        <pt x="511" y="0" on="1"/>
        <pt x="38" y="0" on="1"/>
        <pt x="38" y="58" on="1"/>
        <pt x="56" y="88" on="0"/>
        <pt x="110" y="159" on="0"/>
        <pt x="174" y="238" on="0"/>
        <pt x="243" y="321" on="0"/>
        <pt x="276" y="363" on="1"/>
        <pt x="244" y="404" on="0"/>
        <pt x="177" y="485" on="0"/>
        <pt x="117" y="559" on="0"/>
        <pt x="66" y="622" on="0"/>
        <pt x="51" y="645" on="1"/>
        <pt x="51" y="693" on="1"/>
        <pt x="509" y="693" on="1"/>
        <pt x="509" y="634" on="1"/>
        <pt x="140" y="634" on="1"/>
        <pt x="152" y="615" on="0"/>
        <pt x="199" y="557" on="0"/>
        <pt x="259" y="485" on="0"/>
        <pt x="325" y="404" on="0"/>
      </contour>
    </TTGlyph>
    <TTGlyph name="Slash" xMin="-23" yMin="-138" xMax="382" yMax="830">
      <component glyphName="slash" x="0" y="47" flags="0x214"/>
    </TTGlyph>
    <TTGlyph name="T" xMin="18" yMin="0" xMax="530" yMax="693">
      <contour>
        <pt x="530" y="693" on="1"/>
        <pt x="530" y="634" on="1"/>
        <pt x="308" y="634" on="1"/>
        <pt x="308" y="0" on="1"/>
        <pt x="240" y="0" on="1"/>
        <pt x="240" y="634" on="1"/>
        <pt x="18" y="634" on="1"/>
        <pt x="18" y="693" on="1"/>
      </contour>
    </TTGlyph>
    <TTGlyph name="Tau" xMin="18" yMin="0" xMax="530" yMax="693">
      <component glyphName="T" x="0" y="0" flags="0x204"/>
    </TTGlyph>
    <TTGlyph name="Tbar" xMin="18" yMin="0" xMax="530" yMax="693">
      <contour>
        <pt x="530" y="693" on="1"/>
        <pt x="530" y="634" on="1"/>
        <pt x="308" y="634" on="1"/>
        <pt x="308" y="383" on="1"/>
        <pt x="432" y="383" on="1"/>
        <pt x="432" y="329" on="1"/>
        <pt x="308" y="329" on="1"/>
        <pt x="308" y="0" on="1"/>
        <pt x="240" y="0" on="1"/>
        <pt x="240" y="329" on="1"/>
        <pt x="116" y="329" on="1"/>
        <pt x="116" y="383" on="1"/>
        <pt x="240" y="383" on="1"/>
        <pt x="240" y="634" on="1"/>
        <pt x="18" y="634" on="1"/>
        <pt x="18" y="693" on="1"/>
      </contour>
    </TTGlyph>
    <TTGlyph name="Tcaron" xMin="18" yMin="0" xMax="530" yMax="921">
      <component glyphName="T" x="0" y="0" flags="0x204"/>
      <component glyphName="caron" x="83" y="156" flags="0x4"/>
    </TTGlyph>
    <TTGlyph name="Theta" xMin="62" yMin="-15" xMax="712" yMax="708">
      <contour>
        <pt x="223" y="378" on="1"/>
        <pt x="551" y="378" on="1"/>
        <pt x="551" y="320" on="1"/>
        <pt x="223" y="320" on="1"/>
      </contour>
      <contour>
        <pt x="712" y="347" on="1"/>
        <pt x="712" y="258" on="0"/>
        <pt x="660" y="122" on="0"/>
        <pt x="571" y="31" on="0"/>
        <pt x="453" y="-15" on="0"/>
        <pt x="387" y="-15" on="1"/>
        <pt x="321" y="-15" on="0"/>
        <pt x="203" y="31" on="0"/>
        <pt x="114" y="122" on="0"/>
        <pt x="62" y="258" on="0"/>
        <pt x="62" y="347" on="1"/>
        <pt x="62" y="436" on="0"/>
        <pt x="114" y="571" on="0"/>
        <pt x="203" y="662" on="0"/>
        <pt x="321" y="708" on="0"/>
        <pt x="387" y="708" on="1"/>
        <pt x="453" y="708" on="0"/>
        <pt x="571" y="662" on="0"/>
        <pt x="660" y="571" on="0"/>
        <pt x="712" y="436" on="0"/>
      </contour>
      <contour>
        <pt x="640" y="347" on="1"/>
        <pt x="640" y="417" on="0"/>
        <pt x="604" y="528" on="0"/>
        <pt x="538" y="606" on="0"/>
        <pt x="445" y="647" on="0"/>
        <pt x="387" y="647" on="1"/>
        <pt x="329" y="647" on="0"/>
        <pt x="236" y="606" on="0"/>
        <pt x="170" y="528" on="0"/>
        <pt x="134" y="417" on="0"/>
        <pt x="134" y="347" on="1"/>
        <pt x="134" y="277" on="0"/>
        <pt x="170" y="166" on="0"/>
        <pt x="236" y="88" on="0"/>
        <pt x="329" y="46" on="0"/>
        <pt x="387" y="46" on="1"/>
        <pt x="445" y="46" on="0"/>
        <pt x="538" y="88" on="0"/>
        <pt x="604" y="166" on="0"/>
        <pt x="640" y="277" on="0"/>
      </contour>
    </TTGlyph>
    <TTGlyph name="Thorn" xMin="90" yMin="0" xMax="556" yMax="693">
      <contour>
        <pt x="158" y="570" on="1"/>
        <pt x="175" y="572" on="0"/>
        <pt x="238" y="576" on="0"/>
        <pt x="263" y="576" on="1"/>
        <pt x="411" y="576" on="0"/>
        <pt x="556" y="463" on="0"/>
        <pt x="556" y="361" on="1"/>
        <pt x="556" y="302" on="0"/>
        <pt x="514" y="219" on="0"/>
        <pt x="436" y="168" on="0"/>
        <pt x="323" y="145" on="0"/>
        <pt x="252" y="145" on="1"/>
        <pt x="158" y="145" on="1"/>
        <pt x="158" y="0" on="1"/>
        <pt x="90" y="0" on="1"/>
        <pt x="90" y="693" on="1"/>
        <pt x="158" y="693" on="1"/>
      </contour>
      <contour>
        <pt x="266" y="517" on="1"/>
        <pt x="230" y="517" on="0"/>
        <pt x="175" y="513" on="0"/>
        <pt x="158" y="511" on="1"/>
        <pt x="158" y="204" on="1"/>
        <pt x="244" y="204" on="1"/>
        <pt x="299" y="204" on="0"/>
        <pt x="388" y="217" on="0"/>
        <pt x="451" y="252" on="0"/>
        <pt x="485" y="314" on="0"/>
        <pt x="485" y="362" on="1"/>
        <pt x="485" y="408" on="0"/>
        <pt x="448" y="468" on="0"/>
        <pt x="387" y="503" on="0"/>
        <pt x="308" y="517" on="0"/>
      </contour>
    </TTGlyph>
    <TTGlyph name="U" xMin="87" yMin="-15" xMax="593" yMax="693">
      <contour>
        <pt x="340" y="-15" on="1"/>
        <pt x="271" y="-15" on="0"/>
        <pt x="174" y="27" on="0"/>
        <pt x="114" y="101" on="0"/>
        <pt x="87" y="200" on="0"/>
        <pt x="87" y="257" on="1"/>
        <pt x="87" y="693" on="1"/>
        <pt x="155" y="693" on="1"/>
        <pt x="155" y="266" on="1"/>
        <pt x="155" y="209" on="0"/>
        <pt x="182" y="126" on="0"/>
        <pt x="230" y="72" on="0"/>
        <pt x="298" y="46" on="0"/>
        <pt x="340" y="46" on="1"/>
        <pt x="382" y="46" on="0"/>
        <pt x="450" y="72" on="0"/>
        <pt x="498" y="126" on="0"/>
        <pt x="525" y="209" on="0"/>
        <pt x="525" y="266" on="1"/>
        <pt x="525" y="693" on="1"/>
        <pt x="593" y="693" on="1"/>
        <pt x="593" y="257" on="1"/>
        <pt x="593" y="200" on="0"/>
        <pt x="566" y="101" on="0"/>
        <pt x="506" y="27" on="0"/>
        <pt x="409" y="-15" on="0"/>
      </contour>
    </TTGlyph>
    <TTGlyph name="Uacute" xMin="87" yMin="-15" xMax="593" yMax="929">
      <component glyphName="U" x="0" y="0" flags="0x204"/>
      <component glyphName="acute" x="162" y="156" flags="0x4"/>
    </TTGlyph>
    <TTGlyph name="Ubreve" xMin="87" yMin="-15" xMax="593" yMax="902">
      <component glyphName="U" x="0" y="0" flags="0x204"/>
      <component glyphName="breve" x="152" y="156" flags="0x4"/>
    </TTGlyph>
    <TTGlyph name="Ucircumflex" xMin="87" yMin="-15" xMax="593" yMax="918">
      <component glyphName="U" x="0" y="0" flags="0x204"/>
      <component glyphName="circumflex" x="152" y="156" flags="0x4"/>
    </TTGlyph>
    <TTGlyph name="Udieresis" xMin="87" yMin="-15" xMax="593" yMax="877">
      <component glyphName="U" x="0" y="0" flags="0x204"/>
      <component glyphName="dieresis" x="152" y="156" flags="0x4"/>
    </TTGlyph>
    <TTGlyph name="Ugrave" xMin="87" yMin="-15" xMax="593" yMax="929">
      <component glyphName="U" x="0" y="0" flags="0x204"/>
      <component glyphName="grave" x="142" y="156" flags="0x4"/>
    </TTGlyph>
    <TTGlyph name="Uhorn" xMin="87" yMin="-15" xMax="717" yMax="801">
      <contour>
        <pt x="589" y="693" on="1"/>
        <pt x="601" y="693" on="0"/>
        <pt x="624" y="700" on="0"/>
        <pt x="642" y="717" on="0"/>
        <pt x="653" y="745" on="0"/>
        <pt x="653" y="766" on="1"/>
        <pt x="653" y="775" on="0"/>
        <pt x="651" y="798" on="0"/>
        <pt x="650" y="801" on="1"/>
        <pt x="715" y="801" on="1"/>
        <pt x="716" y="795" on="0"/>
        <pt x="717" y="779" on="0"/>
        <pt x="717" y="774" on="1"/>
        <pt x="717" y="751" on="0"/>
        <pt x="705" y="705" on="0"/>
        <pt x="677" y="666" on="0"/>
        <pt x="629" y="641" on="0"/>
        <pt x="593" y="639" on="1"/>
        <pt x="593" y="257" on="1"/>
        <pt x="593" y="200" on="0"/>
        <pt x="566" y="101" on="0"/>
        <pt x="506" y="27" on="0"/>
        <pt x="409" y="-15" on="0"/>
        <pt x="340" y="-15" on="1"/>
        <pt x="271" y="-15" on="0"/>
        <pt x="174" y="27" on="0"/>
        <pt x="114" y="101" on="0"/>
        <pt x="87" y="200" on="0"/>
        <pt x="87" y="257" on="1"/>
        <pt x="87" y="693" on="1"/>
        <pt x="155" y="693" on="1"/>
        <pt x="155" y="266" on="1"/>
        <pt x="155" y="209" on="0"/>
        <pt x="182" y="126" on="0"/>
        <pt x="230" y="72" on="0"/>
        <pt x="298" y="46" on="0"/>
        <pt x="340" y="46" on="1"/>
        <pt x="382" y="46" on="0"/>
        <pt x="450" y="72" on="0"/>
        <pt x="498" y="126" on="0"/>
        <pt x="525" y="209" on="0"/>
        <pt x="525" y="266" on="1"/>
        <pt x="525" y="693" on="1"/>
      </contour>
    </TTGlyph>
    <TTGlyph name="Uhungarumlaut" xMin="87" yMin="-15" xMax="593" yMax="929">
      <component glyphName="U" x="0" y="0" flags="0x204"/>
      <component glyphName="hungarumlaut" x="203" y="156" flags="0x4"/>
    </TTGlyph>
    <TTGlyph name="Umacron" xMin="87" yMin="-15" xMax="593" yMax="860">
      <component glyphName="U" x="0" y="0" flags="0x204"/>
      <component glyphName="macron" x="152" y="156" flags="0x4"/>
    </TTGlyph>
    <TTGlyph name="Uogonek" xMin="87" yMin="-186" xMax="593" yMax="693">
      <contour>
        <pt x="361" y="-14" on="1"/>
        <pt x="355" y="-15" on="0"/>
        <pt x="345" y="-15" on="0"/>
        <pt x="340" y="-15" on="1"/>
        <pt x="271" y="-15" on="0"/>
        <pt x="174" y="27" on="0"/>
        <pt x="114" y="101" on="0"/>
        <pt x="87" y="200" on="0"/>
        <pt x="87" y="257" on="1"/>
        <pt x="87" y="693" on="1"/>
        <pt x="155" y="693" on="1"/>
        <pt x="155" y="266" on="1"/>
        <pt x="155" y="209" on="0"/>
        <pt x="182" y="126" on="0"/>
        <pt x="230" y="72" on="0"/>
        <pt x="298" y="46" on="0"/>
        <pt x="340" y="46" on="1"/>
        <pt x="382" y="46" on="0"/>
        <pt x="450" y="72" on="0"/>
        <pt x="498" y="126" on="0"/>
        <pt x="525" y="209" on="0"/>
        <pt x="525" y="266" on="1"/>
        <pt x="525" y="693" on="1"/>
        <pt x="593" y="693" on="1"/>
        <pt x="593" y="257" on="1"/>
        <pt x="593" y="179" on="0"/>
        <pt x="542" y="53" on="0"/>
        <pt x="483" y="19" on="1"/>
        <pt x="463" y="8" on="0"/>
        <pt x="422" y="-19" on="0"/>
        <pt x="404" y="-38" on="1"/>
        <pt x="388" y="-55" on="0"/>
        <pt x="369" y="-84" on="0"/>
        <pt x="369" y="-101" on="1"/>
        <pt x="369" y="-119" on="0"/>
        <pt x="393" y="-135" on="0"/>
        <pt x="411" y="-135" on="1"/>
        <pt x="420" y="-135" on="0"/>
        <pt x="441" y="-132" on="0"/>
        <pt x="449" y="-129" on="1"/>
        <pt x="454" y="-177" on="1"/>
        <pt x="446" y="-180" on="0"/>
        <pt x="415" y="-186" on="0"/>
        <pt x="400" y="-186" on="1"/>
        <pt x="346" y="-186" on="0"/>
        <pt x="302" y="-147" on="0"/>
        <pt x="302" y="-116" on="1"/>
        <pt x="302" y="-85" on="0"/>
        <pt x="336" y="-36" on="0"/>
      </contour>
    </TTGlyph>
    <TTGlyph name="Upsilon" xMin="10" yMin="0" xMax="559" yMax="693">
      <component glyphName="Y" x="0" y="0" flags="0x204"/>
    </TTGlyph>
    <TTGlyph name="Upsilondieresis" xMin="10" yMin="0" xMax="559" yMax="877">
      <component glyphName="Y" x="0" y="0" flags="0x204"/>
      <component glyphName="dieresis" x="111" y="156" flags="0x4"/>
    </TTGlyph>
    <TTGlyph name="Upsilontonos" xMin="-25" yMin="0" xMax="685" yMax="705">
      <component glyphName="Y" x="126" y="0" flags="0x4"/>
      <component glyphName="tonos.cap" x="-149" y="0" flags="0x4"/>
    </TTGlyph>
    <TTGlyph name="Uring" xMin="87" yMin="-15" xMax="593" yMax="927">
      <component glyphName="U" x="0" y="0" flags="0x204"/>
      <component glyphName="ring" x="153" y="156" flags="0x4"/>
    </TTGlyph>
    <TTGlyph name="Utilde" xMin="87" yMin="-15" xMax="593" yMax="883">
      <component glyphName="U" x="0" y="0" flags="0x204"/>
      <component glyphName="tilde" x="152" y="156" flags="0x4"/>
    </TTGlyph>
    <TTGlyph name="V" xMin="10" yMin="0" xMax="614" yMax="693">
      <contour>
        <pt x="86" y="693" on="1"/>
        <pt x="116" y="604" on="0"/>
        <pt x="172" y="445" on="0"/>
        <pt x="226" y="296" on="0"/>
        <pt x="282" y="153" on="0"/>
        <pt x="314" y="80" on="1"/>
        <pt x="345" y="152" on="0"/>
        <pt x="402" y="295" on="0"/>
        <pt x="457" y="444" on="0"/>
        <pt x="512" y="604" on="0"/>
        <pt x="542" y="693" on="1"/>
        <pt x="614" y="693" on="1"/>
        <pt x="568" y="562" on="0"/>
        <pt x="495" y="364" on="0"/>
        <pt x="432" y="204" on="0"/>
        <pt x="375" y="69" on="0"/>
        <pt x="344" y="0" on="1"/>
        <pt x="281" y="0" on="1"/>
        <pt x="250" y="69" on="0"/>
        <pt x="192" y="204" on="0"/>
        <pt x="129" y="364" on="0"/>
        <pt x="56" y="562" on="0"/>
        <pt x="10" y="693" on="1"/>
      </contour>
    </TTGlyph>
    <TTGlyph name="W" xMin="36" yMin="0" xMax="885" yMax="693">
      <contour>
        <pt x="491" y="608" on="1"/>
        <pt x="539" y="447" on="0"/>
        <pt x="636" y="186" on="0"/>
        <pt x="682" y="77" on="1"/>
        <pt x="717" y="195" on="0"/>
        <pt x="786" y="515" on="0"/>
        <pt x="818" y="693" on="1"/>
        <pt x="885" y="693" on="1"/>
        <pt x="867" y="586" on="0"/>
        <pt x="830" y="399" on="0"/>
        <pt x="790" y="230" on="0"/>
        <pt x="746" y="75" on="0"/>
        <pt x="720" y="0" on="1"/>
        <pt x="647" y="0" on="1"/>
        <pt x="623" y="57" on="0"/>
        <pt x="576" y="171" on="0"/>
        <pt x="530" y="292" on="0"/>
        <pt x="484" y="424" on="0"/>
        <pt x="460" y="498" on="1"/>
        <pt x="436" y="424" on="0"/>
        <pt x="389" y="292" on="0"/>
        <pt x="343" y="171" on="0"/>
        <pt x="296" y="57" on="0"/>
        <pt x="272" y="0" on="1"/>
        <pt x="200" y="0" on="1"/>
        <pt x="173" y="75" on="0"/>
        <pt x="128" y="230" on="0"/>
        <pt x="89" y="399" on="0"/>
        <pt x="54" y="586" on="0"/>
        <pt x="36" y="693" on="1"/>
        <pt x="106" y="693" on="1"/>
        <pt x="121" y="605" on="0"/>
        <pt x="153" y="436" on="0"/>
        <pt x="188" y="278" on="0"/>
        <pt x="225" y="137" on="0"/>
        <pt x="243" y="77" on="1"/>
        <pt x="286" y="188" on="0"/>
        <pt x="384" y="447" on="0"/>
        <pt x="432" y="608" on="1"/>
      </contour>
    </TTGlyph>
    <TTGlyph name="Wacute" xMin="36" yMin="0" xMax="885" yMax="929">
      <component glyphName="W" x="0" y="0" flags="0x204"/>
      <component glyphName="acute" x="282" y="156" flags="0x4"/>
    </TTGlyph>
    <TTGlyph name="Wcircumflex" xMin="36" yMin="0" xMax="885" yMax="918">
      <component glyphName="W" x="0" y="0" flags="0x204"/>
      <component glyphName="circumflex" x="272" y="156" flags="0x4"/>
    </TTGlyph>
    <TTGlyph name="Wdieresis" xMin="36" yMin="0" xMax="885" yMax="877">
      <component glyphName="W" x="0" y="0" flags="0x204"/>
      <component glyphName="dieresis" x="272" y="156" flags="0x4"/>
    </TTGlyph>
    <TTGlyph name="Wgrave" xMin="36" yMin="0" xMax="885" yMax="929">
      <component glyphName="W" x="0" y="0" flags="0x204"/>
      <component glyphName="grave" x="262" y="156" flags="0x4"/>
    </TTGlyph>
    <TTGlyph name="X" xMin="27" yMin="0" xMax="578" yMax="693">
      <contour>
        <pt x="490" y="693" on="1"/>
        <pt x="566" y="693" on="1"/>
        <pt x="343" y="368" on="1"/>
        <pt x="408" y="276" on="0"/>
        <pt x="532" y="91" on="0"/>
        <pt x="578" y="0" on="1"/>
        <pt x="504" y="0" on="1"/>
        <pt x="489" y="30" on="0"/>
        <pt x="442" y="108" on="0"/>
        <pt x="387" y="194" on="0"/>
        <pt x="328" y="280" on="0"/>
        <pt x="301" y="318" on="1"/>
        <pt x="274" y="280" on="0"/>
        <pt x="215" y="194" on="0"/>
        <pt x="160" y="108" on="0"/>
        <pt x="113" y="30" on="0"/>
        <pt x="98" y="0" on="1"/>
        <pt x="27" y="0" on="1"/>
        <pt x="73" y="91" on="0"/>
        <pt x="197" y="275" on="0"/>
        <pt x="261" y="366" on="1"/>
        <pt x="38" y="693" on="1"/>
        <pt x="116" y="693" on="1"/>
        <pt x="303" y="414" on="1"/>
      </contour>
    </TTGlyph>
    <TTGlyph name="Xi" xMin="39" yMin="0" xMax="512" yMax="693">
      <contour>
        <pt x="98" y="334" on="1"/>
        <pt x="98" y="393" on="1"/>
        <pt x="452" y="393" on="1"/>
        <pt x="452" y="334" on="1"/>
      </contour>
      <contour>
        <pt x="39" y="0" on="1"/>
        <pt x="39" y="59" on="1"/>
        <pt x="512" y="59" on="1"/>
        <pt x="512" y="0" on="1"/>
      </contour>
      <contour>
        <pt x="497" y="693" on="1"/>
        <pt x="497" y="634" on="1"/>
        <pt x="54" y="634" on="1"/>
        <pt x="54" y="693" on="1"/>
      </contour>
    </TTGlyph>
    <TTGlyph name="Y" xMin="10" yMin="0" xMax="559" yMax="693">
      <contour>
        <pt x="251" y="0" on="1"/>
        <pt x="251" y="285" on="1"/>
        <pt x="180" y="394" on="0"/>
        <pt x="61" y="597" on="0"/>
        <pt x="10" y="693" on="1"/>
        <pt x="89" y="693" on="1"/>
        <pt x="131" y="605" on="0"/>
        <pt x="232" y="424" on="0"/>
        <pt x="287" y="342" on="1"/>
        <pt x="340" y="424" on="0"/>
        <pt x="442" y="605" on="0"/>
        <pt x="485" y="693" on="1"/>
        <pt x="559" y="693" on="1"/>
        <pt x="506" y="598" on="0"/>
        <pt x="388" y="393" on="0"/>
        <pt x="319" y="287" on="1"/>
        <pt x="319" y="0" on="1"/>
      </contour>
    </TTGlyph>
    <TTGlyph name="Yacute" xMin="10" yMin="0" xMax="559" yMax="929">
      <component glyphName="Y" x="0" y="0" flags="0x204"/>
      <component glyphName="acute" x="107" y="156" flags="0x4"/>
    </TTGlyph>
    <TTGlyph name="Ycircumflex" xMin="10" yMin="0" xMax="559" yMax="918">
      <component glyphName="Y" x="0" y="0" flags="0x204"/>
      <component glyphName="circumflex" x="97" y="156" flags="0x4"/>
    </TTGlyph>
    <TTGlyph name="Ydieresis" xMin="10" yMin="0" xMax="559" yMax="877">
      <component glyphName="Y" x="0" y="0" flags="0x204"/>
      <component glyphName="dieresis" x="97" y="156" flags="0x4"/>
    </TTGlyph>
    <TTGlyph name="Ygrave" xMin="10" yMin="0" xMax="559" yMax="929">
      <component glyphName="Y" x="0" y="0" flags="0x204"/>
      <component glyphName="grave" x="87" y="156" flags="0x4"/>
    </TTGlyph>
    <TTGlyph name="Z" xMin="38" yMin="0" xMax="520" yMax="693">
      <contour>
        <pt x="510" y="631" on="1"/>
        <pt x="486" y="603" on="0"/>
        <pt x="423" y="523" on="0"/>
        <pt x="351" y="428" on="0"/>
        <pt x="276" y="321" on="0"/>
        <pt x="203" y="212" on="0"/>
        <pt x="138" y="106" on="0"/>
        <pt x="112" y="59" on="1"/>
        <pt x="520" y="59" on="1"/>
        <pt x="520" y="0" on="1"/>
        <pt x="38" y="0" on="1"/>
        <pt x="38" y="51" on="1"/>
        <pt x="60" y="94" on="0"/>
        <pt x="121" y="197" on="0"/>
        <pt x="191" y="306" on="0"/>
        <pt x="267" y="416" on="0"/>
        <pt x="341" y="517" on="0"/>
        <pt x="408" y="603" on="0"/>
        <pt x="436" y="634" on="1"/>
        <pt x="57" y="634" on="1"/>
        <pt x="57" y="693" on="1"/>
        <pt x="510" y="693" on="1"/>
      </contour>
    </TTGlyph>
    <TTGlyph name="Zacute" xMin="38" yMin="0" xMax="520" yMax="929">
      <component glyphName="Z" x="0" y="0" flags="0x204"/>
      <component glyphName="acute" x="109" y="156" flags="0x4"/>
    </TTGlyph>
    <TTGlyph name="Zcaron" xMin="38" yMin="0" xMax="520" yMax="921">
      <component glyphName="Z" x="0" y="0" flags="0x204"/>
      <component glyphName="caron" x="99" y="156" flags="0x4"/>
    </TTGlyph>
    <TTGlyph name="Zdotaccent" xMin="38" yMin="0" xMax="520" yMax="879">
      <component glyphName="Z" x="0" y="0" flags="0x204"/>
      <component glyphName="dotaccent" x="99" y="156" flags="0x4"/>
    </TTGlyph>
    <TTGlyph name="Zeta" xMin="38" yMin="0" xMax="520" yMax="693">
      <component glyphName="Z" x="0" y="0" flags="0x204"/>
    </TTGlyph>
    <TTGlyph name="a" xMin="48" yMin="-11" xMax="429" yMax="529">
      <contour>
        <pt x="249" y="47" on="1"/>
        <pt x="287" y="47" on="0"/>
        <pt x="344" y="52" on="0"/>
        <pt x="364" y="56" on="1"/>
        <pt x="364" y="238" on="1"/>
        <pt x="353" y="243" on="0"/>
        <pt x="305" y="254" on="0"/>
        <pt x="263" y="254" on="1"/>
        <pt x="239" y="254" on="0"/>
        <pt x="187" y="247" on="0"/>
        <pt x="143" y="224" on="0"/>
        <pt x="115" y="184" on="0"/>
        <pt x="115" y="151" on="1"/>
        <pt x="115" y="122" on="0"/>
        <pt x="134" y="82" on="0"/>
        <pt x="169" y="58" on="0"/>
        <pt x="218" y="47" on="0"/>
      </contour>
      <contour>
        <pt x="243" y="529" on="1"/>
        <pt x="294" y="529" on="0"/>
        <pt x="365" y="500" on="0"/>
        <pt x="409" y="449" on="0"/>
        <pt x="429" y="379" on="0"/>
        <pt x="429" y="338" on="1"/>
        <pt x="429" y="12" on="1"/>
        <pt x="419" y="9" on="0"/>
        <pt x="381" y="2" on="0"/>
        <pt x="331" y="-6" on="0"/>
        <pt x="270" y="-11" on="0"/>
        <pt x="238" y="-11" on="1"/>
        <pt x="197" y="-11" on="0"/>
        <pt x="128" y="7" on="0"/>
        <pt x="77" y="46" on="0"/>
        <pt x="48" y="107" on="0"/>
        <pt x="48" y="151" on="1"/>
        <pt x="48" y="193" on="0"/>
        <pt x="80" y="253" on="0"/>
        <pt x="138" y="292" on="0"/>
        <pt x="218" y="310" on="0"/>
        <pt x="265" y="310" on="1"/>
        <pt x="279" y="310" on="0"/>
        <pt x="310" y="307" on="0"/>
        <pt x="339" y="302" on="0"/>
        <pt x="360" y="297" on="0"/>
        <pt x="364" y="295" on="1"/>
        <pt x="364" y="327" on="1"/>
        <pt x="364" y="354" on="0"/>
        <pt x="356" y="405" on="0"/>
        <pt x="329" y="446" on="0"/>
        <pt x="280" y="471" on="0"/>
        <pt x="240" y="471" on="1"/>
        <pt x="183" y="471" on="0"/>
        <pt x="127" y="455" on="0"/>
        <pt x="114" y="450" on="1"/>
        <pt x="105" y="507" on="1"/>
        <pt x="122" y="515" on="0"/>
        <pt x="193" y="529" on="0"/>
      </contour>
    </TTGlyph>
    <TTGlyph name="aacute" xMin="48" yMin="-11" xMax="429" yMax="773">
      <component glyphName="a" x="0" y="0" flags="0x204"/>
      <component glyphName="acute" x="82" y="0" flags="0x4"/>
    </TTGlyph>
    <TTGlyph name="abreve" xMin="48" yMin="-11" xMax="429" yMax="746">
      <component glyphName="a" x="0" y="0" flags="0x204"/>
      <component glyphName="breve" x="72" y="0" flags="0x4"/>
    </TTGlyph>
    <TTGlyph name="acircumflex" xMin="48" yMin="-11" xMax="429" yMax="762">
      <component glyphName="a" x="0" y="0" flags="0x204"/>
      <component glyphName="circumflex" x="72" y="0" flags="0x4"/>
    </TTGlyph>
    <TTGlyph name="acute" xMin="112" yMin="583" xMax="316" yMax="773">
      <contour>
        <pt x="316" y="722" on="1"/>
        <pt x="145" y="583" on="1"/>
        <pt x="112" y="621" on="1"/>
        <pt x="270" y="773" on="1"/>
      </contour>
    </TTGlyph>
    <TTGlyph name="acute.asc" xMin="98" yMin="823" xMax="279" yMax="940">
      <contour>
        <pt x="256" y="940" on="1"/>
        <pt x="279" y="882" on="1"/>
        <pt x="113" y="823" on="1"/>
        <pt x="98" y="864" on="1"/>
      </contour>
    </TTGlyph>
    <TTGlyph name="adieresis" xMin="48" yMin="-11" xMax="429" yMax="721">
      <component glyphName="a" x="0" y="0" flags="0x204"/>
      <component glyphName="dieresis" x="72" y="0" flags="0x4"/>
    </TTGlyph>
    <TTGlyph name="ae" xMin="48" yMin="-11" xMax="795" yMax="529">
      <contour>
        <pt x="728" y="300" on="1"/>
        <pt x="726" y="381" on="0"/>
        <pt x="654" y="471" on="0"/>
        <pt x="588" y="471" on="1"/>
        <pt x="553" y="471" on="0"/>
        <pt x="498" y="443" on="0"/>
        <pt x="457" y="396" on="0"/>
        <pt x="434" y="334" on="0"/>
        <pt x="432" y="300" on="1"/>
      </contour>
      <contour>
        <pt x="252" y="-11" on="1"/>
        <pt x="208" y="-11" on="0"/>
        <pt x="133" y="7" on="0"/>
        <pt x="79" y="46" on="0"/>
        <pt x="48" y="107" on="0"/>
        <pt x="48" y="151" on="1"/>
        <pt x="48" y="193" on="0"/>
        <pt x="80" y="253" on="0"/>
        <pt x="138" y="292" on="0"/>
        <pt x="218" y="310" on="0"/>
        <pt x="265" y="310" on="1"/>
        <pt x="279" y="310" on="0"/>
        <pt x="310" y="307" on="0"/>
        <pt x="339" y="302" on="0"/>
        <pt x="360" y="297" on="0"/>
        <pt x="364" y="295" on="1"/>
        <pt x="364" y="327" on="1"/>
        <pt x="364" y="354" on="0"/>
        <pt x="356" y="405" on="0"/>
        <pt x="329" y="446" on="0"/>
        <pt x="280" y="471" on="0"/>
        <pt x="240" y="471" on="1"/>
        <pt x="186" y="471" on="0"/>
        <pt x="126" y="456" on="0"/>
        <pt x="113" y="451" on="1"/>
        <pt x="105" y="507" on="1"/>
        <pt x="122" y="515" on="0"/>
        <pt x="194" y="529" on="0"/>
        <pt x="243" y="529" on="1"/>
        <pt x="314" y="529" on="0"/>
        <pt x="395" y="476" on="0"/>
        <pt x="412" y="431" on="1"/>
        <pt x="445" y="480" on="0"/>
        <pt x="537" y="529" on="0"/>
        <pt x="587" y="529" on="1"/>
        <pt x="682" y="529" on="0"/>
        <pt x="795" y="405" on="0"/>
        <pt x="795" y="276" on="1"/>
        <pt x="795" y="268" on="0"/>
        <pt x="794" y="252" on="0"/>
        <pt x="793" y="245" on="1"/>
        <pt x="430" y="245" on="1"/>
        <pt x="433" y="150" on="0"/>
        <pt x="521" y="48" on="0"/>
        <pt x="617" y="48" on="1"/>
        <pt x="670" y="48" on="0"/>
        <pt x="732" y="68" on="0"/>
        <pt x="746" y="75" on="1"/>
        <pt x="758" y="19" on="1"/>
        <pt x="744" y="11" on="0"/>
        <pt x="667" y="-11" on="0"/>
        <pt x="615" y="-11" on="1"/>
        <pt x="558" y="-11" on="0"/>
        <pt x="470" y="17" on="0"/>
        <pt x="437" y="49" on="1"/>
        <pt x="426" y="40" on="0"/>
        <pt x="393" y="19" on="0"/>
        <pt x="347" y="1" on="0"/>
        <pt x="289" y="-11" on="0"/>
      </contour>
      <contour>
        <pt x="365" y="238" on="1"/>
        <pt x="354" y="243" on="0"/>
        <pt x="305" y="254" on="0"/>
        <pt x="263" y="254" on="1"/>
        <pt x="239" y="254" on="0"/>
        <pt x="187" y="247" on="0"/>
        <pt x="143" y="224" on="0"/>
        <pt x="115" y="184" on="0"/>
        <pt x="115" y="151" on="1"/>
        <pt x="115" y="122" on="0"/>
        <pt x="135" y="82" on="0"/>
        <pt x="172" y="58" on="0"/>
        <pt x="222" y="47" on="0"/>
        <pt x="252" y="47" on="1"/>
        <pt x="314" y="47" on="0"/>
        <pt x="386" y="80" on="0"/>
        <pt x="400" y="93" on="1"/>
        <pt x="384" y="119" on="0"/>
        <pt x="366" y="190" on="0"/>
      </contour>
    </TTGlyph>
    <TTGlyph name="aeacute" xMin="48" yMin="-11" xMax="795" yMax="773">
      <component glyphName="ae" x="0" y="0" flags="0x204"/>
      <component glyphName="acute" x="239" y="0" flags="0x4"/>
    </TTGlyph>
    <TTGlyph name="afii00208" xMin="-2" yMin="261" xMax="998" yMax="318">
      <component glyphName="emdash" x="0" y="0" flags="0x204"/>
    </TTGlyph>
    <TTGlyph name="afii10017" xMin="10" yMin="0" xMax="631" yMax="693">
      <component glyphName="A" x="0" y="0" flags="0x204"/>
    </TTGlyph>
    <TTGlyph name="afii10018" xMin="90" yMin="-6" xMax="564" yMax="693">
      <component glyphName="uni0182" x="0" y="0" flags="0x204"/>
    </TTGlyph>
    <TTGlyph name="afii10019" xMin="90" yMin="-6" xMax="575" yMax="699">
      <component glyphName="B" x="0" y="0" flags="0x204"/>
    </TTGlyph>
    <TTGlyph name="afii10020" xMin="90" yMin="0" xMax="464" yMax="693">
      <contour>
        <pt x="464" y="693" on="1"/>
        <pt x="464" y="634" on="1"/>
        <pt x="158" y="634" on="1"/>
        <pt x="158" y="0" on="1"/>
        <pt x="90" y="0" on="1"/>
        <pt x="90" y="693" on="1"/>
      </contour>
    </TTGlyph>
    <TTGlyph name="afii10021" xMin="18" yMin="-185" xMax="648" yMax="693">
      <contour>
        <pt x="83" y="0" on="1"/>
        <pt x="83" y="-185" on="1"/>
        <pt x="18" y="-185" on="1"/>
        <pt x="18" y="59" on="1"/>
        <pt x="80" y="59" on="1"/>
        <pt x="131" y="110" on="0"/>
        <pt x="188" y="250" on="0"/>
        <pt x="217" y="411" on="0"/>
        <pt x="223" y="585" on="0"/>
        <pt x="223" y="671" on="1"/>
        <pt x="223" y="693" on="1"/>
        <pt x="583" y="693" on="1"/>
        <pt x="583" y="59" on="1"/>
        <pt x="648" y="59" on="1"/>
        <pt x="648" y="-185" on="1"/>
        <pt x="583" y="-185" on="1"/>
        <pt x="583" y="0" on="1"/>
      </contour>
      <contour>
        <pt x="290" y="634" on="1"/>
        <pt x="290" y="626" on="1"/>
        <pt x="290" y="556" on="0"/>
        <pt x="283" y="402" on="0"/>
        <pt x="258" y="251" on="0"/>
        <pt x="207" y="113" on="0"/>
        <pt x="163" y="59" on="1"/>
        <pt x="515" y="59" on="1"/>
        <pt x="515" y="634" on="1"/>
      </contour>
    </TTGlyph>
    <TTGlyph name="afii10022" xMin="90" yMin="0" xMax="516" yMax="693">
      <component glyphName="E" x="0" y="0" flags="0x204"/>
    </TTGlyph>
    <TTGlyph name="afii10023" xMin="90" yMin="0" xMax="516" yMax="877">
      <component glyphName="E" x="0" y="0" flags="0x204"/>
      <component glyphName="dieresis" x="102" y="156" flags="0x4"/>
    </TTGlyph>
    <TTGlyph name="afii10024" xMin="22" yMin="0" xMax="825" yMax="693">
      <contour>
        <pt x="22" y="0" on="1"/>
        <pt x="47" y="46" on="0"/>
        <pt x="116" y="146" on="0"/>
        <pt x="196" y="242" on="0"/>
        <pt x="279" y="331" on="0"/>
        <pt x="318" y="366" on="1"/>
        <pt x="292" y="396" on="0"/>
        <pt x="216" y="483" on="0"/>
        <pt x="136" y="576" on="0"/>
        <pt x="61" y="663" on="0"/>
        <pt x="37" y="693" on="1"/>
        <pt x="116" y="693" on="1"/>
        <pt x="135" y="669" on="0"/>
        <pt x="201" y="589" on="0"/>
        <pt x="279" y="498" on="0"/>
        <pt x="358" y="405" on="0"/>
        <pt x="391" y="368" on="1"/>
        <pt x="391" y="693" on="1"/>
        <pt x="455" y="693" on="1"/>
        <pt x="455" y="368" on="1"/>
        <pt x="488" y="405" on="0"/>
        <pt x="567" y="498" on="0"/>
        <pt x="645" y="589" on="0"/>
        <pt x="711" y="669" on="0"/>
        <pt x="730" y="693" on="1"/>
        <pt x="808" y="693" on="1"/>
        <pt x="784" y="663" on="0"/>
        <pt x="710" y="576" on="0"/>
        <pt x="630" y="484" on="0"/>
        <pt x="554" y="397" on="0"/>
        <pt x="528" y="367" on="1"/>
        <pt x="567" y="332" on="0"/>
        <pt x="651" y="243" on="0"/>
        <pt x="730" y="146" on="0"/>
        <pt x="800" y="46" on="0"/>
        <pt x="825" y="0" on="1"/>
        <pt x="749" y="0" on="1"/>
        <pt x="724" y="45" on="0"/>
        <pt x="649" y="146" on="0"/>
        <pt x="567" y="240" on="0"/>
        <pt x="486" y="320" on="0"/>
        <pt x="455" y="345" on="1"/>
        <pt x="455" y="0" on="1"/>
        <pt x="391" y="0" on="1"/>
        <pt x="391" y="345" on="1"/>
        <pt x="359" y="320" on="0"/>
        <pt x="279" y="240" on="0"/>
        <pt x="197" y="146" on="0"/>
        <pt x="122" y="45" on="0"/>
        <pt x="97" y="0" on="1"/>
      </contour>
    </TTGlyph>
    <TTGlyph name="afii10025" xMin="31" yMin="-15" xMax="499" yMax="708">
      <contour>
        <pt x="238" y="649" on="1"/>
        <pt x="190" y="649" on="0"/>
        <pt x="106" y="625" on="0"/>
        <pt x="77" y="605" on="1"/>
        <pt x="53" y="662" on="1"/>
        <pt x="79" y="679" on="0"/>
        <pt x="179" y="708" on="0"/>
        <pt x="239" y="708" on="1"/>
        <pt x="290" y="708" on="0"/>
        <pt x="374" y="687" on="0"/>
        <pt x="434" y="644" on="0"/>
        <pt x="468" y="578" on="0"/>
        <pt x="468" y="533" on="1"/>
        <pt x="468" y="506" on="0"/>
        <pt x="450" y="456" on="0"/>
        <pt x="416" y="414" on="0"/>
        <pt x="364" y="383" on="0"/>
        <pt x="330" y="376" on="1"/>
        <pt x="363" y="370" on="0"/>
        <pt x="425" y="342" on="0"/>
        <pt x="471" y="297" on="0"/>
        <pt x="499" y="232" on="0"/>
        <pt x="499" y="189" on="1"/>
        <pt x="499" y="133" on="0"/>
        <pt x="459" y="56" on="0"/>
        <pt x="388" y="7" on="0"/>
        <pt x="289" y="-15" on="0"/>
        <pt x="230" y="-15" on="1"/>
        <pt x="192" y="-15" on="0"/>
        <pt x="128" y="-5" on="0"/>
        <pt x="77" y="10" on="0"/>
        <pt x="41" y="25" on="0"/>
        <pt x="31" y="31" on="1"/>
        <pt x="53" y="90" on="1"/>
        <pt x="63" y="84" on="0"/>
        <pt x="97" y="69" on="0"/>
        <pt x="142" y="54" on="0"/>
        <pt x="198" y="44" on="0"/>
        <pt x="231" y="44" on="1"/>
        <pt x="274" y="44" on="0"/>
        <pt x="346" y="59" on="0"/>
        <pt x="398" y="94" on="0"/>
        <pt x="427" y="149" on="0"/>
        <pt x="427" y="189" on="1"/>
        <pt x="427" y="235" on="0"/>
        <pt x="391" y="293" on="0"/>
        <pt x="328" y="326" on="0"/>
        <pt x="242" y="339" on="0"/>
        <pt x="193" y="339" on="1"/>
        <pt x="147" y="339" on="1"/>
        <pt x="147" y="397" on="1"/>
        <pt x="206" y="397" on="1"/>
        <pt x="239" y="397" on="0"/>
        <pt x="307" y="410" on="0"/>
        <pt x="362" y="440" on="0"/>
        <pt x="397" y="492" on="0"/>
        <pt x="397" y="531" on="1"/>
        <pt x="397" y="582" on="0"/>
        <pt x="317" y="649" on="0"/>
      </contour>
    </TTGlyph>
    <TTGlyph name="afii10026" xMin="90" yMin="0" xMax="619" yMax="693">
      <contour>
        <pt x="90" y="0" on="1"/>
        <pt x="90" y="693" on="1"/>
        <pt x="157" y="693" on="1"/>
        <pt x="157" y="129" on="1"/>
        <pt x="188" y="184" on="0"/>
        <pt x="285" y="332" on="0"/>
        <pt x="397" y="487" on="0"/>
        <pt x="514" y="636" on="0"/>
        <pt x="565" y="693" on="1"/>
        <pt x="619" y="693" on="1"/>
        <pt x="619" y="0" on="1"/>
        <pt x="552" y="0" on="1"/>
        <pt x="552" y="584" on="1"/>
        <pt x="522" y="550" on="0"/>
        <pt x="450" y="456" on="0"/>
        <pt x="373" y="349" on="0"/>
        <pt x="295" y="236" on="0"/>
        <pt x="225" y="129" on="0"/>
        <pt x="166" y="35" on="0"/>
        <pt x="147" y="0" on="1"/>
      </contour>
    </TTGlyph>
    <TTGlyph name="afii10027" xMin="90" yMin="0" xMax="619" yMax="894">
      <component glyphName="afii10026" x="0" y="0" flags="0x204"/>
      <component glyphName="kratka" x="166" y="156" flags="0x4"/>
    </TTGlyph>
    <TTGlyph name="afii10028" xMin="90" yMin="0" xMax="589" yMax="693">
      <component glyphName="K" x="0" y="0" flags="0x204"/>
    </TTGlyph>
    <TTGlyph name="afii10029" xMin="14" yMin="-8" xMax="590" yMax="693">
      <contour>
        <pt x="296" y="634" on="1"/>
        <pt x="296" y="614" on="1"/>
        <pt x="296" y="504" on="0"/>
        <pt x="281" y="300" on="0"/>
        <pt x="253" y="207" on="1"/>
        <pt x="240" y="164" on="0"/>
        <pt x="201" y="88" on="0"/>
        <pt x="145" y="30" on="0"/>
        <pt x="70" y="-6" on="0"/>
        <pt x="21" y="-8" on="1"/>
        <pt x="14" y="50" on="1"/>
        <pt x="48" y="54" on="0"/>
        <pt x="101" y="79" on="0"/>
        <pt x="142" y="121" on="0"/>
        <pt x="173" y="180" on="0"/>
        <pt x="186" y="219" on="1"/>
        <pt x="212" y="300" on="0"/>
        <pt x="229" y="504" on="0"/>
        <pt x="229" y="631" on="1"/>
        <pt x="229" y="693" on="1"/>
        <pt x="590" y="693" on="1"/>
        <pt x="590" y="0" on="1"/>
        <pt x="522" y="0" on="1"/>
        <pt x="522" y="634" on="1"/>
      </contour>
    </TTGlyph>
    <TTGlyph name="afii10030" xMin="73" yMin="0" xMax="792" yMax="693">
      <component glyphName="M" x="0" y="0" flags="0x204"/>
    </TTGlyph>
    <TTGlyph name="afii10031" xMin="90" yMin="0" xMax="602" yMax="693">
      <component glyphName="H" x="0" y="0" flags="0x204"/>
    </TTGlyph>
    <TTGlyph name="afii10032" xMin="62" yMin="-15" xMax="712" yMax="708">
      <component glyphName="O" x="0" y="0" flags="0x204"/>
    </TTGlyph>
    <TTGlyph name="afii10033" xMin="90" yMin="0" xMax="595" yMax="693">
      <contour>
        <pt x="595" y="693" on="1"/>
        <pt x="595" y="0" on="1"/>
        <pt x="527" y="0" on="1"/>
        <pt x="527" y="634" on="1"/>
        <pt x="158" y="634" on="1"/>
        <pt x="158" y="0" on="1"/>
        <pt x="90" y="0" on="1"/>
        <pt x="90" y="693" on="1"/>
      </contour>
    </TTGlyph>
    <TTGlyph name="afii10034" xMin="90" yMin="0" xMax="556" yMax="699">
      <component glyphName="P" x="0" y="0" flags="0x204"/>
    </TTGlyph>
    <TTGlyph name="afii10035" xMin="62" yMin="-15" xMax="581" yMax="708">
      <component glyphName="C" x="0" y="0" flags="0x204"/>
    </TTGlyph>
    <TTGlyph name="afii10036" xMin="18" yMin="0" xMax="530" yMax="693">
      <component glyphName="T" x="0" y="0" flags="0x204"/>
    </TTGlyph>
    <TTGlyph name="afii10037" xMin="18" yMin="-7" xMax="541" yMax="693">
      <contour>
        <pt x="311" y="243" on="1"/>
        <pt x="332" y="290" on="0"/>
        <pt x="376" y="401" on="0"/>
        <pt x="418" y="520" on="0"/>
        <pt x="455" y="639" on="0"/>
        <pt x="469" y="693" on="1"/>
        <pt x="541" y="693" on="1"/>
        <pt x="521" y="624" on="0"/>
        <pt x="480" y="501" on="0"/>
        <pt x="437" y="386" on="0"/>
        <pt x="391" y="275" on="0"/>
        <pt x="366" y="219" on="1"/>
        <pt x="350" y="183" on="0"/>
        <pt x="312" y="103" on="0"/>
        <pt x="256" y="36" on="0"/>
        <pt x="175" y="-7" on="0"/>
        <pt x="116" y="-7" on="1"/>
        <pt x="90" y="-7" on="0"/>
        <pt x="51" y="4" on="0"/>
        <pt x="42" y="9" on="1"/>
        <pt x="55" y="65" on="1"/>
        <pt x="62" y="61" on="0"/>
        <pt x="94" y="50" on="0"/>
        <pt x="120" y="50" on="1"/>
        <pt x="154" y="50" on="0"/>
        <pt x="205" y="71" on="0"/>
        <pt x="242" y="105" on="0"/>
        <pt x="270" y="151" on="0"/>
        <pt x="281" y="176" on="1"/>
        <pt x="235" y="246" on="0"/>
        <pt x="156" y="388" on="0"/>
        <pt x="91" y="522" on="0"/>
        <pt x="38" y="643" on="0"/>
        <pt x="18" y="693" on="1"/>
        <pt x="94" y="693" on="1"/>
        <pt x="128" y="601" on="0"/>
        <pt x="237" y="365" on="0"/>
      </contour>
    </TTGlyph>
    <TTGlyph name="afii10038" xMin="62" yMin="0" xMax="798" yMax="738">
      <contour>
        <pt x="463" y="142" on="1"/>
        <pt x="517" y="142" on="0"/>
        <pt x="613" y="169" on="0"/>
        <pt x="684" y="225" on="0"/>
        <pt x="726" y="312" on="0"/>
        <pt x="726" y="371" on="1"/>
        <pt x="726" y="430" on="0"/>
        <pt x="684" y="517" on="0"/>
        <pt x="613" y="573" on="0"/>
        <pt x="517" y="600" on="0"/>
        <pt x="463" y="600" on="1"/>
      </contour>
      <contour>
        <pt x="397" y="86" on="1"/>
        <pt x="340" y="86" on="0"/>
        <pt x="221" y="117" on="0"/>
        <pt x="124" y="185" on="0"/>
        <pt x="62" y="294" on="0"/>
        <pt x="62" y="371" on="1"/>
        <pt x="62" y="448" on="0"/>
        <pt x="124" y="557" on="0"/>
        <pt x="221" y="625" on="0"/>
        <pt x="340" y="656" on="0"/>
        <pt x="397" y="656" on="1"/>
        <pt x="397" y="738" on="1"/>
        <pt x="463" y="738" on="1"/>
        <pt x="463" y="656" on="1"/>
        <pt x="520" y="656" on="0"/>
        <pt x="639" y="625" on="0"/>
        <pt x="736" y="557" on="0"/>
        <pt x="798" y="448" on="0"/>
        <pt x="798" y="371" on="1"/>
        <pt x="798" y="294" on="0"/>
        <pt x="736" y="185" on="0"/>
        <pt x="639" y="117" on="0"/>
        <pt x="520" y="86" on="0"/>
        <pt x="463" y="86" on="1"/>
        <pt x="463" y="0" on="1"/>
        <pt x="397" y="0" on="1"/>
      </contour>
      <contour>
        <pt x="397" y="600" on="1"/>
        <pt x="343" y="600" on="0"/>
        <pt x="247" y="573" on="0"/>
        <pt x="176" y="517" on="0"/>
        <pt x="134" y="430" on="0"/>
        <pt x="134" y="371" on="1"/>
        <pt x="134" y="312" on="0"/>
        <pt x="176" y="225" on="0"/>
        <pt x="247" y="169" on="0"/>
        <pt x="343" y="142" on="0"/>
        <pt x="397" y="142" on="1"/>
      </contour>
    </TTGlyph>
    <TTGlyph name="afii10039" xMin="27" yMin="0" xMax="578" yMax="693">
      <component glyphName="X" x="0" y="0" flags="0x204"/>
    </TTGlyph>
    <TTGlyph name="afii10040" xMin="90" yMin="-185" xMax="660" yMax="693">
      <contour>
        <pt x="595" y="0" on="1"/>
        <pt x="90" y="0" on="1"/>
        <pt x="90" y="693" on="1"/>
        <pt x="158" y="693" on="1"/>
        <pt x="158" y="59" on="1"/>
        <pt x="527" y="59" on="1"/>
        <pt x="527" y="693" on="1"/>
        <pt x="595" y="693" on="1"/>
        <pt x="595" y="59" on="1"/>
        <pt x="660" y="59" on="1"/>
        <pt x="660" y="-185" on="1"/>
        <pt x="595" y="-185" on="1"/>
      </contour>
    </TTGlyph>
    <TTGlyph name="afii10041" xMin="68" yMin="0" xMax="519" yMax="693">
      <contour>
        <pt x="136" y="693" on="1"/>
        <pt x="136" y="499" on="1"/>
        <pt x="136" y="454" on="0"/>
        <pt x="148" y="384" on="0"/>
        <pt x="184" y="336" on="0"/>
        <pt x="252" y="312" on="0"/>
        <pt x="308" y="312" on="1"/>
        <pt x="333" y="312" on="0"/>
        <pt x="379" y="317" on="0"/>
        <pt x="418" y="323" on="0"/>
        <pt x="445" y="330" on="0"/>
        <pt x="451" y="332" on="1"/>
        <pt x="451" y="693" on="1"/>
        <pt x="519" y="693" on="1"/>
        <pt x="519" y="0" on="1"/>
        <pt x="451" y="0" on="1"/>
        <pt x="451" y="273" on="1"/>
        <pt x="436" y="268" on="0"/>
        <pt x="355" y="252" on="0"/>
        <pt x="302" y="252" on="1"/>
        <pt x="219" y="252" on="0"/>
        <pt x="125" y="292" on="0"/>
        <pt x="79" y="360" on="0"/>
        <pt x="68" y="449" on="0"/>
        <pt x="68" y="499" on="1"/>
        <pt x="68" y="693" on="1"/>
      </contour>
    </TTGlyph>
    <TTGlyph name="afii10042" xMin="90" yMin="0" xMax="876" yMax="693">
      <contour>
        <pt x="876" y="0" on="1"/>
        <pt x="90" y="0" on="1"/>
        <pt x="90" y="693" on="1"/>
        <pt x="158" y="693" on="1"/>
        <pt x="158" y="59" on="1"/>
        <pt x="449" y="59" on="1"/>
        <pt x="449" y="693" on="1"/>
        <pt x="517" y="693" on="1"/>
        <pt x="517" y="59" on="1"/>
        <pt x="808" y="59" on="1"/>
        <pt x="808" y="693" on="1"/>
        <pt x="876" y="693" on="1"/>
      </contour>
    </TTGlyph>
    <TTGlyph name="afii10043" xMin="90" yMin="-185" xMax="941" yMax="693">
      <contour>
        <pt x="876" y="0" on="1"/>
        <pt x="90" y="0" on="1"/>
        <pt x="90" y="693" on="1"/>
        <pt x="158" y="693" on="1"/>
        <pt x="158" y="59" on="1"/>
        <pt x="449" y="59" on="1"/>
        <pt x="449" y="693" on="1"/>
        <pt x="517" y="693" on="1"/>
        <pt x="517" y="59" on="1"/>
        <pt x="808" y="59" on="1"/>
        <pt x="808" y="693" on="1"/>
        <pt x="876" y="693" on="1"/>
        <pt x="876" y="59" on="1"/>
        <pt x="941" y="59" on="1"/>
        <pt x="941" y="-185" on="1"/>
        <pt x="876" y="-185" on="1"/>
      </contour>
    </TTGlyph>
    <TTGlyph name="afii10044" xMin="18" yMin="-6" xMax="671" yMax="693">
      <contour>
        <pt x="378" y="375" on="1"/>
        <pt x="342" y="375" on="0"/>
        <pt x="286" y="371" on="0"/>
        <pt x="269" y="369" on="1"/>
        <pt x="269" y="60" on="1"/>
        <pt x="288" y="58" on="0"/>
        <pt x="341" y="53" on="0"/>
        <pt x="379" y="53" on="1"/>
        <pt x="424" y="53" on="0"/>
        <pt x="505" y="67" on="0"/>
        <pt x="565" y="103" on="0"/>
        <pt x="600" y="166" on="0"/>
        <pt x="600" y="215" on="1"/>
        <pt x="600" y="262" on="0"/>
        <pt x="567" y="324" on="0"/>
        <pt x="508" y="360" on="0"/>
        <pt x="426" y="375" on="0"/>
      </contour>
      <contour>
        <pt x="269" y="693" on="1"/>
        <pt x="269" y="428" on="1"/>
        <pt x="286" y="430" on="0"/>
        <pt x="349" y="434" on="0"/>
        <pt x="374" y="434" on="1"/>
        <pt x="524" y="434" on="0"/>
        <pt x="671" y="324" on="0"/>
        <pt x="671" y="215" on="1"/>
        <pt x="671" y="110" on="0"/>
        <pt x="530" y="-6" on="0"/>
        <pt x="376" y="-6" on="1"/>
        <pt x="334" y="-6" on="0"/>
        <pt x="237" y="3" on="0"/>
        <pt x="201" y="13" on="1"/>
        <pt x="201" y="634" on="1"/>
        <pt x="18" y="634" on="1"/>
        <pt x="18" y="693" on="1"/>
      </contour>
    </TTGlyph>
    <TTGlyph name="afii10045" xMin="90" yMin="-6" xMax="732" yMax="693">
      <contour>
        <pt x="664" y="693" on="1"/>
        <pt x="732" y="693" on="1"/>
        <pt x="732" y="0" on="1"/>
        <pt x="664" y="0" on="1"/>
      </contour>
      <contour>
        <pt x="263" y="375" on="1"/>
        <pt x="230" y="375" on="0"/>
        <pt x="175" y="371" on="0"/>
        <pt x="158" y="369" on="1"/>
        <pt x="158" y="60" on="1"/>
        <pt x="177" y="58" on="0"/>
        <pt x="229" y="53" on="0"/>
        <pt x="264" y="53" on="1"/>
        <pt x="307" y="53" on="0"/>
        <pt x="386" y="67" on="0"/>
        <pt x="445" y="103" on="0"/>
        <pt x="480" y="166" on="0"/>
        <pt x="480" y="215" on="1"/>
        <pt x="480" y="262" on="0"/>
        <pt x="446" y="324" on="0"/>
        <pt x="388" y="360" on="0"/>
        <pt x="309" y="375" on="0"/>
      </contour>
      <contour>
        <pt x="259" y="434" on="1"/>
        <pt x="405" y="434" on="0"/>
        <pt x="551" y="324" on="0"/>
        <pt x="551" y="215" on="1"/>
        <pt x="551" y="110" on="0"/>
        <pt x="410" y="-6" on="0"/>
        <pt x="261" y="-6" on="1"/>
        <pt x="222" y="-6" on="0"/>
        <pt x="126" y="3" on="0"/>
        <pt x="90" y="13" on="1"/>
        <pt x="90" y="693" on="1"/>
        <pt x="158" y="693" on="1"/>
        <pt x="158" y="428" on="1"/>
        <pt x="166" y="429" on="0"/>
        <pt x="192" y="431" on="0"/>
        <pt x="220" y="433" on="0"/>
        <pt x="248" y="434" on="0"/>
      </contour>
    </TTGlyph>
    <TTGlyph name="afii10046" xMin="90" yMin="-6" xMax="560" yMax="693">
      <contour>
        <pt x="267" y="375" on="1"/>
        <pt x="231" y="375" on="0"/>
        <pt x="175" y="371" on="0"/>
        <pt x="158" y="369" on="1"/>
        <pt x="158" y="60" on="1"/>
        <pt x="177" y="58" on="0"/>
        <pt x="230" y="53" on="0"/>
        <pt x="268" y="53" on="1"/>
        <pt x="313" y="53" on="0"/>
        <pt x="394" y="67" on="0"/>
        <pt x="454" y="103" on="0"/>
        <pt x="489" y="166" on="0"/>
        <pt x="489" y="215" on="1"/>
        <pt x="489" y="262" on="0"/>
        <pt x="456" y="324" on="0"/>
        <pt x="397" y="360" on="0"/>
        <pt x="315" y="375" on="0"/>
      </contour>
      <contour>
        <pt x="263" y="434" on="1"/>
        <pt x="413" y="434" on="0"/>
        <pt x="560" y="324" on="0"/>
        <pt x="560" y="215" on="1"/>
        <pt x="560" y="110" on="0"/>
        <pt x="419" y="-6" on="0"/>
        <pt x="265" y="-6" on="1"/>
        <pt x="223" y="-6" on="0"/>
        <pt x="126" y="3" on="0"/>
        <pt x="90" y="13" on="1"/>
        <pt x="90" y="693" on="1"/>
        <pt x="158" y="693" on="1"/>
        <pt x="158" y="428" on="1"/>
        <pt x="175" y="430" on="0"/>
        <pt x="238" y="434" on="0"/>
      </contour>
    </TTGlyph>
    <TTGlyph name="afii10047" xMin="29" yMin="-15" xMax="542" yMax="708">
      <contour>
        <pt x="213" y="46" on="1"/>
        <pt x="277" y="46" on="0"/>
        <pt x="371" y="87" on="0"/>
        <pt x="434" y="160" on="0"/>
        <pt x="467" y="263" on="0"/>
        <pt x="469" y="326" on="1"/>
        <pt x="156" y="326" on="1"/>
        <pt x="156" y="384" on="1"/>
        <pt x="468" y="384" on="1"/>
        <pt x="464" y="444" on="0"/>
        <pt x="427" y="542" on="0"/>
        <pt x="364" y="610" on="0"/>
        <pt x="276" y="647" on="0"/>
        <pt x="220" y="647" on="1"/>
        <pt x="158" y="647" on="0"/>
        <pt x="72" y="622" on="0"/>
        <pt x="49" y="609" on="1"/>
        <pt x="31" y="666" on="1"/>
        <pt x="39" y="671" on="0"/>
        <pt x="73" y="686" on="0"/>
        <pt x="124" y="699" on="0"/>
        <pt x="189" y="708" on="0"/>
        <pt x="228" y="708" on="1"/>
        <pt x="295" y="708" on="0"/>
        <pt x="410" y="660" on="0"/>
        <pt x="494" y="568" on="0"/>
        <pt x="542" y="433" on="0"/>
        <pt x="542" y="346" on="1"/>
        <pt x="542" y="259" on="0"/>
        <pt x="494" y="124" on="0"/>
        <pt x="409" y="32" on="0"/>
        <pt x="290" y="-15" on="0"/>
        <pt x="219" y="-15" on="1"/>
        <pt x="184" y="-15" on="0"/>
        <pt x="123" y="-6" on="0"/>
        <pt x="73" y="7" on="0"/>
        <pt x="38" y="21" on="0"/>
        <pt x="29" y="26" on="1"/>
        <pt x="48" y="84" on="1"/>
        <pt x="71" y="71" on="0"/>
        <pt x="153" y="46" on="0"/>
      </contour>
    </TTGlyph>
    <TTGlyph name="afii10048" xMin="90" yMin="-15" xMax="950" yMax="708">
      <contour>
        <pt x="638" y="708" on="1"/>
        <pt x="701" y="708" on="0"/>
        <pt x="814" y="662" on="0"/>
        <pt x="900" y="571" on="0"/>
        <pt x="950" y="436" on="0"/>
        <pt x="950" y="347" on="1"/>
        <pt x="950" y="258" on="0"/>
        <pt x="900" y="122" on="0"/>
        <pt x="814" y="31" on="0"/>
        <pt x="701" y="-15" on="0"/>
        <pt x="638" y="-15" on="1"/>
        <pt x="576" y="-15" on="0"/>
        <pt x="465" y="29" on="0"/>
        <pt x="380" y="117" on="0"/>
        <pt x="328" y="247" on="0"/>
        <pt x="326" y="333" on="1"/>
        <pt x="158" y="333" on="1"/>
        <pt x="158" y="0" on="1"/>
        <pt x="90" y="0" on="1"/>
        <pt x="90" y="693" on="1"/>
        <pt x="158" y="693" on="1"/>
        <pt x="158" y="392" on="1"/>
        <pt x="328" y="392" on="1"/>
        <pt x="334" y="470" on="0"/>
        <pt x="389" y="588" on="0"/>
        <pt x="472" y="668" on="0"/>
        <pt x="579" y="708" on="0"/>
      </contour>
      <contour>
        <pt x="638" y="46" on="1"/>
        <pt x="693" y="46" on="0"/>
        <pt x="782" y="88" on="0"/>
        <pt x="845" y="166" on="0"/>
        <pt x="878" y="277" on="0"/>
        <pt x="878" y="347" on="1"/>
        <pt x="878" y="417" on="0"/>
        <pt x="845" y="528" on="0"/>
        <pt x="782" y="606" on="0"/>
        <pt x="693" y="647" on="0"/>
        <pt x="638" y="647" on="1"/>
        <pt x="582" y="647" on="0"/>
        <pt x="494" y="606" on="0"/>
        <pt x="431" y="528" on="0"/>
        <pt x="398" y="417" on="0"/>
        <pt x="398" y="347" on="1"/>
        <pt x="398" y="277" on="0"/>
        <pt x="431" y="166" on="0"/>
        <pt x="494" y="88" on="0"/>
        <pt x="582" y="46" on="0"/>
      </contour>
    </TTGlyph>
    <TTGlyph name="afii10049" xMin="39" yMin="0" xMax="524" yMax="699">
      <contour>
        <pt x="456" y="633" on="1"/>
        <pt x="437" y="635" on="0"/>
        <pt x="380" y="640" on="0"/>
        <pt x="342" y="640" on="1"/>
        <pt x="301" y="640" on="0"/>
        <pt x="224" y="626" on="0"/>
        <pt x="164" y="591" on="0"/>
        <pt x="128" y="532" on="0"/>
        <pt x="128" y="487" on="1"/>
        <pt x="128" y="438" on="0"/>
        <pt x="163" y="379" on="0"/>
        <pt x="225" y="348" on="0"/>
        <pt x="312" y="338" on="0"/>
        <pt x="363" y="338" on="1"/>
        <pt x="456" y="338" on="1"/>
      </contour>
      <contour>
        <pt x="524" y="0" on="1"/>
        <pt x="456" y="0" on="1"/>
        <pt x="456" y="280" on="1"/>
        <pt x="346" y="280" on="1"/>
        <pt x="331" y="280" on="0"/>
        <pt x="289" y="282" on="0"/>
        <pt x="274" y="284" on="1"/>
        <pt x="256" y="260" on="0"/>
        <pt x="213" y="194" on="0"/>
        <pt x="170" y="119" on="0"/>
        <pt x="129" y="39" on="0"/>
        <pt x="111" y="0" on="1"/>
        <pt x="39" y="0" on="1"/>
        <pt x="55" y="38" on="0"/>
        <pt x="101" y="125" on="0"/>
        <pt x="149" y="207" on="0"/>
        <pt x="192" y="274" on="0"/>
        <pt x="205" y="293" on="1"/>
        <pt x="186" y="298" on="0"/>
        <pt x="135" y="320" on="0"/>
        <pt x="89" y="363" on="0"/>
        <pt x="57" y="431" on="0"/>
        <pt x="57" y="484" on="1"/>
        <pt x="57" y="589" on="0"/>
        <pt x="213" y="699" on="0"/>
        <pt x="350" y="699" on="1"/>
        <pt x="391" y="699" on="0"/>
        <pt x="488" y="690" on="0"/>
        <pt x="524" y="680" on="1"/>
      </contour>
    </TTGlyph>
    <TTGlyph name="afii10050" xMin="90" yMin="0" xMax="464" yMax="825">
      <contour>
        <pt x="400" y="693" on="1"/>
        <pt x="400" y="825" on="1"/>
        <pt x="464" y="825" on="1"/>
        <pt x="464" y="634" on="1"/>
        <pt x="158" y="634" on="1"/>
        <pt x="158" y="0" on="1"/>
        <pt x="90" y="0" on="1"/>
        <pt x="90" y="693" on="1"/>
      </contour>
    </TTGlyph>
    <TTGlyph name="afii10051" xMin="18" yMin="-2" xMax="695" yMax="693">
      <contour>
        <pt x="433" y="374" on="1"/>
        <pt x="409" y="374" on="0"/>
        <pt x="364" y="369" on="0"/>
        <pt x="327" y="363" on="0"/>
        <pt x="301" y="356" on="0"/>
        <pt x="295" y="354" on="1"/>
        <pt x="295" y="0" on="1"/>
        <pt x="227" y="0" on="1"/>
        <pt x="227" y="634" on="1"/>
        <pt x="18" y="634" on="1"/>
        <pt x="18" y="693" on="1"/>
        <pt x="541" y="693" on="1"/>
        <pt x="541" y="634" on="1"/>
        <pt x="295" y="634" on="1"/>
        <pt x="295" y="413" on="1"/>
        <pt x="310" y="418" on="0"/>
        <pt x="388" y="434" on="0"/>
        <pt x="439" y="434" on="1"/>
        <pt x="564" y="434" on="0"/>
        <pt x="695" y="314" on="0"/>
        <pt x="695" y="208" on="1"/>
        <pt x="695" y="167" on="0"/>
        <pt x="672" y="92" on="0"/>
        <pt x="624" y="33" on="0"/>
        <pt x="550" y="-2" on="0"/>
        <pt x="499" y="-2" on="1"/>
        <pt x="491" y="-2" on="0"/>
        <pt x="466" y="0" on="0"/>
        <pt x="456" y="2" on="1"/>
        <pt x="460" y="57" on="1"/>
        <pt x="468" y="56" on="0"/>
        <pt x="481" y="55" on="0"/>
        <pt x="497" y="55" on="1"/>
        <pt x="558" y="55" on="0"/>
        <pt x="624" y="140" on="0"/>
        <pt x="624" y="208" on="1"/>
        <pt x="624" y="293" on="0"/>
        <pt x="518" y="374" on="0"/>
      </contour>
    </TTGlyph>
    <TTGlyph name="afii10052" xMin="90" yMin="0" xMax="464" yMax="929">
      <component glyphName="afii10020" x="0" y="0" flags="0x204"/>
      <component glyphName="acute" x="89" y="156" flags="0x4"/>
    </TTGlyph>
    <TTGlyph name="afii10053" xMin="62" yMin="-15" xMax="581" yMax="708">
      <contour>
        <pt x="378" y="-15" on="1"/>
        <pt x="311" y="-15" on="0"/>
        <pt x="196" y="33" on="0"/>
        <pt x="111" y="125" on="0"/>
        <pt x="62" y="260" on="0"/>
        <pt x="62" y="347" on="1"/>
        <pt x="62" y="434" on="0"/>
        <pt x="115" y="569" on="0"/>
        <pt x="203" y="661" on="0"/>
        <pt x="319" y="708" on="0"/>
        <pt x="382" y="708" on="1"/>
        <pt x="421" y="708" on="0"/>
        <pt x="485" y="698" on="0"/>
        <pt x="533" y="683" on="0"/>
        <pt x="567" y="668" on="0"/>
        <pt x="576" y="662" on="1"/>
        <pt x="554" y="603" on="1"/>
        <pt x="529" y="618" on="0"/>
        <pt x="452" y="647" on="0"/>
        <pt x="395" y="647" on="1"/>
        <pt x="335" y="647" on="0"/>
        <pt x="242" y="609" on="0"/>
        <pt x="177" y="540" on="0"/>
        <pt x="139" y="442" on="0"/>
        <pt x="135" y="383" on="1"/>
        <pt x="449" y="383" on="1"/>
        <pt x="449" y="325" on="1"/>
        <pt x="134" y="325" on="1"/>
        <pt x="137" y="261" on="0"/>
        <pt x="172" y="158" on="0"/>
        <pt x="236" y="85" on="0"/>
        <pt x="326" y="46" on="0"/>
        <pt x="384" y="46" on="1"/>
        <pt x="450" y="46" on="0"/>
        <pt x="539" y="71" on="0"/>
        <pt x="562" y="84" on="1"/>
        <pt x="581" y="26" on="1"/>
        <pt x="574" y="21" on="0"/>
        <pt x="540" y="8" on="0"/>
        <pt x="488" y="-6" on="0"/>
        <pt x="420" y="-15" on="0"/>
      </contour>
    </TTGlyph>
    <TTGlyph name="afii10054" xMin="34" yMin="-15" xMax="481" yMax="708">
      <component glyphName="S" x="0" y="0" flags="0x204"/>
    </TTGlyph>
    <TTGlyph name="afii10055" xMin="90" yMin="0" xMax="158" yMax="693">
      <component glyphName="I" x="0" y="0" flags="0x204"/>
    </TTGlyph>
    <TTGlyph name="afii10056" xMin="-7" yMin="0" xMax="257" yMax="877">
      <component glyphName="I" x="0" y="0" flags="0x204"/>
      <component glyphName="dieresis" x="-63" y="156" flags="0x4"/>
    </TTGlyph>
    <TTGlyph name="afii10057" xMin="8" yMin="-15" xMax="400" yMax="693">
      <component glyphName="J" x="0" y="0" flags="0x204"/>
    </TTGlyph>
    <TTGlyph name="afii10058" xMin="14" yMin="-8" xMax="983" yMax="693">
      <contour>
        <pt x="695" y="375" on="1"/>
        <pt x="662" y="375" on="0"/>
        <pt x="607" y="371" on="0"/>
        <pt x="590" y="369" on="1"/>
        <pt x="590" y="60" on="1"/>
        <pt x="609" y="58" on="0"/>
        <pt x="661" y="53" on="0"/>
        <pt x="696" y="53" on="1"/>
        <pt x="739" y="53" on="0"/>
        <pt x="818" y="67" on="0"/>
        <pt x="877" y="103" on="0"/>
        <pt x="912" y="166" on="0"/>
        <pt x="912" y="215" on="1"/>
        <pt x="912" y="262" on="0"/>
        <pt x="878" y="324" on="0"/>
        <pt x="820" y="360" on="0"/>
        <pt x="741" y="375" on="0"/>
      </contour>
      <contour>
        <pt x="590" y="428" on="1"/>
        <pt x="598" y="429" on="0"/>
        <pt x="624" y="431" on="0"/>
        <pt x="652" y="433" on="0"/>
        <pt x="680" y="434" on="0"/>
        <pt x="691" y="434" on="1"/>
        <pt x="837" y="434" on="0"/>
        <pt x="983" y="324" on="0"/>
        <pt x="983" y="215" on="1"/>
        <pt x="983" y="110" on="0"/>
        <pt x="842" y="-6" on="0"/>
        <pt x="693" y="-6" on="1"/>
        <pt x="654" y="-6" on="0"/>
        <pt x="558" y="3" on="0"/>
        <pt x="522" y="13" on="1"/>
        <pt x="522" y="634" on="1"/>
        <pt x="296" y="634" on="1"/>
        <pt x="296" y="614" on="1"/>
        <pt x="296" y="504" on="0"/>
        <pt x="281" y="300" on="0"/>
        <pt x="253" y="207" on="1"/>
        <pt x="240" y="164" on="0"/>
        <pt x="201" y="88" on="0"/>
        <pt x="145" y="30" on="0"/>
        <pt x="70" y="-6" on="0"/>
        <pt x="21" y="-8" on="1"/>
        <pt x="14" y="50" on="1"/>
        <pt x="48" y="54" on="0"/>
        <pt x="101" y="79" on="0"/>
        <pt x="142" y="121" on="0"/>
        <pt x="173" y="180" on="0"/>
        <pt x="186" y="219" on="1"/>
        <pt x="212" y="300" on="0"/>
        <pt x="229" y="504" on="0"/>
        <pt x="229" y="631" on="1"/>
        <pt x="229" y="693" on="1"/>
        <pt x="590" y="693" on="1"/>
      </contour>
    </TTGlyph>
    <TTGlyph name="afii10059" xMin="90" yMin="-6" xMax="995" yMax="693">
      <contour>
        <pt x="707" y="370" on="1"/>
        <pt x="674" y="370" on="0"/>
        <pt x="619" y="365" on="0"/>
        <pt x="602" y="363" on="1"/>
        <pt x="602" y="60" on="1"/>
        <pt x="621" y="58" on="0"/>
        <pt x="673" y="53" on="0"/>
        <pt x="708" y="53" on="1"/>
        <pt x="751" y="53" on="0"/>
        <pt x="830" y="67" on="0"/>
        <pt x="889" y="103" on="0"/>
        <pt x="924" y="165" on="0"/>
        <pt x="924" y="213" on="1"/>
        <pt x="924" y="259" on="0"/>
        <pt x="890" y="320" on="0"/>
        <pt x="832" y="356" on="0"/>
        <pt x="753" y="370" on="0"/>
      </contour>
      <contour>
        <pt x="602" y="693" on="1"/>
        <pt x="602" y="422" on="1"/>
        <pt x="610" y="423" on="0"/>
        <pt x="636" y="426" on="0"/>
        <pt x="664" y="428" on="0"/>
        <pt x="692" y="429" on="0"/>
        <pt x="703" y="429" on="1"/>
        <pt x="849" y="429" on="0"/>
        <pt x="995" y="320" on="0"/>
        <pt x="995" y="213" on="1"/>
        <pt x="995" y="109" on="0"/>
        <pt x="855" y="-6" on="0"/>
        <pt x="705" y="-6" on="1"/>
        <pt x="666" y="-6" on="0"/>
        <pt x="570" y="3" on="0"/>
        <pt x="534" y="13" on="1"/>
        <pt x="534" y="351" on="1"/>
        <pt x="158" y="351" on="1"/>
        <pt x="158" y="0" on="1"/>
        <pt x="90" y="0" on="1"/>
        <pt x="90" y="693" on="1"/>
        <pt x="158" y="693" on="1"/>
        <pt x="158" y="410" on="1"/>
        <pt x="534" y="410" on="1"/>
        <pt x="534" y="693" on="1"/>
      </contour>
    </TTGlyph>
    <TTGlyph name="afii10060" xMin="18" yMin="0" xMax="661" yMax="693">
      <contour>
        <pt x="439" y="434" on="1"/>
        <pt x="502" y="434" on="0"/>
        <pt x="587" y="403" on="0"/>
        <pt x="639" y="345" on="0"/>
        <pt x="661" y="263" on="0"/>
        <pt x="661" y="212" on="1"/>
        <pt x="661" y="0" on="1"/>
        <pt x="593" y="0" on="1"/>
        <pt x="593" y="211" on="1"/>
        <pt x="593" y="295" on="0"/>
        <pt x="520" y="374" on="0"/>
        <pt x="433" y="374" on="1"/>
        <pt x="409" y="374" on="0"/>
        <pt x="364" y="369" on="0"/>
        <pt x="327" y="363" on="0"/>
        <pt x="301" y="356" on="0"/>
        <pt x="295" y="354" on="1"/>
        <pt x="295" y="0" on="1"/>
        <pt x="227" y="0" on="1"/>
        <pt x="227" y="634" on="1"/>
        <pt x="18" y="634" on="1"/>
        <pt x="18" y="693" on="1"/>
        <pt x="541" y="693" on="1"/>
        <pt x="541" y="634" on="1"/>
        <pt x="295" y="634" on="1"/>
        <pt x="295" y="413" on="1"/>
        <pt x="310" y="418" on="0"/>
        <pt x="388" y="434" on="0"/>
      </contour>
    </TTGlyph>
    <TTGlyph name="afii10061" xMin="90" yMin="0" xMax="589" yMax="929">
      <component glyphName="K" x="0" y="0" flags="0x204"/>
      <component glyphName="acute" x="124" y="156" flags="0x4"/>
    </TTGlyph>
    <TTGlyph name="afii10062" xMin="18" yMin="-7" xMax="541" yMax="894">
      <component glyphName="afii10037" x="0" y="0" flags="0x204"/>
      <component glyphName="kratka" x="100" y="156" flags="0x4"/>
    </TTGlyph>
    <TTGlyph name="afii10065" xMin="48" yMin="-11" xMax="429" yMax="529">
      <component glyphName="a" x="0" y="0" flags="0x204"/>
    </TTGlyph>
    <TTGlyph name="afii10066" xMin="63" yMin="-12" xMax="528" yMax="776">
      <contour>
        <pt x="136" y="439" on="1"/>
        <pt x="152" y="457" on="0"/>
        <pt x="194" y="485" on="0"/>
        <pt x="240" y="503" on="0"/>
        <pt x="285" y="512" on="0"/>
        <pt x="304" y="512" on="1"/>
        <pt x="362" y="512" on="0"/>
        <pt x="447" y="475" on="0"/>
        <pt x="502" y="406" on="0"/>
        <pt x="528" y="310" on="0"/>
        <pt x="528" y="251" on="1"/>
        <pt x="528" y="207" on="0"/>
        <pt x="506" y="113" on="0"/>
        <pt x="453" y="37" on="0"/>
        <pt x="364" y="-12" on="0"/>
        <pt x="297" y="-12" on="1"/>
        <pt x="225" y="-12" on="0"/>
        <pt x="133" y="45" on="0"/>
        <pt x="82" y="138" on="0"/>
        <pt x="63" y="255" on="0"/>
        <pt x="63" y="315" on="1"/>
        <pt x="63" y="397" on="0"/>
        <pt x="83" y="547" on="0"/>
        <pt x="146" y="665" on="0"/>
        <pt x="265" y="744" on="0"/>
        <pt x="365" y="756" on="1"/>
        <pt x="395" y="759" on="0"/>
        <pt x="435" y="765" on="0"/>
        <pt x="462" y="769" on="0"/>
        <pt x="480" y="774" on="0"/>
        <pt x="488" y="776" on="1"/>
        <pt x="496" y="717" on="1"/>
        <pt x="486" y="713" on="0"/>
        <pt x="438" y="705" on="0"/>
        <pt x="382" y="699" on="1"/>
        <pt x="322" y="692" on="0"/>
        <pt x="234" y="657" on="0"/>
        <pt x="175" y="595" on="0"/>
        <pt x="142" y="503" on="0"/>
      </contour>
      <contour>
        <pt x="132" y="366" on="1"/>
        <pt x="131" y="358" on="0"/>
        <pt x="131" y="322" on="0"/>
        <pt x="131" y="307" on="1"/>
        <pt x="131" y="259" on="0"/>
        <pt x="144" y="165" on="0"/>
        <pt x="181" y="92" on="0"/>
        <pt x="246" y="47" on="0"/>
        <pt x="297" y="47" on="1"/>
        <pt x="341" y="47" on="0"/>
        <pt x="402" y="80" on="0"/>
        <pt x="441" y="137" on="0"/>
        <pt x="459" y="211" on="0"/>
        <pt x="459" y="252" on="1"/>
        <pt x="459" y="291" on="0"/>
        <pt x="445" y="364" on="0"/>
        <pt x="408" y="419" on="0"/>
        <pt x="342" y="453" on="0"/>
        <pt x="290" y="453" on="1"/>
        <pt x="266" y="453" on="0"/>
        <pt x="217" y="438" on="0"/>
        <pt x="175" y="413" on="0"/>
        <pt x="141" y="382" on="0"/>
      </contour>
    </TTGlyph>
    <TTGlyph name="afii10066.locl" xMin="55" yMin="-13" xMax="527" yMax="776">
      <contour>
        <pt x="203" y="642" on="1"/>
        <pt x="203" y="626" on="0"/>
        <pt x="211" y="602" on="0"/>
        <pt x="236" y="578" on="0"/>
        <pt x="281" y="549" on="0"/>
        <pt x="318" y="529" on="1"/>
        <pt x="349" y="512" on="0"/>
        <pt x="423" y="469" on="0"/>
        <pt x="485" y="404" on="0"/>
        <pt x="527" y="309" on="0"/>
        <pt x="527" y="240" on="1"/>
        <pt x="527" y="201" on="0"/>
        <pt x="503" y="113" on="0"/>
        <pt x="447" y="37" on="0"/>
        <pt x="356" y="-13" on="0"/>
        <pt x="290" y="-13" on="1"/>
        <pt x="228" y="-13" on="0"/>
        <pt x="139" y="31" on="0"/>
        <pt x="82" y="103" on="0"/>
        <pt x="55" y="196" on="0"/>
        <pt x="55" y="245" on="1"/>
        <pt x="55" y="292" on="0"/>
        <pt x="83" y="373" on="0"/>
        <pt x="131" y="439" on="0"/>
        <pt x="195" y="490" on="0"/>
        <pt x="231" y="508" on="1"/>
        <pt x="183" y="534" on="0"/>
        <pt x="137" y="591" on="0"/>
        <pt x="137" y="635" on="1"/>
        <pt x="137" y="672" on="0"/>
        <pt x="165" y="724" on="0"/>
        <pt x="214" y="756" on="0"/>
        <pt x="280" y="770" on="0"/>
        <pt x="318" y="770" on="1"/>
        <pt x="354" y="770" on="0"/>
        <pt x="400" y="770" on="0"/>
        <pt x="431" y="772" on="0"/>
        <pt x="451" y="774" on="0"/>
        <pt x="460" y="776" on="1"/>
        <pt x="464" y="720" on="1"/>
        <pt x="449" y="717" on="0"/>
        <pt x="393" y="715" on="0"/>
        <pt x="337" y="715" on="1"/>
        <pt x="271" y="715" on="0"/>
        <pt x="203" y="681" on="0"/>
      </contour>
      <contour>
        <pt x="285" y="479" on="1"/>
        <pt x="251" y="463" on="0"/>
        <pt x="192" y="417" on="0"/>
        <pt x="149" y="357" on="0"/>
        <pt x="124" y="285" on="0"/>
        <pt x="124" y="243" on="1"/>
        <pt x="124" y="207" on="0"/>
        <pt x="142" y="136" on="0"/>
        <pt x="183" y="81" on="0"/>
        <pt x="246" y="46" on="0"/>
        <pt x="291" y="46" on="1"/>
        <pt x="332" y="46" on="0"/>
        <pt x="394" y="79" on="0"/>
        <pt x="436" y="135" on="0"/>
        <pt x="458" y="207" on="0"/>
        <pt x="458" y="246" on="1"/>
        <pt x="458" y="302" on="0"/>
        <pt x="423" y="379" on="0"/>
        <pt x="370" y="432" on="0"/>
        <pt x="310" y="466" on="0"/>
      </contour>
    </TTGlyph>
    <TTGlyph name="afii10067" xMin="86" yMin="-10" xMax="493" yMax="528">
      <contour>
        <pt x="253" y="528" on="1"/>
        <pt x="283" y="528" on="0"/>
        <pt x="358" y="521" on="0"/>
        <pt x="424" y="494" on="0"/>
        <pt x="469" y="437" on="0"/>
        <pt x="469" y="388" on="1"/>
        <pt x="469" y="350" on="0"/>
        <pt x="425" y="291" on="0"/>
        <pt x="387" y="277" on="1"/>
        <pt x="443" y="262" on="0"/>
        <pt x="493" y="196" on="0"/>
        <pt x="493" y="148" on="1"/>
        <pt x="493" y="96" on="0"/>
        <pt x="451" y="33" on="0"/>
        <pt x="382" y="0" on="0"/>
        <pt x="295" y="-10" on="0"/>
        <pt x="250" y="-10" on="1"/>
        <pt x="196" y="-10" on="0"/>
        <pt x="115" y="4" on="0"/>
        <pt x="86" y="12" on="1"/>
        <pt x="86" y="506" on="1"/>
        <pt x="111" y="514" on="0"/>
        <pt x="193" y="528" on="0"/>
      </contour>
      <contour>
        <pt x="151" y="300" on="1"/>
        <pt x="269" y="300" on="1"/>
        <pt x="329" y="300" on="0"/>
        <pt x="403" y="340" on="0"/>
        <pt x="403" y="387" on="1"/>
        <pt x="403" y="417" on="0"/>
        <pt x="377" y="451" on="0"/>
        <pt x="335" y="468" on="0"/>
        <pt x="281" y="473" on="0"/>
        <pt x="254" y="473" on="1"/>
        <pt x="221" y="473" on="0"/>
        <pt x="161" y="466" on="0"/>
        <pt x="151" y="463" on="1"/>
      </contour>
      <contour>
        <pt x="151" y="246" on="1"/>
        <pt x="151" y="56" on="1"/>
        <pt x="156" y="54" on="0"/>
        <pt x="179" y="51" on="0"/>
        <pt x="208" y="48" on="0"/>
        <pt x="241" y="46" on="0"/>
        <pt x="256" y="46" on="1"/>
        <pt x="290" y="46" on="0"/>
        <pt x="352" y="54" on="0"/>
        <pt x="398" y="77" on="0"/>
        <pt x="426" y="116" on="0"/>
        <pt x="426" y="148" on="1"/>
        <pt x="426" y="176" on="0"/>
        <pt x="403" y="214" on="0"/>
        <pt x="362" y="236" on="0"/>
        <pt x="307" y="246" on="0"/>
        <pt x="275" y="246" on="1"/>
      </contour>
    </TTGlyph>
    <TTGlyph name="afii10068" xMin="86" yMin="0" xMax="382" yMax="517">
      <contour>
        <pt x="382" y="462" on="1"/>
        <pt x="151" y="462" on="1"/>
        <pt x="151" y="0" on="1"/>
        <pt x="86" y="0" on="1"/>
        <pt x="86" y="517" on="1"/>
        <pt x="382" y="517" on="1"/>
      </contour>
    </TTGlyph>
    <TTGlyph name="afii10069" xMin="15" yMin="-143" xMax="543" yMax="517">
      <contour>
        <pt x="484" y="55" on="1"/>
        <pt x="543" y="55" on="1"/>
        <pt x="543" y="-143" on="1"/>
        <pt x="480" y="-143" on="1"/>
        <pt x="480" y="0" on="1"/>
        <pt x="78" y="0" on="1"/>
        <pt x="78" y="-143" on="1"/>
        <pt x="15" y="-143" on="1"/>
        <pt x="15" y="55" on="1"/>
        <pt x="68" y="55" on="1"/>
        <pt x="101" y="107" on="0"/>
        <pt x="140" y="203" on="0"/>
        <pt x="161" y="303" on="0"/>
        <pt x="168" y="414" on="0"/>
        <pt x="168" y="480" on="1"/>
        <pt x="168" y="517" on="1"/>
        <pt x="484" y="517" on="1"/>
      </contour>
      <contour>
        <pt x="229" y="462" on="1"/>
        <pt x="229" y="408" on="0"/>
        <pt x="222" y="304" on="0"/>
        <pt x="202" y="202" on="0"/>
        <pt x="166" y="103" on="0"/>
        <pt x="137" y="55" on="1"/>
        <pt x="419" y="55" on="1"/>
        <pt x="419" y="462" on="1"/>
      </contour>
    </TTGlyph>
    <TTGlyph name="afii10070" xMin="55" yMin="-11" xMax="489" yMax="529">
      <component glyphName="e" x="0" y="0" flags="0x204"/>
    </TTGlyph>
    <TTGlyph name="afii10071" xMin="55" yMin="-11" xMax="489" yMax="721">
      <component glyphName="e" x="0" y="0" flags="0x204"/>
      <component glyphName="dieresis" x="92" y="0" flags="0x4"/>
    </TTGlyph>
    <TTGlyph name="afii10072" xMin="18" yMin="0" xMax="709" yMax="517">
      <contour>
        <pt x="679" y="517" on="1"/>
        <pt x="657" y="491" on="0"/>
        <pt x="602" y="427" on="0"/>
        <pt x="545" y="363" on="0"/>
        <pt x="490" y="301" on="0"/>
        <pt x="467" y="276" on="1"/>
        <pt x="501" y="251" on="0"/>
        <pt x="571" y="184" on="0"/>
        <pt x="635" y="110" on="0"/>
        <pt x="689" y="34" on="0"/>
        <pt x="709" y="0" on="1"/>
        <pt x="636" y="0" on="1"/>
        <pt x="613" y="36" on="0"/>
        <pt x="551" y="115" on="0"/>
        <pt x="485" y="186" on="0"/>
        <pt x="420" y="243" on="0"/>
        <pt x="395" y="256" on="1"/>
        <pt x="395" y="0" on="1"/>
        <pt x="331" y="0" on="1"/>
        <pt x="331" y="256" on="1"/>
        <pt x="306" y="243" on="0"/>
        <pt x="241" y="186" on="0"/>
        <pt x="175" y="115" on="0"/>
        <pt x="112" y="36" on="0"/>
        <pt x="90" y="0" on="1"/>
        <pt x="18" y="0" on="1"/>
        <pt x="37" y="34" on="0"/>
        <pt x="92" y="110" on="0"/>
        <pt x="156" y="184" on="0"/>
        <pt x="225" y="250" on="0"/>
        <pt x="259" y="275" on="1"/>
        <pt x="236" y="300" on="0"/>
        <pt x="181" y="362" on="0"/>
        <pt x="124" y="427" on="0"/>
        <pt x="68" y="490" on="0"/>
        <pt x="46" y="517" on="1"/>
        <pt x="121" y="517" on="1"/>
        <pt x="162" y="467" on="0"/>
        <pt x="268" y="345" on="0"/>
        <pt x="331" y="276" on="1"/>
        <pt x="331" y="517" on="1"/>
        <pt x="395" y="517" on="1"/>
        <pt x="395" y="276" on="1"/>
        <pt x="458" y="345" on="0"/>
        <pt x="564" y="467" on="0"/>
        <pt x="605" y="517" on="1"/>
      </contour>
    </TTGlyph>
    <TTGlyph name="afii10073" xMin="38" yMin="-12" xMax="423" yMax="528">
      <contour>
        <pt x="206" y="47" on="1"/>
        <pt x="276" y="47" on="0"/>
        <pt x="356" y="94" on="0"/>
        <pt x="356" y="141" on="1"/>
        <pt x="356" y="175" on="0"/>
        <pt x="326" y="215" on="0"/>
        <pt x="281" y="237" on="0"/>
        <pt x="230" y="244" on="0"/>
        <pt x="209" y="244" on="1"/>
        <pt x="137" y="244" on="1"/>
        <pt x="137" y="299" on="1"/>
        <pt x="204" y="299" on="1"/>
        <pt x="222" y="299" on="0"/>
        <pt x="269" y="305" on="0"/>
        <pt x="309" y="323" on="0"/>
        <pt x="337" y="356" on="0"/>
        <pt x="337" y="383" on="1"/>
        <pt x="337" y="409" on="0"/>
        <pt x="314" y="443" on="0"/>
        <pt x="276" y="463" on="0"/>
        <pt x="227" y="471" on="0"/>
        <pt x="202" y="471" on="1"/>
        <pt x="145" y="471" on="0"/>
        <pt x="79" y="448" on="0"/>
        <pt x="67" y="442" on="1"/>
        <pt x="52" y="500" on="1"/>
        <pt x="66" y="507" on="0"/>
        <pt x="144" y="528" on="0"/>
        <pt x="202" y="528" on="1"/>
        <pt x="301" y="528" on="0"/>
        <pt x="403" y="456" on="0"/>
        <pt x="403" y="385" on="1"/>
        <pt x="403" y="341" on="0"/>
        <pt x="351" y="286" on="0"/>
        <pt x="316" y="275" on="1"/>
        <pt x="365" y="261" on="0"/>
        <pt x="423" y="195" on="0"/>
        <pt x="423" y="141" on="1"/>
        <pt x="423" y="64" on="0"/>
        <pt x="313" y="-12" on="0"/>
        <pt x="207" y="-12" on="1"/>
        <pt x="136" y="-12" on="0"/>
        <pt x="50" y="12" on="0"/>
        <pt x="38" y="18" on="1"/>
        <pt x="55" y="77" on="1"/>
        <pt x="58" y="75" on="0"/>
        <pt x="79" y="66" on="0"/>
        <pt x="117" y="55" on="0"/>
        <pt x="171" y="47" on="0"/>
      </contour>
    </TTGlyph>
    <TTGlyph name="afii10074" xMin="86" yMin="0" xMax="502" yMax="517">
      <contour>
        <pt x="438" y="434" on="1"/>
        <pt x="408" y="398" on="0"/>
        <pt x="329" y="288" on="0"/>
        <pt x="248" y="166" on="0"/>
        <pt x="174" y="46" on="0"/>
        <pt x="147" y="0" on="1"/>
        <pt x="86" y="0" on="1"/>
        <pt x="86" y="517" on="1"/>
        <pt x="150" y="517" on="1"/>
        <pt x="150" y="103" on="1"/>
        <pt x="174" y="146" on="0"/>
        <pt x="245" y="259" on="0"/>
        <pt x="325" y="374" on="0"/>
        <pt x="406" y="480" on="0"/>
        <pt x="441" y="517" on="1"/>
        <pt x="502" y="517" on="1"/>
        <pt x="502" y="0" on="1"/>
        <pt x="438" y="0" on="1"/>
      </contour>
    </TTGlyph>
    <TTGlyph name="afii10075" xMin="86" yMin="0" xMax="502" yMax="738">
      <component glyphName="afii10074" x="0" y="0" flags="0x204"/>
      <component glyphName="kratka" x="106" y="0" flags="0x4"/>
    </TTGlyph>
    <TTGlyph name="afii10076" xMin="86" yMin="0" xMax="488" yMax="517">
      <contour>
        <pt x="86" y="0" on="1"/>
        <pt x="86" y="517" on="1"/>
        <pt x="151" y="517" on="1"/>
        <pt x="151" y="278" on="1"/>
        <pt x="179" y="305" on="0"/>
        <pt x="248" y="372" on="0"/>
        <pt x="314" y="439" on="0"/>
        <pt x="371" y="498" on="0"/>
        <pt x="388" y="517" on="1"/>
        <pt x="466" y="517" on="1"/>
        <pt x="443" y="491" on="0"/>
        <pt x="379" y="426" on="0"/>
        <pt x="312" y="360" on="0"/>
        <pt x="249" y="298" on="0"/>
        <pt x="225" y="276" on="1"/>
        <pt x="259" y="254" on="0"/>
        <pt x="335" y="189" on="0"/>
        <pt x="406" y="114" on="0"/>
        <pt x="467" y="35" on="0"/>
        <pt x="488" y="0" on="1"/>
        <pt x="411" y="0" on="1"/>
        <pt x="387" y="37" on="0"/>
        <pt x="322" y="113" on="0"/>
        <pt x="251" y="182" on="0"/>
        <pt x="180" y="238" on="0"/>
        <pt x="151" y="255" on="1"/>
        <pt x="151" y="0" on="1"/>
      </contour>
    </TTGlyph>
    <TTGlyph name="afii10077" xMin="14" yMin="-9" xMax="494" yMax="517">
      <contour>
        <pt x="239" y="462" on="1"/>
        <pt x="239" y="441" on="1"/>
        <pt x="239" y="411" on="0"/>
        <pt x="237" y="340" on="0"/>
        <pt x="231" y="266" on="0"/>
        <pt x="218" y="193" on="0"/>
        <pt x="208" y="161" on="1"/>
        <pt x="197" y="128" on="0"/>
        <pt x="164" y="69" on="0"/>
        <pt x="119" y="24" on="0"/>
        <pt x="60" y="-5" on="0"/>
        <pt x="23" y="-9" on="1"/>
        <pt x="14" y="45" on="1"/>
        <pt x="64" y="56" on="0"/>
        <pt x="125" y="116" on="0"/>
        <pt x="145" y="171" on="1"/>
        <pt x="165" y="226" on="0"/>
        <pt x="176" y="369" on="0"/>
        <pt x="176" y="454" on="1"/>
        <pt x="176" y="517" on="1"/>
        <pt x="494" y="517" on="1"/>
        <pt x="494" y="0" on="1"/>
        <pt x="429" y="0" on="1"/>
        <pt x="429" y="462" on="1"/>
      </contour>
    </TTGlyph>
    <TTGlyph name="afii10078" xMin="74" yMin="0" xMax="649" yMax="517">
      <contour>
        <pt x="331" y="72" on="1"/>
        <pt x="325" y="87" on="0"/>
        <pt x="301" y="140" on="0"/>
        <pt x="272" y="205" on="0"/>
        <pt x="238" y="278" on="0"/>
        <pt x="205" y="346" on="0"/>
        <pt x="175" y="406" on="0"/>
        <pt x="164" y="425" on="1"/>
        <pt x="151" y="310" on="0"/>
        <pt x="139" y="103" on="0"/>
        <pt x="135" y="0" on="1"/>
        <pt x="74" y="0" on="1"/>
        <pt x="78" y="129" on="0"/>
        <pt x="97" y="391" on="0"/>
        <pt x="112" y="517" on="1"/>
        <pt x="179" y="517" on="1"/>
        <pt x="192" y="496" on="0"/>
        <pt x="233" y="418" on="0"/>
        <pt x="282" y="319" on="0"/>
        <pt x="335" y="204" on="0"/>
        <pt x="362" y="145" on="1"/>
        <pt x="389" y="204" on="0"/>
        <pt x="442" y="319" on="0"/>
        <pt x="491" y="418" on="0"/>
        <pt x="531" y="496" on="0"/>
        <pt x="545" y="517" on="1"/>
        <pt x="611" y="517" on="1"/>
        <pt x="626" y="391" on="0"/>
        <pt x="645" y="129" on="0"/>
        <pt x="649" y="0" on="1"/>
        <pt x="587" y="0" on="1"/>
        <pt x="583" y="103" on="0"/>
        <pt x="571" y="310" on="0"/>
        <pt x="558" y="425" on="1"/>
        <pt x="547" y="405" on="0"/>
        <pt x="517" y="346" on="0"/>
        <pt x="484" y="278" on="0"/>
        <pt x="450" y="205" on="0"/>
        <pt x="421" y="140" on="0"/>
        <pt x="397" y="87" on="0"/>
        <pt x="391" y="72" on="1"/>
      </contour>
    </TTGlyph>
    <TTGlyph name="afii10079" xMin="86" yMin="0" xMax="497" yMax="517">
      <contour>
        <pt x="497" y="0" on="1"/>
        <pt x="432" y="0" on="1"/>
        <pt x="432" y="241" on="1"/>
        <pt x="151" y="241" on="1"/>
        <pt x="151" y="0" on="1"/>
        <pt x="86" y="0" on="1"/>
        <pt x="86" y="517" on="1"/>
        <pt x="151" y="517" on="1"/>
        <pt x="151" y="296" on="1"/>
        <pt x="432" y="296" on="1"/>
        <pt x="432" y="517" on="1"/>
        <pt x="497" y="517" on="1"/>
      </contour>
    </TTGlyph>
    <TTGlyph name="afii10080" xMin="55" yMin="-12" xMax="527" yMax="529">
      <component glyphName="o" x="0" y="0" flags="0x204"/>
    </TTGlyph>
    <TTGlyph name="afii10081" xMin="86" yMin="0" xMax="485" yMax="517">
      <contour>
        <pt x="485" y="0" on="1"/>
        <pt x="420" y="0" on="1"/>
        <pt x="420" y="462" on="1"/>
        <pt x="151" y="462" on="1"/>
        <pt x="151" y="0" on="1"/>
        <pt x="86" y="0" on="1"/>
        <pt x="86" y="517" on="1"/>
        <pt x="485" y="517" on="1"/>
      </contour>
    </TTGlyph>
    <TTGlyph name="afii10082" xMin="86" yMin="-185" xMax="528" yMax="527">
      <component glyphName="p" x="0" y="0" flags="0x204"/>
    </TTGlyph>
    <TTGlyph name="afii10083" xMin="55" yMin="-11" xMax="437" yMax="529">
      <component glyphName="c" x="0" y="0" flags="0x204"/>
    </TTGlyph>
    <TTGlyph name="afii10084" xMin="15" yMin="0" xMax="419" yMax="517">
      <contour>
        <pt x="419" y="517" on="1"/>
        <pt x="419" y="462" on="1"/>
        <pt x="249" y="462" on="1"/>
        <pt x="249" y="0" on="1"/>
        <pt x="184" y="0" on="1"/>
        <pt x="184" y="462" on="1"/>
        <pt x="15" y="462" on="1"/>
        <pt x="15" y="517" on="1"/>
      </contour>
    </TTGlyph>
    <TTGlyph name="afii10085" xMin="1" yMin="-188" xMax="451" yMax="517">
      <component glyphName="y" x="0" y="0" flags="0x204"/>
    </TTGlyph>
    <TTGlyph name="afii10086" xMin="54" yMin="-185" xMax="700" yMax="776">
      <contour>
        <pt x="409" y="520" on="1"/>
        <pt x="461" y="520" on="0"/>
        <pt x="565" y="489" on="0"/>
        <pt x="648" y="425" on="0"/>
        <pt x="700" y="326" on="0"/>
        <pt x="700" y="258" on="1"/>
        <pt x="700" y="190" on="0"/>
        <pt x="648" y="91" on="0"/>
        <pt x="565" y="27" on="0"/>
        <pt x="461" y="-4" on="0"/>
        <pt x="409" y="-4" on="1"/>
        <pt x="409" y="-185" on="1"/>
        <pt x="345" y="-185" on="1"/>
        <pt x="345" y="-4" on="1"/>
        <pt x="293" y="-4" on="0"/>
        <pt x="189" y="27" on="0"/>
        <pt x="106" y="91" on="0"/>
        <pt x="54" y="190" on="0"/>
        <pt x="54" y="258" on="1"/>
        <pt x="54" y="326" on="0"/>
        <pt x="106" y="425" on="0"/>
        <pt x="189" y="489" on="0"/>
        <pt x="293" y="520" on="0"/>
        <pt x="345" y="520" on="1"/>
        <pt x="345" y="764" on="1"/>
        <pt x="409" y="776" on="1"/>
      </contour>
      <contour>
        <pt x="345" y="465" on="1"/>
        <pt x="298" y="465" on="0"/>
        <pt x="216" y="436" on="0"/>
        <pt x="156" y="383" on="0"/>
        <pt x="122" y="306" on="0"/>
        <pt x="122" y="258" on="1"/>
        <pt x="122" y="210" on="0"/>
        <pt x="156" y="133" on="0"/>
        <pt x="216" y="80" on="0"/>
        <pt x="298" y="51" on="0"/>
        <pt x="345" y="51" on="1"/>
      </contour>
      <contour>
        <pt x="409" y="51" on="1"/>
        <pt x="456" y="51" on="0"/>
        <pt x="538" y="80" on="0"/>
        <pt x="598" y="133" on="0"/>
        <pt x="632" y="210" on="0"/>
        <pt x="632" y="258" on="1"/>
        <pt x="632" y="306" on="0"/>
        <pt x="598" y="383" on="0"/>
        <pt x="538" y="436" on="0"/>
        <pt x="456" y="465" on="0"/>
        <pt x="409" y="465" on="1"/>
      </contour>
    </TTGlyph>
    <TTGlyph name="afii10087" xMin="28" yMin="0" xMax="471" yMax="517">
      <component glyphName="x" x="0" y="0" flags="0x204"/>
    </TTGlyph>
    <TTGlyph name="afii10088" xMin="86" yMin="-143" xMax="544" yMax="517">
      <contour>
        <pt x="485" y="517" on="1"/>
        <pt x="485" y="55" on="1"/>
        <pt x="544" y="55" on="1"/>
        <pt x="544" y="-143" on="1"/>
        <pt x="481" y="-143" on="1"/>
        <pt x="481" y="0" on="1"/>
        <pt x="86" y="0" on="1"/>
        <pt x="86" y="517" on="1"/>
        <pt x="151" y="517" on="1"/>
        <pt x="151" y="55" on="1"/>
        <pt x="420" y="55" on="1"/>
        <pt x="420" y="517" on="1"/>
      </contour>
    </TTGlyph>
    <TTGlyph name="afii10089" xMin="48" yMin="0" xMax="432" yMax="517">
      <contour>
        <pt x="48" y="517" on="1"/>
        <pt x="113" y="517" on="1"/>
        <pt x="113" y="377" on="1"/>
        <pt x="113" y="305" on="0"/>
        <pt x="178" y="251" on="0"/>
        <pt x="239" y="251" on="1"/>
        <pt x="290" y="251" on="0"/>
        <pt x="347" y="261" on="0"/>
        <pt x="367" y="268" on="1"/>
        <pt x="367" y="517" on="1"/>
        <pt x="432" y="517" on="1"/>
        <pt x="432" y="0" on="1"/>
        <pt x="367" y="0" on="1"/>
        <pt x="367" y="213" on="1"/>
        <pt x="360" y="211" on="0"/>
        <pt x="333" y="204" on="0"/>
        <pt x="297" y="198" on="0"/>
        <pt x="256" y="193" on="0"/>
        <pt x="235" y="193" on="1"/>
        <pt x="192" y="193" on="0"/>
        <pt x="123" y="211" on="0"/>
        <pt x="74" y="253" on="0"/>
        <pt x="48" y="322" on="0"/>
        <pt x="48" y="373" on="1"/>
      </contour>
    </TTGlyph>
    <TTGlyph name="afii10090" xMin="86" yMin="0" xMax="719" yMax="517">
      <contour>
        <pt x="719" y="0" on="1"/>
        <pt x="86" y="0" on="1"/>
        <pt x="86" y="517" on="1"/>
        <pt x="151" y="517" on="1"/>
        <pt x="151" y="55" on="1"/>
        <pt x="370" y="55" on="1"/>
        <pt x="370" y="517" on="1"/>
        <pt x="435" y="517" on="1"/>
        <pt x="435" y="55" on="1"/>
        <pt x="654" y="55" on="1"/>
        <pt x="654" y="517" on="1"/>
        <pt x="719" y="517" on="1"/>
      </contour>
    </TTGlyph>
    <TTGlyph name="afii10091" xMin="86" yMin="-143" xMax="778" yMax="517">
      <contour>
        <pt x="715" y="0" on="1"/>
        <pt x="86" y="0" on="1"/>
        <pt x="86" y="517" on="1"/>
        <pt x="151" y="517" on="1"/>
        <pt x="151" y="55" on="1"/>
        <pt x="370" y="55" on="1"/>
        <pt x="370" y="517" on="1"/>
        <pt x="435" y="517" on="1"/>
        <pt x="435" y="55" on="1"/>
        <pt x="654" y="55" on="1"/>
        <pt x="654" y="517" on="1"/>
        <pt x="719" y="517" on="1"/>
        <pt x="719" y="55" on="1"/>
        <pt x="778" y="55" on="1"/>
        <pt x="778" y="-143" on="1"/>
        <pt x="715" y="-143" on="1"/>
      </contour>
    </TTGlyph>
    <TTGlyph name="afii10092" xMin="16" yMin="-11" xMax="550" yMax="517">
      <contour>
        <pt x="218" y="517" on="1"/>
        <pt x="218" y="310" on="1"/>
        <pt x="236" y="315" on="0"/>
        <pt x="307" y="326" on="0"/>
        <pt x="345" y="326" on="1"/>
        <pt x="387" y="326" on="0"/>
        <pt x="461" y="308" on="0"/>
        <pt x="517" y="268" on="0"/>
        <pt x="550" y="204" on="0"/>
        <pt x="550" y="158" on="1"/>
        <pt x="550" y="112" on="0"/>
        <pt x="517" y="48" on="0"/>
        <pt x="460" y="7" on="0"/>
        <pt x="381" y="-11" on="0"/>
        <pt x="336" y="-11" on="1"/>
        <pt x="309" y="-11" on="0"/>
        <pt x="254" y="-7" on="0"/>
        <pt x="206" y="-1" on="0"/>
        <pt x="166" y="7" on="0"/>
        <pt x="153" y="12" on="1"/>
        <pt x="153" y="462" on="1"/>
        <pt x="16" y="462" on="1"/>
        <pt x="16" y="517" on="1"/>
      </contour>
      <contour>
        <pt x="336" y="47" on="1"/>
        <pt x="403" y="47" on="0"/>
        <pt x="483" y="98" on="0"/>
        <pt x="483" y="158" on="1"/>
        <pt x="483" y="186" on="0"/>
        <pt x="461" y="228" on="0"/>
        <pt x="424" y="255" on="0"/>
        <pt x="373" y="268" on="0"/>
        <pt x="343" y="268" on="1"/>
        <pt x="310" y="268" on="0"/>
        <pt x="244" y="262" on="0"/>
        <pt x="218" y="253" on="1"/>
        <pt x="218" y="57" on="1"/>
        <pt x="231" y="54" on="0"/>
        <pt x="297" y="47" on="0"/>
      </contour>
    </TTGlyph>
    <TTGlyph name="afii10093" xMin="86" yMin="-11" xMax="648" yMax="517">
      <contour>
        <pt x="86" y="517" on="1"/>
        <pt x="151" y="517" on="1"/>
        <pt x="151" y="310" on="1"/>
        <pt x="169" y="315" on="0"/>
        <pt x="239" y="326" on="0"/>
        <pt x="274" y="326" on="1"/>
        <pt x="313" y="326" on="0"/>
        <pt x="386" y="308" on="0"/>
        <pt x="441" y="268" on="0"/>
        <pt x="474" y="204" on="0"/>
        <pt x="474" y="158" on="1"/>
        <pt x="474" y="112" on="0"/>
        <pt x="441" y="48" on="0"/>
        <pt x="385" y="7" on="0"/>
        <pt x="308" y="-11" on="0"/>
        <pt x="265" y="-11" on="1"/>
        <pt x="239" y="-11" on="0"/>
        <pt x="186" y="-7" on="0"/>
        <pt x="139" y="-1" on="0"/>
        <pt x="99" y="7" on="0"/>
        <pt x="86" y="12" on="1"/>
      </contour>
      <contour>
        <pt x="265" y="47" on="1"/>
        <pt x="328" y="47" on="0"/>
        <pt x="407" y="99" on="0"/>
        <pt x="407" y="158" on="1"/>
        <pt x="407" y="186" on="0"/>
        <pt x="385" y="228" on="0"/>
        <pt x="348" y="255" on="0"/>
        <pt x="299" y="268" on="0"/>
        <pt x="272" y="268" on="1"/>
        <pt x="241" y="268" on="0"/>
        <pt x="177" y="262" on="0"/>
        <pt x="151" y="253" on="1"/>
        <pt x="151" y="57" on="1"/>
        <pt x="164" y="54" on="0"/>
        <pt x="228" y="47" on="0"/>
      </contour>
      <contour>
        <pt x="648" y="0" on="1"/>
        <pt x="583" y="0" on="1"/>
        <pt x="583" y="517" on="1"/>
        <pt x="648" y="517" on="1"/>
      </contour>
    </TTGlyph>
    <TTGlyph name="afii10094" xMin="86" yMin="-11" xMax="483" yMax="517">
      <contour>
        <pt x="86" y="517" on="1"/>
        <pt x="151" y="517" on="1"/>
        <pt x="151" y="310" on="1"/>
        <pt x="169" y="315" on="0"/>
        <pt x="240" y="326" on="0"/>
        <pt x="278" y="326" on="1"/>
        <pt x="320" y="326" on="0"/>
        <pt x="394" y="308" on="0"/>
        <pt x="450" y="268" on="0"/>
        <pt x="483" y="204" on="0"/>
        <pt x="483" y="158" on="1"/>
        <pt x="483" y="112" on="0"/>
        <pt x="450" y="48" on="0"/>
        <pt x="393" y="7" on="0"/>
        <pt x="314" y="-11" on="0"/>
        <pt x="269" y="-11" on="1"/>
        <pt x="242" y="-11" on="0"/>
        <pt x="187" y="-7" on="0"/>
        <pt x="139" y="-1" on="0"/>
        <pt x="99" y="7" on="0"/>
        <pt x="86" y="12" on="1"/>
      </contour>
      <contour>
        <pt x="269" y="47" on="1"/>
        <pt x="336" y="47" on="0"/>
        <pt x="416" y="98" on="0"/>
        <pt x="416" y="158" on="1"/>
        <pt x="416" y="186" on="0"/>
        <pt x="394" y="228" on="0"/>
        <pt x="357" y="255" on="0"/>
        <pt x="306" y="268" on="0"/>
        <pt x="276" y="268" on="1"/>
        <pt x="243" y="268" on="0"/>
        <pt x="177" y="262" on="0"/>
        <pt x="151" y="253" on="1"/>
        <pt x="151" y="57" on="1"/>
        <pt x="164" y="54" on="0"/>
        <pt x="230" y="47" on="0"/>
      </contour>
    </TTGlyph>
    <TTGlyph name="afii10095" xMin="29" yMin="-11" xMax="422" yMax="529">
      <contour>
        <pt x="135" y="240" on="1"/>
        <pt x="135" y="295" on="1"/>
        <pt x="352" y="295" on="1"/>
        <pt x="348" y="332" on="0"/>
        <pt x="324" y="397" on="0"/>
        <pt x="281" y="443" on="0"/>
        <pt x="218" y="470" on="0"/>
        <pt x="174" y="470" on="1"/>
        <pt x="127" y="470" on="0"/>
        <pt x="73" y="453" on="0"/>
        <pt x="62" y="446" on="1"/>
        <pt x="46" y="501" on="1"/>
        <pt x="52" y="506" on="0"/>
        <pt x="80" y="516" on="0"/>
        <pt x="116" y="524" on="0"/>
        <pt x="157" y="529" on="0"/>
        <pt x="176" y="529" on="1"/>
        <pt x="241" y="529" on="0"/>
        <pt x="334" y="484" on="0"/>
        <pt x="394" y="410" on="0"/>
        <pt x="422" y="312" on="0"/>
        <pt x="422" y="260" on="1"/>
        <pt x="422" y="204" on="0"/>
        <pt x="394" y="105" on="0"/>
        <pt x="333" y="32" on="0"/>
        <pt x="238" y="-11" on="0"/>
        <pt x="171" y="-11" on="1"/>
        <pt x="124" y="-11" on="0"/>
        <pt x="47" y="8" on="0"/>
        <pt x="29" y="18" on="1"/>
        <pt x="43" y="76" on="1"/>
        <pt x="55" y="68" on="0"/>
        <pt x="122" y="48" on="0"/>
        <pt x="167" y="48" on="1"/>
        <pt x="216" y="48" on="0"/>
        <pt x="284" y="76" on="0"/>
        <pt x="328" y="127" on="0"/>
        <pt x="350" y="197" on="0"/>
        <pt x="353" y="240" on="1"/>
      </contour>
    </TTGlyph>
    <TTGlyph name="afii10096" xMin="86" yMin="-12" xMax="727" yMax="529">
      <contour>
        <pt x="727" y="258" on="1"/>
        <pt x="727" y="197" on="0"/>
        <pt x="693" y="97" on="0"/>
        <pt x="631" y="27" on="0"/>
        <pt x="547" y="-12" on="0"/>
        <pt x="496" y="-12" on="1"/>
        <pt x="447" y="-12" on="0"/>
        <pt x="365" y="24" on="0"/>
        <pt x="303" y="90" on="0"/>
        <pt x="267" y="183" on="0"/>
        <pt x="265" y="241" on="1"/>
        <pt x="151" y="241" on="1"/>
        <pt x="151" y="0" on="1"/>
        <pt x="86" y="0" on="1"/>
        <pt x="86" y="517" on="1"/>
        <pt x="151" y="517" on="1"/>
        <pt x="151" y="295" on="1"/>
        <pt x="266" y="295" on="1"/>
        <pt x="271" y="348" on="0"/>
        <pt x="309" y="435" on="0"/>
        <pt x="369" y="496" on="0"/>
        <pt x="449" y="529" on="0"/>
        <pt x="496" y="529" on="1"/>
        <pt x="547" y="529" on="0"/>
        <pt x="631" y="490" on="0"/>
        <pt x="693" y="419" on="0"/>
        <pt x="727" y="319" on="0"/>
      </contour>
      <contour>
        <pt x="658" y="258" on="1"/>
        <pt x="658" y="306" on="0"/>
        <pt x="635" y="385" on="0"/>
        <pt x="593" y="440" on="0"/>
        <pt x="533" y="470" on="0"/>
        <pt x="496" y="470" on="1"/>
        <pt x="458" y="470" on="0"/>
        <pt x="398" y="440" on="0"/>
        <pt x="356" y="385" on="0"/>
        <pt x="334" y="306" on="0"/>
        <pt x="334" y="258" on="1"/>
        <pt x="334" y="161" on="0"/>
        <pt x="421" y="47" on="0"/>
        <pt x="496" y="47" on="1"/>
        <pt x="571" y="47" on="0"/>
        <pt x="658" y="161" on="0"/>
      </contour>
    </TTGlyph>
    <TTGlyph name="afii10097" xMin="30" yMin="0" xMax="446" yMax="528">
      <contour>
        <pt x="220" y="211" on="1"/>
        <pt x="205" y="188" on="0"/>
        <pt x="170" y="134" on="0"/>
        <pt x="137" y="78" on="0"/>
        <pt x="107" y="23" on="0"/>
        <pt x="97" y="0" on="1"/>
        <pt x="30" y="0" on="1"/>
        <pt x="56" y="59" on="0"/>
        <pt x="130" y="179" on="0"/>
        <pt x="162" y="224" on="1"/>
        <pt x="142" y="230" on="0"/>
        <pt x="105" y="252" on="0"/>
        <pt x="76" y="286" on="0"/>
        <pt x="58" y="333" on="0"/>
        <pt x="58" y="363" on="1"/>
        <pt x="58" y="406" on="0"/>
        <pt x="91" y="468" on="0"/>
        <pt x="148" y="508" on="0"/>
        <pt x="227" y="528" on="0"/>
        <pt x="272" y="528" on="1"/>
        <pt x="292" y="528" on="0"/>
        <pt x="341" y="524" on="0"/>
        <pt x="390" y="517" on="0"/>
        <pt x="432" y="509" on="0"/>
        <pt x="446" y="505" on="1"/>
        <pt x="446" y="0" on="1"/>
        <pt x="381" y="0" on="1"/>
        <pt x="381" y="208" on="1"/>
        <pt x="288" y="208" on="1"/>
        <pt x="266" y="208" on="0"/>
        <pt x="231" y="209" on="0"/>
      </contour>
      <contour>
        <pt x="381" y="461" on="1"/>
        <pt x="369" y="464" on="0"/>
        <pt x="315" y="471" on="0"/>
        <pt x="273" y="471" on="1"/>
        <pt x="245" y="471" on="0"/>
        <pt x="192" y="460" on="0"/>
        <pt x="150" y="434" on="0"/>
        <pt x="125" y="393" on="0"/>
        <pt x="125" y="363" on="1"/>
        <pt x="125" y="334" on="0"/>
        <pt x="147" y="295" on="0"/>
        <pt x="187" y="272" on="0"/>
        <pt x="244" y="262" on="0"/>
        <pt x="279" y="262" on="1"/>
        <pt x="381" y="262" on="1"/>
      </contour>
    </TTGlyph>
    <TTGlyph name="afii10098" xMin="86" yMin="0" xMax="382" yMax="650">
      <contour>
        <pt x="382" y="462" on="1"/>
        <pt x="151" y="462" on="1"/>
        <pt x="151" y="0" on="1"/>
        <pt x="86" y="0" on="1"/>
        <pt x="86" y="517" on="1"/>
        <pt x="321" y="517" on="1"/>
        <pt x="321" y="650" on="1"/>
        <pt x="382" y="650" on="1"/>
      </contour>
    </TTGlyph>
    <TTGlyph name="afii10099" xMin="6" yMin="-186" xMax="489" yMax="776">
      <contour>
        <pt x="489" y="-26" on="1"/>
        <pt x="489" y="-60" on="0"/>
        <pt x="481" y="-119" on="0"/>
        <pt x="455" y="-162" on="0"/>
        <pt x="406" y="-186" on="0"/>
        <pt x="364" y="-186" on="1"/>
        <pt x="347" y="-186" on="0"/>
        <pt x="319" y="-181" on="0"/>
        <pt x="311" y="-178" on="1"/>
        <pt x="320" y="-125" on="1"/>
        <pt x="332" y="-130" on="0"/>
        <pt x="356" y="-130" on="1"/>
        <pt x="394" y="-130" on="0"/>
        <pt x="424" y="-85" on="0"/>
        <pt x="424" y="-37" on="1"/>
        <pt x="424" y="268" on="1"/>
        <pt x="424" y="323" on="0"/>
        <pt x="409" y="399" on="0"/>
        <pt x="374" y="447" on="0"/>
        <pt x="316" y="468" on="0"/>
        <pt x="272" y="468" on="1"/>
        <pt x="255" y="468" on="0"/>
        <pt x="216" y="462" on="0"/>
        <pt x="182" y="455" on="0"/>
        <pt x="155" y="447" on="0"/>
        <pt x="151" y="445" on="1"/>
        <pt x="151" y="0" on="1"/>
        <pt x="86" y="0" on="1"/>
        <pt x="86" y="628" on="1"/>
        <pt x="6" y="628" on="1"/>
        <pt x="6" y="680" on="1"/>
        <pt x="86" y="680" on="1"/>
        <pt x="86" y="764" on="1"/>
        <pt x="151" y="776" on="1"/>
        <pt x="151" y="680" on="1"/>
        <pt x="338" y="680" on="1"/>
        <pt x="338" y="628" on="1"/>
        <pt x="151" y="628" on="1"/>
        <pt x="151" y="502" on="1"/>
        <pt x="183" y="514" on="0"/>
        <pt x="249" y="527" on="0"/>
        <pt x="282" y="527" on="1"/>
        <pt x="342" y="527" on="0"/>
        <pt x="422" y="493" on="0"/>
        <pt x="470" y="430" on="0"/>
        <pt x="489" y="342" on="0"/>
        <pt x="489" y="289" on="1"/>
      </contour>
    </TTGlyph>
    <TTGlyph name="afii10100" xMin="86" yMin="0" xMax="382" yMax="773">
      <component glyphName="afii10068" x="0" y="0" flags="0x204"/>
      <component glyphName="acute" x="56" y="0" flags="0x4"/>
    </TTGlyph>
    <TTGlyph name="afii10101" xMin="56" yMin="-11" xMax="449" yMax="529">
      <contour>
        <pt x="125" y="240" on="1"/>
        <pt x="128" y="197" on="0"/>
        <pt x="150" y="127" on="0"/>
        <pt x="194" y="76" on="0"/>
        <pt x="262" y="48" on="0"/>
        <pt x="311" y="48" on="1"/>
        <pt x="356" y="48" on="0"/>
        <pt x="423" y="68" on="0"/>
        <pt x="435" y="76" on="1"/>
        <pt x="449" y="18" on="1"/>
        <pt x="431" y="8" on="0"/>
        <pt x="354" y="-11" on="0"/>
        <pt x="307" y="-11" on="1"/>
        <pt x="239" y="-11" on="0"/>
        <pt x="144" y="32" on="0"/>
        <pt x="84" y="105" on="0"/>
        <pt x="56" y="204" on="0"/>
        <pt x="56" y="260" on="1"/>
        <pt x="56" y="312" on="0"/>
        <pt x="84" y="410" on="0"/>
        <pt x="144" y="484" on="0"/>
        <pt x="237" y="529" on="0"/>
        <pt x="302" y="529" on="1"/>
        <pt x="321" y="529" on="0"/>
        <pt x="362" y="524" on="0"/>
        <pt x="398" y="516" on="0"/>
        <pt x="426" y="506" on="0"/>
        <pt x="432" y="501" on="1"/>
        <pt x="416" y="446" on="1"/>
        <pt x="405" y="453" on="0"/>
        <pt x="351" y="470" on="0"/>
        <pt x="304" y="470" on="1"/>
        <pt x="260" y="470" on="0"/>
        <pt x="197" y="443" on="0"/>
        <pt x="154" y="397" on="0"/>
        <pt x="130" y="332" on="0"/>
        <pt x="126" y="295" on="1"/>
        <pt x="343" y="295" on="1"/>
        <pt x="343" y="240" on="1"/>
      </contour>
    </TTGlyph>
    <TTGlyph name="afii10102" xMin="40" yMin="-12" xMax="388" yMax="529">
      <component glyphName="s" x="0" y="0" flags="0x204"/>
    </TTGlyph>
    <TTGlyph name="afii10103" xMin="70" yMin="0" xMax="166" yMax="723">
      <component glyphName="i" x="0" y="0" flags="0x204"/>
    </TTGlyph>
    <TTGlyph name="afii10104" xMin="-13" yMin="0" xMax="251" yMax="721">
      <component glyphName="dotlessi" x="0" y="0" flags="0x204"/>
      <component glyphName="dieresis" x="-69" y="0" flags="0x4"/>
    </TTGlyph>
    <TTGlyph name="afii10105" xMin="-63" yMin="-187" xMax="166" yMax="723">
      <component glyphName="j" x="0" y="0" flags="0x204"/>
    </TTGlyph>
    <TTGlyph name="afii10106" xMin="14" yMin="-11" xMax="817" yMax="517">
      <contour>
        <pt x="608" y="47" on="1"/>
        <pt x="671" y="47" on="0"/>
        <pt x="750" y="99" on="0"/>
        <pt x="750" y="158" on="1"/>
        <pt x="750" y="186" on="0"/>
        <pt x="728" y="228" on="0"/>
        <pt x="691" y="255" on="0"/>
        <pt x="642" y="268" on="0"/>
        <pt x="615" y="268" on="1"/>
        <pt x="584" y="268" on="0"/>
        <pt x="520" y="262" on="0"/>
        <pt x="494" y="253" on="1"/>
        <pt x="494" y="57" on="1"/>
        <pt x="507" y="54" on="0"/>
        <pt x="571" y="47" on="0"/>
      </contour>
      <contour>
        <pt x="494" y="517" on="1"/>
        <pt x="494" y="310" on="1"/>
        <pt x="512" y="315" on="0"/>
        <pt x="582" y="326" on="0"/>
        <pt x="617" y="326" on="1"/>
        <pt x="656" y="326" on="0"/>
        <pt x="729" y="308" on="0"/>
        <pt x="784" y="268" on="0"/>
        <pt x="817" y="204" on="0"/>
        <pt x="817" y="158" on="1"/>
        <pt x="817" y="112" on="0"/>
        <pt x="784" y="48" on="0"/>
        <pt x="728" y="7" on="0"/>
        <pt x="651" y="-11" on="0"/>
        <pt x="608" y="-11" on="1"/>
        <pt x="582" y="-11" on="0"/>
        <pt x="529" y="-7" on="0"/>
        <pt x="482" y="-1" on="0"/>
        <pt x="442" y="7" on="0"/>
        <pt x="429" y="12" on="1"/>
        <pt x="429" y="462" on="1"/>
        <pt x="239" y="462" on="1"/>
        <pt x="239" y="441" on="1"/>
        <pt x="239" y="411" on="0"/>
        <pt x="237" y="340" on="0"/>
        <pt x="231" y="266" on="0"/>
        <pt x="218" y="193" on="0"/>
        <pt x="208" y="161" on="1"/>
        <pt x="197" y="128" on="0"/>
        <pt x="164" y="69" on="0"/>
        <pt x="119" y="24" on="0"/>
        <pt x="60" y="-5" on="0"/>
        <pt x="23" y="-9" on="1"/>
        <pt x="14" y="45" on="1"/>
        <pt x="64" y="56" on="0"/>
        <pt x="125" y="116" on="0"/>
        <pt x="145" y="171" on="1"/>
        <pt x="165" y="226" on="0"/>
        <pt x="176" y="369" on="0"/>
        <pt x="176" y="454" on="1"/>
        <pt x="176" y="517" on="1"/>
      </contour>
    </TTGlyph>
    <TTGlyph name="afii10107" xMin="86" yMin="-11" xMax="820" yMax="517">
      <contour>
        <pt x="432" y="243" on="1"/>
        <pt x="151" y="243" on="1"/>
        <pt x="151" y="0" on="1"/>
        <pt x="86" y="0" on="1"/>
        <pt x="86" y="517" on="1"/>
        <pt x="151" y="517" on="1"/>
        <pt x="151" y="298" on="1"/>
        <pt x="432" y="298" on="1"/>
        <pt x="432" y="517" on="1"/>
        <pt x="497" y="517" on="1"/>
        <pt x="497" y="310" on="1"/>
        <pt x="515" y="315" on="0"/>
        <pt x="585" y="326" on="0"/>
        <pt x="620" y="326" on="1"/>
        <pt x="659" y="326" on="0"/>
        <pt x="732" y="308" on="0"/>
        <pt x="787" y="268" on="0"/>
        <pt x="820" y="204" on="0"/>
        <pt x="820" y="158" on="1"/>
        <pt x="820" y="112" on="0"/>
        <pt x="787" y="48" on="0"/>
        <pt x="731" y="7" on="0"/>
        <pt x="654" y="-11" on="0"/>
        <pt x="611" y="-11" on="1"/>
        <pt x="585" y="-11" on="0"/>
        <pt x="532" y="-7" on="0"/>
        <pt x="485" y="-1" on="0"/>
        <pt x="445" y="7" on="0"/>
        <pt x="432" y="12" on="1"/>
      </contour>
      <contour>
        <pt x="611" y="47" on="1"/>
        <pt x="674" y="47" on="0"/>
        <pt x="753" y="99" on="0"/>
        <pt x="753" y="158" on="1"/>
        <pt x="753" y="186" on="0"/>
        <pt x="731" y="228" on="0"/>
        <pt x="694" y="255" on="0"/>
        <pt x="645" y="268" on="0"/>
        <pt x="618" y="268" on="1"/>
        <pt x="587" y="268" on="0"/>
        <pt x="523" y="262" on="0"/>
        <pt x="497" y="253" on="1"/>
        <pt x="497" y="57" on="1"/>
        <pt x="510" y="54" on="0"/>
        <pt x="574" y="47" on="0"/>
      </contour>
    </TTGlyph>
    <TTGlyph name="afii10108" xMin="6" yMin="0" xMax="489" yMax="776">
      <component glyphName="hbar" x="0" y="0" flags="0x204"/>
    </TTGlyph>
    <TTGlyph name="afii10109" xMin="86" yMin="0" xMax="488" yMax="773">
      <component glyphName="afii10076" x="0" y="0" flags="0x204"/>
      <component glyphName="acute" x="83" y="0" flags="0x4"/>
    </TTGlyph>
    <TTGlyph name="afii10110" xMin="1" yMin="-188" xMax="451" yMax="738">
      <component glyphName="y" x="0" y="0" flags="0x204"/>
      <component glyphName="kratka" x="60" y="0" flags="0x4"/>
    </TTGlyph>
    <TTGlyph name="afii10145" xMin="90" yMin="-185" xMax="595" yMax="693">
      <contour>
        <pt x="375" y="0" on="1"/>
        <pt x="375" y="-185" on="1"/>
        <pt x="310" y="-185" on="1"/>
        <pt x="310" y="0" on="1"/>
        <pt x="90" y="0" on="1"/>
        <pt x="90" y="693" on="1"/>
        <pt x="158" y="693" on="1"/>
        <pt x="158" y="59" on="1"/>
        <pt x="527" y="59" on="1"/>
        <pt x="527" y="693" on="1"/>
        <pt x="595" y="693" on="1"/>
        <pt x="595" y="0" on="1"/>
      </contour>
    </TTGlyph>
    <TTGlyph name="afii10193" xMin="86" yMin="-145" xMax="485" yMax="517">
      <contour>
        <pt x="254" y="0" on="1"/>
        <pt x="86" y="0" on="1"/>
        <pt x="86" y="517" on="1"/>
        <pt x="151" y="517" on="1"/>
        <pt x="151" y="55" on="1"/>
        <pt x="420" y="55" on="1"/>
        <pt x="420" y="517" on="1"/>
        <pt x="485" y="517" on="1"/>
        <pt x="485" y="0" on="1"/>
        <pt x="317" y="0" on="1"/>
        <pt x="317" y="-145" on="1"/>
        <pt x="254" y="-145" on="1"/>
      </contour>
    </TTGlyph>
    <TTGlyph name="afii61289" xMin="3" yMin="-15" xMax="394" yMax="776">
      <contour>
        <pt x="110" y="257" on="1"/>
        <pt x="110" y="548" on="1"/>
        <pt x="110" y="594" on="0"/>
        <pt x="123" y="677" on="0"/>
        <pt x="155" y="740" on="0"/>
        <pt x="211" y="776" on="0"/>
        <pt x="255" y="776" on="1"/>
        <pt x="298" y="776" on="0"/>
        <pt x="349" y="742" on="0"/>
        <pt x="377" y="691" on="0"/>
        <pt x="386" y="632" on="0"/>
        <pt x="386" y="607" on="1"/>
        <pt x="386" y="495" on="0"/>
        <pt x="280" y="321" on="0"/>
        <pt x="175" y="243" on="1"/>
        <pt x="175" y="198" on="1"/>
        <pt x="175" y="172" on="0"/>
        <pt x="181" y="118" on="0"/>
        <pt x="204" y="73" on="0"/>
        <pt x="246" y="45" on="0"/>
        <pt x="282" y="45" on="1"/>
        <pt x="311" y="45" on="0"/>
        <pt x="349" y="61" on="0"/>
        <pt x="368" y="75" on="1"/>
        <pt x="394" y="22" on="1"/>
        <pt x="376" y="8" on="0"/>
        <pt x="318" y="-15" on="0"/>
        <pt x="276" y="-15" on="1"/>
        <pt x="228" y="-15" on="0"/>
        <pt x="164" y="12" on="0"/>
        <pt x="126" y="61" on="0"/>
        <pt x="110" y="132" on="0"/>
        <pt x="110" y="176" on="1"/>
        <pt x="110" y="197" on="1"/>
        <pt x="30" y="139" on="1"/>
        <pt x="3" y="179" on="1"/>
      </contour>
      <contour>
        <pt x="175" y="304" on="1"/>
        <pt x="211" y="335" on="0"/>
        <pt x="266" y="398" on="0"/>
        <pt x="304" y="469" on="0"/>
        <pt x="323" y="552" on="0"/>
        <pt x="323" y="602" on="1"/>
        <pt x="323" y="621" on="0"/>
        <pt x="318" y="661" on="0"/>
        <pt x="303" y="695" on="0"/>
        <pt x="276" y="717" on="0"/>
        <pt x="255" y="717" on="1"/>
        <pt x="240" y="717" on="0"/>
        <pt x="211" y="702" on="0"/>
        <pt x="188" y="665" on="0"/>
        <pt x="175" y="600" on="0"/>
        <pt x="175" y="550" on="1"/>
      </contour>
    </TTGlyph>
    <TTGlyph name="afii61352" xMin="90" yMin="0" xMax="1046" yMax="705">
      <contour>
        <pt x="529" y="693" on="1"/>
        <pt x="595" y="693" on="1"/>
        <pt x="595" y="0" on="1"/>
        <pt x="539" y="0" on="1"/>
        <pt x="520" y="36" on="0"/>
        <pt x="464" y="133" on="0"/>
        <pt x="398" y="241" on="0"/>
        <pt x="325" y="355" on="0"/>
        <pt x="252" y="462" on="0"/>
        <pt x="184" y="556" on="0"/>
        <pt x="156" y="591" on="1"/>
        <pt x="156" y="0" on="1"/>
        <pt x="90" y="0" on="1"/>
        <pt x="90" y="693" on="1"/>
        <pt x="152" y="693" on="1"/>
        <pt x="200" y="635" on="0"/>
        <pt x="307" y="489" on="0"/>
        <pt x="410" y="337" on="0"/>
        <pt x="499" y="192" on="0"/>
        <pt x="529" y="135" on="1"/>
      </contour>
      <contour>
        <pt x="1046" y="518" on="1"/>
        <pt x="1046" y="476" on="0"/>
        <pt x="1020" y="407" on="0"/>
        <pt x="974" y="358" on="0"/>
        <pt x="910" y="331" on="0"/>
        <pt x="873" y="331" on="1"/>
        <pt x="836" y="331" on="0"/>
        <pt x="773" y="358" on="0"/>
        <pt x="727" y="407" on="0"/>
        <pt x="701" y="476" on="0"/>
        <pt x="701" y="518" on="1"/>
        <pt x="701" y="560" on="0"/>
        <pt x="727" y="629" on="0"/>
        <pt x="773" y="678" on="0"/>
        <pt x="836" y="705" on="0"/>
        <pt x="873" y="705" on="1"/>
        <pt x="910" y="705" on="0"/>
        <pt x="974" y="678" on="0"/>
        <pt x="1020" y="629" on="0"/>
        <pt x="1046" y="560" on="0"/>
      </contour>
      <contour>
        <pt x="987" y="518" on="1"/>
        <pt x="987" y="581" on="0"/>
        <pt x="925" y="656" on="0"/>
        <pt x="873" y="656" on="1"/>
        <pt x="822" y="656" on="0"/>
        <pt x="760" y="581" on="0"/>
        <pt x="760" y="518" on="1"/>
        <pt x="760" y="455" on="0"/>
        <pt x="822" y="380" on="0"/>
        <pt x="873" y="380" on="1"/>
        <pt x="925" y="380" on="0"/>
        <pt x="987" y="455" on="0"/>
      </contour>
      <contour>
        <pt x="708" y="221" on="1"/>
        <pt x="1039" y="221" on="1"/>
        <pt x="1039" y="156" on="1"/>
        <pt x="708" y="156" on="1"/>
      </contour>
    </TTGlyph>
    <TTGlyph name="agrave" xMin="48" yMin="-11" xMax="429" yMax="773">
      <component glyphName="a" x="0" y="0" flags="0x204"/>
      <component glyphName="grave" x="62" y="0" flags="0x4"/>
    </TTGlyph>
    <TTGlyph name="alpha" xMin="55" yMin="-11" xMax="573" yMax="527">
      <contour>
        <pt x="451" y="41" on="1"/>
        <pt x="426" y="21" on="0"/>
        <pt x="351" y="-11" on="0"/>
        <pt x="297" y="-11" on="1"/>
        <pt x="236" y="-11" on="0"/>
        <pt x="145" y="31" on="0"/>
        <pt x="85" y="103" on="0"/>
        <pt x="55" y="201" on="0"/>
        <pt x="55" y="257" on="1"/>
        <pt x="55" y="321" on="0"/>
        <pt x="92" y="422" on="0"/>
        <pt x="161" y="491" on="0"/>
        <pt x="257" y="527" on="0"/>
        <pt x="316" y="527" on="1"/>
        <pt x="346" y="527" on="0"/>
        <pt x="401" y="520" on="0"/>
        <pt x="448" y="511" on="0"/>
        <pt x="483" y="500" on="0"/>
        <pt x="493" y="496" on="1"/>
        <pt x="493" y="127" on="1"/>
        <pt x="493" y="102" on="0"/>
        <pt x="503" y="73" on="0"/>
        <pt x="523" y="56" on="0"/>
        <pt x="553" y="48" on="0"/>
        <pt x="573" y="45" on="1"/>
        <pt x="564" y="-9" on="1"/>
        <pt x="483" y="-6" on="0"/>
      </contour>
      <contour>
        <pt x="428" y="451" on="1"/>
        <pt x="425" y="452" on="0"/>
        <pt x="405" y="458" on="0"/>
        <pt x="376" y="464" on="0"/>
        <pt x="340" y="468" on="0"/>
        <pt x="321" y="468" on="1"/>
        <pt x="228" y="468" on="0"/>
        <pt x="124" y="360" on="0"/>
        <pt x="124" y="257" on="1"/>
        <pt x="124" y="215" on="0"/>
        <pt x="141" y="140" on="0"/>
        <pt x="182" y="82" on="0"/>
        <pt x="248" y="48" on="0"/>
        <pt x="297" y="48" on="1"/>
        <pt x="321" y="48" on="0"/>
        <pt x="365" y="58" on="0"/>
        <pt x="400" y="72" on="0"/>
        <pt x="426" y="88" on="0"/>
        <pt x="433" y="94" on="1"/>
        <pt x="428" y="116" on="0"/>
        <pt x="428" y="141" on="1"/>
      </contour>
    </TTGlyph>
    <TTGlyph name="alphatonos" xMin="55" yMin="-11" xMax="573" yMax="777">
      <component glyphName="alpha" x="0" y="0" flags="0x204"/>
      <component glyphName="tonos" x="76" y="0" flags="0x4"/>
    </TTGlyph>
    <TTGlyph name="amacron" xMin="48" yMin="-11" xMax="429" yMax="704">
      <component glyphName="a" x="0" y="0" flags="0x204"/>
      <component glyphName="macron" x="72" y="0" flags="0x4"/>
    </TTGlyph>
    <TTGlyph name="ampersand" xMin="50" yMin="-9" xMax="638" yMax="708">
      <contour>
        <pt x="486" y="178" on="1"/>
        <pt x="507" y="213" on="0"/>
        <pt x="533" y="296" on="0"/>
        <pt x="538" y="338" on="1"/>
        <pt x="594" y="331" on="1"/>
        <pt x="589" y="282" on="0"/>
        <pt x="555" y="182" on="0"/>
        <pt x="525" y="137" on="1"/>
        <pt x="562" y="99" on="0"/>
        <pt x="621" y="31" on="0"/>
        <pt x="638" y="0" on="1"/>
        <pt x="565" y="0" on="1"/>
        <pt x="551" y="23" on="0"/>
        <pt x="512" y="68" on="0"/>
        <pt x="489" y="91" on="1"/>
        <pt x="447" y="46" on="0"/>
        <pt x="336" y="-9" on="0"/>
        <pt x="267" y="-9" on="1"/>
        <pt x="206" y="-9" on="0"/>
        <pt x="123" y="26" on="0"/>
        <pt x="72" y="81" on="0"/>
        <pt x="50" y="147" on="0"/>
        <pt x="50" y="179" on="1"/>
        <pt x="50" y="219" on="0"/>
        <pt x="75" y="282" on="0"/>
        <pt x="117" y="331" on="0"/>
        <pt x="173" y="369" on="0"/>
        <pt x="203" y="383" on="1"/>
        <pt x="159" y="424" on="0"/>
        <pt x="124" y="502" on="0"/>
        <pt x="124" y="542" on="1"/>
        <pt x="124" y="581" on="0"/>
        <pt x="149" y="643" on="0"/>
        <pt x="194" y="686" on="0"/>
        <pt x="256" y="708" on="0"/>
        <pt x="292" y="708" on="1"/>
        <pt x="329" y="708" on="0"/>
        <pt x="389" y="685" on="0"/>
        <pt x="429" y="646" on="0"/>
        <pt x="451" y="592" on="0"/>
        <pt x="451" y="561" on="1"/>
        <pt x="451" y="524" on="0"/>
        <pt x="425" y="465" on="0"/>
        <pt x="383" y="419" on="0"/>
        <pt x="328" y="383" on="0"/>
        <pt x="300" y="368" on="1"/>
      </contour>
      <contour>
        <pt x="267" y="48" on="1"/>
        <pt x="325" y="48" on="0"/>
        <pt x="416" y="92" on="0"/>
        <pt x="450" y="130" on="1"/>
        <pt x="240" y="345" on="1"/>
        <pt x="220" y="335" on="0"/>
        <pt x="177" y="309" on="0"/>
        <pt x="142" y="270" on="0"/>
        <pt x="120" y="216" on="0"/>
        <pt x="120" y="179" on="1"/>
        <pt x="120" y="156" on="0"/>
        <pt x="136" y="109" on="0"/>
        <pt x="170" y="72" on="0"/>
        <pt x="226" y="48" on="0"/>
      </contour>
      <contour>
        <pt x="389" y="560" on="1"/>
        <pt x="389" y="599" on="0"/>
        <pt x="336" y="652" on="0"/>
        <pt x="294" y="652" on="1"/>
        <pt x="243" y="652" on="0"/>
        <pt x="190" y="597" on="0"/>
        <pt x="190" y="549" on="1"/>
        <pt x="190" y="514" on="0"/>
        <pt x="221" y="445" on="0"/>
        <pt x="265" y="405" on="1"/>
        <pt x="319" y="431" on="0"/>
        <pt x="389" y="501" on="0"/>
      </contour>
    </TTGlyph>
    <TTGlyph name="aogonek" xMin="48" yMin="-186" xMax="430" yMax="529">
      <contour>
        <pt x="243" y="529" on="1"/>
        <pt x="294" y="529" on="0"/>
        <pt x="365" y="500" on="0"/>
        <pt x="409" y="449" on="0"/>
        <pt x="429" y="379" on="0"/>
        <pt x="429" y="338" on="1"/>
        <pt x="429" y="10" on="1"/>
        <pt x="405" y="-9" on="0"/>
        <pt x="380" y="-36" on="1"/>
        <pt x="364" y="-53" on="0"/>
        <pt x="345" y="-84" on="0"/>
        <pt x="345" y="-101" on="1"/>
        <pt x="345" y="-119" on="0"/>
        <pt x="369" y="-135" on="0"/>
        <pt x="387" y="-135" on="1"/>
        <pt x="396" y="-135" on="0"/>
        <pt x="417" y="-132" on="0"/>
        <pt x="425" y="-129" on="1"/>
        <pt x="430" y="-177" on="1"/>
        <pt x="422" y="-180" on="0"/>
        <pt x="391" y="-186" on="0"/>
        <pt x="376" y="-186" on="1"/>
        <pt x="322" y="-186" on="0"/>
        <pt x="278" y="-147" on="0"/>
        <pt x="278" y="-116" on="1"/>
        <pt x="278" y="-97" on="0"/>
        <pt x="291" y="-65" on="0"/>
        <pt x="312" y="-37" on="0"/>
        <pt x="339" y="-14" on="0"/>
        <pt x="352" y="-4" on="1"/>
        <pt x="327" y="-7" on="0"/>
        <pt x="269" y="-11" on="0"/>
        <pt x="238" y="-11" on="1"/>
        <pt x="197" y="-11" on="0"/>
        <pt x="128" y="7" on="0"/>
        <pt x="77" y="46" on="0"/>
        <pt x="48" y="107" on="0"/>
        <pt x="48" y="151" on="1"/>
        <pt x="48" y="193" on="0"/>
        <pt x="80" y="253" on="0"/>
        <pt x="138" y="292" on="0"/>
        <pt x="218" y="310" on="0"/>
        <pt x="265" y="310" on="1"/>
        <pt x="279" y="310" on="0"/>
        <pt x="310" y="307" on="0"/>
        <pt x="339" y="302" on="0"/>
        <pt x="360" y="297" on="0"/>
        <pt x="364" y="295" on="1"/>
        <pt x="364" y="327" on="1"/>
        <pt x="364" y="354" on="0"/>
        <pt x="356" y="405" on="0"/>
        <pt x="329" y="446" on="0"/>
        <pt x="280" y="471" on="0"/>
        <pt x="240" y="471" on="1"/>
        <pt x="186" y="471" on="0"/>
        <pt x="126" y="456" on="0"/>
        <pt x="113" y="451" on="1"/>
        <pt x="105" y="507" on="1"/>
        <pt x="122" y="515" on="0"/>
        <pt x="194" y="529" on="0"/>
      </contour>
      <contour>
        <pt x="249" y="47" on="1"/>
        <pt x="287" y="47" on="0"/>
        <pt x="344" y="52" on="0"/>
        <pt x="364" y="56" on="1"/>
        <pt x="364" y="238" on="1"/>
        <pt x="353" y="243" on="0"/>
        <pt x="305" y="254" on="0"/>
        <pt x="263" y="254" on="1"/>
        <pt x="239" y="254" on="0"/>
        <pt x="187" y="247" on="0"/>
        <pt x="143" y="224" on="0"/>
        <pt x="115" y="184" on="0"/>
        <pt x="115" y="151" on="1"/>
        <pt x="115" y="122" on="0"/>
        <pt x="134" y="82" on="0"/>
        <pt x="169" y="58" on="0"/>
        <pt x="218" y="47" on="0"/>
      </contour>
    </TTGlyph>
    <TTGlyph name="apostrophe" xMin="124" yMin="569" xMax="235" yMax="776">
      <contour>
        <pt x="235" y="776" on="1"/>
        <pt x="235" y="713" on="0"/>
        <pt x="199" y="619" on="0"/>
        <pt x="169" y="569" on="1"/>
        <pt x="124" y="590" on="1"/>
        <pt x="141" y="625" on="0"/>
        <pt x="164" y="703" on="0"/>
        <pt x="164" y="741" on="1"/>
        <pt x="164" y="750" on="0"/>
        <pt x="163" y="771" on="0"/>
        <pt x="162" y="776" on="1"/>
      </contour>
    </TTGlyph>
    <TTGlyph name="approxequal" xMin="50" yMin="123" xMax="514" yMax="467">
      <component glyphName="asciitilde" x="0" y="101" flags="0x214"/>
      <component glyphName="asciitilde" x="0" y="-99" flags="0x4"/>
    </TTGlyph>
    <TTGlyph name="aring" xMin="48" yMin="-11" xMax="429" yMax="771">
      <component glyphName="a" x="0" y="0" flags="0x204"/>
      <component glyphName="ring" x="73" y="0" flags="0x4"/>
    </TTGlyph>
    <TTGlyph name="aringacute" xMin="48" yMin="-11" xMax="429" yMax="899">
      <component glyphName="a" x="0" y="0" flags="0x204"/>
      <component glyphName="ring_acute" x="73" y="0" flags="0x4"/>
    </TTGlyph>
</ttFont>
